<svg xmlns="http://www.w3.org/2000/svg" viewBox="-64.02 13.08 742.00 742.00">
<path d="M 45.47 715.36 L 38.22 735.09 L 33.06 718.13 L 45.47 715.36 Z" fill="#243771" stroke="#243771" stroke-width="1.2" stroke-linejoin="round"/>
<path d="M 336.58 493.74 L 290.85 453.52 L 329.09 433.40 L 336.58 493.74 Z" fill="#4579a9" stroke="#4579a9" stroke-width="1.2" stroke-linejoin="round"/>
<path d="M 33.06 673.88 L 38.32 681.11 L 33.06 696.00 L 33.06 673.88 Z" fill="#2a4078" stroke="#2a4078" stroke-width="1.2" stroke-linejoin="round"/>
<path d="M 45.47 715.36 L 33.06 718.13 L 33.06 696.00 L 45.47 715.36 Z" fill="#263a73" stroke="#263a73" stroke-width="1.2" stroke-linejoin="round"/>
<path d="M 38.32 681.11 L 45.47 715.36 L 33.06 696.00 L 38.32 681.11 Z" fill="#283d75" stroke="#283d75" stroke-width="1.2" stroke-linejoin="round"/>
<path d="M 82.18 642.61 L 80.95 688.91 L 38.32 681.11 L 82.18 642.61 Z" fill="#2d457d" stroke="#2d457d" stroke-width="1.2" stroke-linejoin="round"/>
<path d="M 38.32 681.11 L 80.95 688.91 L 45.47 715.36 L 38.32 681.11 Z" fill="#293f77" stroke="#293f77" stroke-width="1.2" stroke-linejoin="round"/>
<path d="M 45.47 715.36 L 60.35 735.09 L 38.22 735.09 L 45.47 715.36 Z" fill="#243771" stroke="#243771" stroke-width="1.2" stroke-linejoin="round"/>
<path d="M 459.74 719.06 L 485.65 720.10 L 479.53 735.09 L 459.74 719.06 Z" fill="#395a9d" stroke="#395a9d" stroke-width="1.2" stroke-linejoin="round"/>
<path d="M 514.04 615.07 L 498.36 595.84 L 502.89 595.96 L 506.82 602.70 L 514.04 615.07 Z" fill="#3d6ba7" stroke="#3d6ba7" stroke-width="1.2" stroke-linejoin="round"/>
<path d="M 498.36 595.84 L 514.04 615.07 L 492.38 637.03 L 498.36 595.84 Z" fill="#3d69a6" stroke="#3d69a6" stroke-width="1.2" stroke-linejoin="round"/>
<path d="M 336.58 493.74 L 329.09 433.40 L 373.17 441.44 L 336.58 493.74 Z" fill="#457aaa" stroke="#457aaa" stroke-width="1.2" stroke-linejoin="round"/>
<path d="M 373.70 402.72 L 373.17 441.44 L 340.64 411.53 L 373.70 402.72 Z" fill="#4780ae" stroke="#4780ae" stroke-width="1.2" stroke-linejoin="round"/>
<path d="M 329.09 433.40 L 340.64 411.53 L 373.17 441.44 L 329.09 433.40 Z" fill="#467ead" stroke="#467ead" stroke-width="1.2" stroke-linejoin="round"/>
<path d="M 477.55 433.47 L 466.44 439.64 L 457.87 443.56 L 477.55 433.47 Z" fill="#417bad" stroke="#417bad" stroke-width="1.2" stroke-linejoin="round"/>
<path d="M 437.76 518.45 L 423.89 574.78 L 404.80 516.25 L 437.76 518.45 Z" fill="#3f70a6" stroke="#3f70a6" stroke-width="1.2" stroke-linejoin="round"/>
<path d="M 372.56 562.71 L 404.80 516.25 L 423.89 574.78 L 372.56 562.71 Z" fill="#3e6da4" stroke="#3e6da4" stroke-width="1.2" stroke-linejoin="round"/>
<path d="M 79.96 167.53 L 116.96 159.87 L 80.35 203.69 L 79.96 167.53 Z" fill="#72b2d2" stroke="#72b2d2" stroke-width="1.2" stroke-linejoin="round"/>
<path d="M 72.68 133.41 L 116.96 159.87 L 79.96 167.53 L 72.68 133.41 Z" fill="#76b7d6" stroke="#76b7d6" stroke-width="1.2" stroke-linejoin="round"/>
<path d="M 72.68 133.41 L 133.29 113.50 L 116.96 159.87 L 72.68 133.41 Z" fill="#76bad8" stroke="#76bad8" stroke-width="1.2" stroke-linejoin="round"/>
<path d="M 72.68 133.41 L 97.75 94.10 L 133.29 113.50 L 72.68 133.41 Z" fill="#7abfdc" stroke="#7abfdc" stroke-width="1.2" stroke-linejoin="round"/>
<path d="M 157.04 212.22 L 126.90 213.96 L 116.96 159.87 L 157.04 212.22 Z" fill="#6caccd" stroke="#6caccd" stroke-width="1.2" stroke-linejoin="round"/>
<path d="M 80.35 203.69 L 116.96 159.87 L 126.90 213.96 L 80.35 203.69 Z" fill="#6faece" stroke="#6faece" stroke-width="1.2" stroke-linejoin="round"/>
<path d="M 437.51 274.41 L 422.51 255.19 L 445.20 248.54 L 437.51 274.41 Z" fill="#4a96bb" stroke="#4a96bb" stroke-width="1.2" stroke-linejoin="round"/>
<path d="M 54.90 630.94 L 82.18 642.61 L 33.06 651.75 L 54.90 630.94 Z" fill="#314b81" stroke="#314b81" stroke-width="1.2" stroke-linejoin="round"/>
<path d="M 82.18 642.61 L 38.32 681.11 L 33.06 651.75 L 82.18 642.61 Z" fill="#2e477e" stroke="#2e477e" stroke-width="1.2" stroke-linejoin="round"/>
<path d="M 33.06 651.75 L 38.32 681.11 L 33.06 673.88 L 33.06 651.75 Z" fill="#2c437a" stroke="#2c437a" stroke-width="1.2" stroke-linejoin="round"/>
<path d="M 359.01 676.94 L 358.94 674.25 L 369.68 696.33 L 362.64 683.55 L 359.01 676.94 Z" fill="#365896" stroke="#365896" stroke-width="1.2" stroke-linejoin="round"/>
<path d="M 359.01 676.94 L 348.33 657.56 L 358.94 674.25 L 359.01 676.94 Z" fill="#375996" stroke="#375996" stroke-width="1.2" stroke-linejoin="round"/>
<path d="M 360.55 640.83 L 358.94 674.25 L 348.33 657.56 L 360.55 640.83 Z" fill="#375b97" stroke="#375b97" stroke-width="1.2" stroke-linejoin="round"/>
<path d="M 290.85 453.52 L 280.68 395.30 L 329.09 433.40 L 290.85 453.52 Z" fill="#487eac" stroke="#487eac" stroke-width="1.2" stroke-linejoin="round"/>
<path d="M 290.85 453.52 L 246.92 415.84 L 280.68 395.30 L 290.85 453.52 Z" fill="#4a7eac" stroke="#4a7eac" stroke-width="1.2" stroke-linejoin="round"/>
<path d="M 329.09 433.40 L 280.68 395.30 L 340.64 411.53 L 329.09 433.40 Z" fill="#4980ae" stroke="#4980ae" stroke-width="1.2" stroke-linejoin="round"/>
<path d="M 258.08 365.73 L 280.68 395.30 L 246.92 415.84 L 258.08 365.73 Z" fill="#4d84af" stroke="#4d84af" stroke-width="1.2" stroke-linejoin="round"/>
<path d="M 322.03 353.22 L 340.64 411.53 L 280.68 395.30 L 322.03 353.22 Z" fill="#4b85b1" stroke="#4b85b1" stroke-width="1.2" stroke-linejoin="round"/>
<path d="M 131.61 721.73 L 128.11 693.23 L 165.72 682.62 L 131.61 721.73 Z" fill="#2c447f" stroke="#2c447f" stroke-width="1.2" stroke-linejoin="round"/>
<path d="M 336.58 493.74 L 286.51 486.68 L 290.85 453.52 L 336.58 493.74 Z" fill="#4475a7" stroke="#4475a7" stroke-width="1.2" stroke-linejoin="round"/>
<path d="M 163.76 535.14 L 203.99 524.73 L 203.99 546.85 L 163.76 535.14 Z" fill="#40689b" stroke="#40689b" stroke-width="1.2" stroke-linejoin="round"/>
<path d="M 448.83 638.50 L 492.38 637.03 L 483.61 681.56 L 448.83 638.50 Z" fill="#3b63a2" stroke="#3b63a2" stroke-width="1.2" stroke-linejoin="round"/>
<path d="M 485.65 720.10 L 459.74 719.06 L 483.61 681.56 L 485.65 720.10 Z" fill="#395d9e" stroke="#395d9e" stroke-width="1.2" stroke-linejoin="round"/>
<path d="M 485.65 720.10 L 483.61 681.56 L 528.42 678.12 L 485.65 720.10 Z" fill="#3b60a1" stroke="#3b60a1" stroke-width="1.2" stroke-linejoin="round"/>
<path d="M 492.38 637.03 L 528.42 678.12 L 483.61 681.56 L 492.38 637.03 Z" fill="#3b63a3" stroke="#3b63a3" stroke-width="1.2" stroke-linejoin="round"/>
<path d="M 525.18 634.19 L 492.38 637.03 L 514.04 615.07 L 520.21 625.67 L 525.18 634.19 Z" fill="#3c68a6" stroke="#3c68a6" stroke-width="1.2" stroke-linejoin="round"/>
<path d="M 569.75 710.65 L 571.55 713.74 L 580.89 729.77 L 568.03 735.09 L 569.75 710.65 Z" fill="#3d62a7" stroke="#3d62a7" stroke-width="1.2" stroke-linejoin="round"/>
<path d="M 498.36 595.84 L 491.75 576.84 L 502.89 595.96 L 498.36 595.84 Z" fill="#3d6ca7" stroke="#3d6ca7" stroke-width="1.2" stroke-linejoin="round"/>
<path d="M 469.47 538.61 L 437.76 518.45 L 458.33 519.50 L 469.47 538.61 Z" fill="#3f73a8" stroke="#3f73a8" stroke-width="1.2" stroke-linejoin="round"/>
<path d="M 458.33 519.50 L 437.76 518.45 L 447.18 500.38 L 454.08 512.22 L 458.33 519.50 Z" fill="#4074a9" stroke="#4074a9" stroke-width="1.2" stroke-linejoin="round"/>
<path d="M 373.70 402.72 L 406.01 362.22 L 411.64 391.90 L 373.70 402.72 Z" fill="#4785b1" stroke="#4785b1" stroke-width="1.2" stroke-linejoin="round"/>
<path d="M 373.70 402.72 L 371.13 354.19 L 406.01 362.22 L 373.70 402.72 Z" fill="#4887b2" stroke="#4887b2" stroke-width="1.2" stroke-linejoin="round"/>
<path d="M 373.70 402.72 L 340.64 411.53 L 371.13 354.19 L 373.70 402.72 Z" fill="#4884b1" stroke="#4884b1" stroke-width="1.2" stroke-linejoin="round"/>
<path d="M 397.55 476.45 L 373.17 441.44 L 412.26 437.21 L 397.55 476.45 Z" fill="#447bac" stroke="#447bac" stroke-width="1.2" stroke-linejoin="round"/>
<path d="M 445.19 409.57 L 412.26 437.21 L 411.64 391.90 L 445.19 409.57 Z" fill="#4481af" stroke="#4481af" stroke-width="1.2" stroke-linejoin="round"/>
<path d="M 373.70 402.72 L 412.26 437.21 L 373.17 441.44 L 373.70 402.72 Z" fill="#457fae" stroke="#457fae" stroke-width="1.2" stroke-linejoin="round"/>
<path d="M 373.70 402.72 L 411.64 391.90 L 412.26 437.21 L 373.70 402.72 Z" fill="#4681af" stroke="#4681af" stroke-width="1.2" stroke-linejoin="round"/>
<path d="M 404.80 516.25 L 397.55 476.45 L 436.04 481.27 L 436.04 481.27 L 404.80 516.25 Z" fill="#4176a9" stroke="#4176a9" stroke-width="1.2" stroke-linejoin="round"/>
<path d="M 447.18 500.38 L 437.76 518.45 L 436.04 481.27 L 445.46 497.42 L 447.18 500.38 Z" fill="#4075aa" stroke="#4075aa" stroke-width="1.2" stroke-linejoin="round"/>
<path d="M 437.76 518.45 L 404.80 516.25 L 436.04 481.27 L 437.76 518.45 Z" fill="#4074a9" stroke="#4074a9" stroke-width="1.2" stroke-linejoin="round"/>
<path d="M 397.55 476.45 L 404.80 516.25 L 382.85 494.54 L 397.55 476.45 Z" fill="#4175a8" stroke="#4175a8" stroke-width="1.2" stroke-linejoin="round"/>
<path d="M 336.58 493.74 L 373.17 441.44 L 382.85 494.54 L 336.58 493.74 Z" fill="#4377a9" stroke="#4377a9" stroke-width="1.2" stroke-linejoin="round"/>
<path d="M 397.55 476.45 L 382.85 494.54 L 373.17 441.44 L 397.55 476.45 Z" fill="#4378aa" stroke="#4378aa" stroke-width="1.2" stroke-linejoin="round"/>
<path d="M 446.65 565.34 L 437.76 518.45 L 469.47 538.61 L 446.65 565.34 Z" fill="#3f70a7" stroke="#3f70a7" stroke-width="1.2" stroke-linejoin="round"/>
<path d="M 437.76 518.45 L 446.65 565.34 L 423.89 574.78 L 437.76 518.45 Z" fill="#3e6ea6" stroke="#3e6ea6" stroke-width="1.2" stroke-linejoin="round"/>
<path d="M 446.65 565.34 L 469.47 538.61 L 473.99 546.37 L 480.61 557.73 L 446.65 565.34 Z" fill="#3e6fa7" stroke="#3e6fa7" stroke-width="1.2" stroke-linejoin="round"/>
<path d="M 446.65 565.34 L 480.61 557.73 L 482.70 561.31 L 491.75 576.84 L 446.65 565.34 Z" fill="#3e6ea7" stroke="#3e6ea7" stroke-width="1.2" stroke-linejoin="round"/>
<path d="M 57.19 121.68 L 33.06 120.74 L 33.06 98.62 L 57.19 121.68 Z" fill="#81c3e0" stroke="#81c3e0" stroke-width="1.2" stroke-linejoin="round"/>
<path d="M 72.68 133.41 L 57.19 121.68 L 97.75 94.10 L 72.68 133.41 Z" fill="#7dc0dd" stroke="#7dc0dd" stroke-width="1.2" stroke-linejoin="round"/>
<path d="M 79.96 167.53 L 80.35 203.69 L 33.06 187.12 L 79.96 167.53 Z" fill="#74b1d1" stroke="#74b1d1" stroke-width="1.2" stroke-linejoin="round"/>
<path d="M 33.06 164.99 L 79.96 167.53 L 33.06 187.12 L 33.06 164.99 Z" fill="#78b5d4" stroke="#78b5d4" stroke-width="1.2" stroke-linejoin="round"/>
<path d="M 42.43 294.33 L 38.11 319.33 L 33.06 297.74 L 42.43 294.33 Z" fill="#6597bd" stroke="#6597bd" stroke-width="1.2" stroke-linejoin="round"/>
<path d="M 33.06 275.62 L 42.43 294.33 L 33.06 297.74 L 33.06 275.62 Z" fill="#679bc0" stroke="#679bc0" stroke-width="1.2" stroke-linejoin="round"/>
<path d="M 84.31 368.01 L 85.15 415.16 L 33.06 386.25 L 84.31 368.01 Z" fill="#5684ae" stroke="#5684ae" stroke-width="1.2" stroke-linejoin="round"/>
<path d="M 131.68 364.79 L 137.20 394.63 L 84.31 368.01 L 131.68 364.79 Z" fill="#5687b1" stroke="#5687b1" stroke-width="1.2" stroke-linejoin="round"/>
<path d="M 85.15 415.16 L 84.31 368.01 L 137.20 394.63 L 85.15 415.16 Z" fill="#5483ae" stroke="#5483ae" stroke-width="1.2" stroke-linejoin="round"/>
<path d="M 158.12 476.88 L 198.69 450.62 L 203.99 480.47 L 158.12 476.88 Z" fill="#4874a4" stroke="#4874a4" stroke-width="1.2" stroke-linejoin="round"/>
<path d="M 170.29 444.11 L 198.69 450.62 L 158.12 476.88 L 170.29 444.11 Z" fill="#4977a5" stroke="#4977a5" stroke-width="1.2" stroke-linejoin="round"/>
<path d="M 33.06 629.63 L 54.90 630.94 L 33.06 651.75 L 33.06 629.63 Z" fill="#314b81" stroke="#314b81" stroke-width="1.2" stroke-linejoin="round"/>
<path d="M 337.66 638.18 L 360.55 640.83 L 348.33 657.56 L 342.06 646.18 L 337.66 638.18 Z" fill="#385c98" stroke="#385c98" stroke-width="1.2" stroke-linejoin="round"/>
<path d="M 126.72 735.09 L 131.61 721.73 L 148.85 735.09 L 126.72 735.09 Z" fill="#283d7a" stroke="#283d7a" stroke-width="1.2" stroke-linejoin="round"/>
<path d="M 104.60 735.09 L 131.61 721.73 L 126.72 735.09 L 104.60 735.09 Z" fill="#273c78" stroke="#273c78" stroke-width="1.2" stroke-linejoin="round"/>
<path d="M 322.03 353.22 L 294.43 349.15 L 310.09 349.15 L 315.86 349.06 L 317.04 348.98 L 322.03 353.22 Z" fill="#4e8bb4" stroke="#4e8bb4" stroke-width="1.2" stroke-linejoin="round"/>
<path d="M 322.03 353.22 L 281.69 366.70 L 294.43 349.15 L 322.03 353.22 Z" fill="#4e8ab4" stroke="#4e8ab4" stroke-width="1.2" stroke-linejoin="round"/>
<path d="M 322.03 353.22 L 280.68 395.30 L 281.69 366.70 L 322.03 353.22 Z" fill="#4d87b2" stroke="#4d87b2" stroke-width="1.2" stroke-linejoin="round"/>
<path d="M 281.69 366.70 L 271.82 349.15 L 294.43 349.15 L 281.69 366.70 Z" fill="#4f8ab4" stroke="#4f8ab4" stroke-width="1.2" stroke-linejoin="round"/>
<path d="M 281.69 366.70 L 258.08 365.73 L 271.82 349.15 L 281.69 366.70 Z" fill="#4f89b3" stroke="#4f89b3" stroke-width="1.2" stroke-linejoin="round"/>
<path d="M 258.08 365.73 L 281.69 366.70 L 280.68 395.30 L 258.08 365.73 Z" fill="#4e86b1" stroke="#4e86b1" stroke-width="1.2" stroke-linejoin="round"/>
<path d="M 177.92 713.19 L 193.10 735.09 L 170.98 735.09 L 177.92 713.19 Z" fill="#2a427f" stroke="#2a427f" stroke-width="1.2" stroke-linejoin="round"/>
<path d="M 177.92 713.19 L 170.98 735.09 L 148.85 735.09 L 177.92 713.19 Z" fill="#2a417d" stroke="#2a417d" stroke-width="1.2" stroke-linejoin="round"/>
<path d="M 131.61 721.73 L 177.92 713.19 L 148.85 735.09 L 131.61 721.73 Z" fill="#2a407c" stroke="#2a407c" stroke-width="1.2" stroke-linejoin="round"/>
<path d="M 131.61 721.73 L 165.72 682.62 L 177.92 713.19 L 131.61 721.73 Z" fill="#2c4480" stroke="#2c4480" stroke-width="1.2" stroke-linejoin="round"/>
<path d="M 203.99 679.60 L 165.72 682.62 L 203.99 657.48 L 203.99 679.60 Z" fill="#314d87" stroke="#314d87" stroke-width="1.2" stroke-linejoin="round"/>
<path d="M 203.99 701.73 L 165.72 682.62 L 203.99 679.60 L 203.99 701.73 Z" fill="#2f4a85" stroke="#2f4a85" stroke-width="1.2" stroke-linejoin="round"/>
<path d="M 177.92 713.19 L 165.72 682.62 L 203.99 701.73 L 177.92 713.19 Z" fill="#2e4783" stroke="#2e4783" stroke-width="1.2" stroke-linejoin="round"/>
<path d="M 158.36 650.57 L 203.99 635.35 L 203.99 657.48 L 158.36 650.57 Z" fill="#34528b" stroke="#34528b" stroke-width="1.2" stroke-linejoin="round"/>
<path d="M 165.72 682.62 L 158.36 650.57 L 203.99 657.48 L 165.72 682.62 Z" fill="#314e87" stroke="#314e87" stroke-width="1.2" stroke-linejoin="round"/>
<path d="M 158.36 650.57 L 203.99 613.23 L 203.99 635.35 L 158.36 650.57 Z" fill="#35558d" stroke="#35558d" stroke-width="1.2" stroke-linejoin="round"/>
<path d="M 165.72 682.62 L 128.11 693.23 L 158.36 650.57 L 165.72 682.62 Z" fill="#2f4a83" stroke="#2f4a83" stroke-width="1.2" stroke-linejoin="round"/>
<path d="M 80.95 688.91 L 128.11 693.23 L 88.99 719.47 L 80.95 688.91 Z" fill="#2a417b" stroke="#2a417b" stroke-width="1.2" stroke-linejoin="round"/>
<path d="M 88.99 719.47 L 104.60 735.09 L 82.47 735.09 L 88.99 719.47 Z" fill="#263a75" stroke="#263a75" stroke-width="1.2" stroke-linejoin="round"/>
<path d="M 88.99 719.47 L 131.61 721.73 L 104.60 735.09 L 88.99 719.47 Z" fill="#273c78" stroke="#273c78" stroke-width="1.2" stroke-linejoin="round"/>
<path d="M 131.61 721.73 L 88.99 719.47 L 128.11 693.23 L 131.61 721.73 Z" fill="#29407b" stroke="#29407b" stroke-width="1.2" stroke-linejoin="round"/>
<path d="M 88.99 719.47 L 82.47 735.09 L 60.35 735.09 L 88.99 719.47 Z" fill="#253974" stroke="#253974" stroke-width="1.2" stroke-linejoin="round"/>
<path d="M 45.47 715.36 L 80.95 688.91 L 88.99 719.47 L 45.47 715.36 Z" fill="#283d77" stroke="#283d77" stroke-width="1.2" stroke-linejoin="round"/>
<path d="M 45.47 715.36 L 88.99 719.47 L 60.35 735.09 L 45.47 715.36 Z" fill="#253973" stroke="#253973" stroke-width="1.2" stroke-linejoin="round"/>
<path d="M 82.18 642.61 L 113.67 649.98 L 80.95 688.91 L 82.18 642.61 Z" fill="#2f4981" stroke="#2f4981" stroke-width="1.2" stroke-linejoin="round"/>
<path d="M 80.95 688.91 L 113.67 649.98 L 128.11 693.23 L 80.95 688.91 Z" fill="#2e477f" stroke="#2e477f" stroke-width="1.2" stroke-linejoin="round"/>
<path d="M 128.11 693.23 L 113.67 649.98 L 158.36 650.57 L 128.11 693.23 Z" fill="#304b84" stroke="#304b84" stroke-width="1.2" stroke-linejoin="round"/>
<path d="M 82.18 642.61 L 115.85 613.03 L 113.67 649.98 L 82.18 642.61 Z" fill="#334f86" stroke="#334f86" stroke-width="1.2" stroke-linejoin="round"/>
<path d="M 115.85 613.03 L 158.36 650.57 L 113.67 649.98 L 115.85 613.03 Z" fill="#335087" stroke="#335087" stroke-width="1.2" stroke-linejoin="round"/>
<path d="M 336.58 493.74 L 333.59 523.91 L 286.51 486.68 L 336.58 493.74 Z" fill="#4272a5" stroke="#4272a5" stroke-width="1.2" stroke-linejoin="round"/>
<path d="M 372.56 562.71 L 333.72 563.95 L 333.59 523.91 L 372.56 562.71 Z" fill="#3e6ba1" stroke="#3e6ba1" stroke-width="1.2" stroke-linejoin="round"/>
<path d="M 290.85 453.52 L 256.56 455.17 L 246.92 415.84 L 290.85 453.52 Z" fill="#487baa" stroke="#487baa" stroke-width="1.2" stroke-linejoin="round"/>
<path d="M 198.69 450.62 L 215.73 470.09 L 203.99 470.09 L 203.99 480.47 L 198.69 450.62 Z" fill="#4775a5" stroke="#4775a5" stroke-width="1.2" stroke-linejoin="round"/>
<path d="M 116.84 510.48 L 163.76 535.14 L 115.23 561.02 L 116.84 510.48 Z" fill="#406698" stroke="#406698" stroke-width="1.2" stroke-linejoin="round"/>
<path d="M 479.53 735.09 L 485.65 720.10 L 501.65 735.09 L 479.53 735.09 Z" fill="#395b9e" stroke="#395b9e" stroke-width="1.2" stroke-linejoin="round"/>
<path d="M 459.74 719.06 L 479.53 735.09 L 457.40 735.09 L 459.74 719.06 Z" fill="#38599c" stroke="#38599c" stroke-width="1.2" stroke-linejoin="round"/>
<path d="M 435.28 735.09 L 459.74 719.06 L 457.40 735.09 L 435.28 735.09 Z" fill="#37589a" stroke="#37589a" stroke-width="1.2" stroke-linejoin="round"/>
<path d="M 380.35 715.71 L 416.97 719.61 L 391.02 735.09 L 380.35 715.71 Z" fill="#355495" stroke="#355495" stroke-width="1.2" stroke-linejoin="round"/>
<path d="M 416.97 719.61 L 459.74 719.06 L 435.28 735.09 L 416.97 719.61 Z" fill="#375799" stroke="#375799" stroke-width="1.2" stroke-linejoin="round"/>
<path d="M 492.38 637.03 L 536.32 653.31 L 528.42 678.12 L 492.38 637.03 Z" fill="#3c66a5" stroke="#3c66a5" stroke-width="1.2" stroke-linejoin="round"/>
<path d="M 536.32 653.31 L 492.38 637.03 L 525.18 634.19 L 534.90 650.87 L 536.32 653.31 Z" fill="#3c67a6" stroke="#3c67a6" stroke-width="1.2" stroke-linejoin="round"/>
<path d="M 485.65 720.10 L 528.42 678.12 L 542.03 708.41 L 485.65 720.10 Z" fill="#3b60a3" stroke="#3b60a3" stroke-width="1.2" stroke-linejoin="round"/>
<path d="M 542.03 708.41 L 523.78 735.09 L 501.65 735.09 L 542.03 708.41 Z" fill="#3b5ea2" stroke="#3b5ea2" stroke-width="1.2" stroke-linejoin="round"/>
<path d="M 485.65 720.10 L 542.03 708.41 L 501.65 735.09 L 485.65 720.10 Z" fill="#3b5da1" stroke="#3b5da1" stroke-width="1.2" stroke-linejoin="round"/>
<path d="M 441.35 313.54 L 397.86 323.15 L 393.27 309.00 L 441.35 313.54 Z" fill="#4a8fb7" stroke="#4a8fb7" stroke-width="1.2" stroke-linejoin="round"/>
<path d="M 406.01 362.22 L 397.86 323.15 L 441.35 313.54 L 406.01 362.22 Z" fill="#498cb6" stroke="#498cb6" stroke-width="1.2" stroke-linejoin="round"/>
<path d="M 504.26 215.03 L 529.31 216.41 L 520.45 236.50 L 504.26 215.03 Z" fill="#4498ba" stroke="#4498ba" stroke-width="1.2" stroke-linejoin="round"/>
<path d="M 437.51 274.41 L 445.20 248.54 L 480.09 290.66 L 437.51 274.41 Z" fill="#4894ba" stroke="#4894ba" stroke-width="1.2" stroke-linejoin="round"/>
<path d="M 487.24 325.82 L 480.09 290.66 L 540.13 284.99 L 487.24 325.82 Z" fill="#448fb7" stroke="#448fb7" stroke-width="1.2" stroke-linejoin="round"/>
<path d="M 520.45 236.50 L 540.13 284.99 L 480.09 290.66 L 520.45 236.50 Z" fill="#4492b8" stroke="#4492b8" stroke-width="1.2" stroke-linejoin="round"/>
<path d="M 437.51 274.41 L 480.09 290.66 L 441.35 313.54 L 437.51 274.41 Z" fill="#4891b8" stroke="#4891b8" stroke-width="1.2" stroke-linejoin="round"/>
<path d="M 487.24 325.82 L 441.35 313.54 L 480.09 290.66 L 487.24 325.82 Z" fill="#468eb7" stroke="#468eb7" stroke-width="1.2" stroke-linejoin="round"/>
<path d="M 477.55 433.47 L 445.19 409.57 L 486.24 400.55 L 477.55 433.47 Z" fill="#4381b0" stroke="#4381b0" stroke-width="1.2" stroke-linejoin="round"/>
<path d="M 406.01 362.22 L 441.35 313.54 L 457.96 367.30 L 406.01 362.22 Z" fill="#478ab4" stroke="#478ab4" stroke-width="1.2" stroke-linejoin="round"/>
<path d="M 487.24 325.82 L 496.68 363.51 L 457.96 367.30 L 487.24 325.82 Z" fill="#4489b4" stroke="#4489b4" stroke-width="1.2" stroke-linejoin="round"/>
<path d="M 487.24 325.82 L 457.96 367.30 L 441.35 313.54 L 487.24 325.82 Z" fill="#468bb5" stroke="#468bb5" stroke-width="1.2" stroke-linejoin="round"/>
<path d="M 445.19 409.57 L 411.64 391.90 L 457.96 367.30 L 445.19 409.57 Z" fill="#4584b1" stroke="#4584b1" stroke-width="1.2" stroke-linejoin="round"/>
<path d="M 406.01 362.22 L 457.96 367.30 L 411.64 391.90 L 406.01 362.22 Z" fill="#4686b2" stroke="#4686b2" stroke-width="1.2" stroke-linejoin="round"/>
<path d="M 445.19 409.57 L 457.96 367.30 L 486.24 400.55 L 445.19 409.57 Z" fill="#4484b1" stroke="#4484b1" stroke-width="1.2" stroke-linejoin="round"/>
<path d="M 496.68 363.51 L 486.24 400.55 L 457.96 367.30 L 496.68 363.51 Z" fill="#4386b3" stroke="#4386b3" stroke-width="1.2" stroke-linejoin="round"/>
<path d="M 445.19 409.57 L 454.22 438.14 L 412.26 437.21 L 445.19 409.57 Z" fill="#437faf" stroke="#437faf" stroke-width="1.2" stroke-linejoin="round"/>
<path d="M 477.55 433.47 L 454.22 438.14 L 445.19 409.57 L 477.55 433.47 Z" fill="#427faf" stroke="#427faf" stroke-width="1.2" stroke-linejoin="round"/>
<path d="M 454.22 438.14 L 477.55 433.47 L 457.87 443.56 L 457.87 443.56 L 454.22 438.14 Z" fill="#427eae" stroke="#427eae" stroke-width="1.2" stroke-linejoin="round"/>
<path d="M 372.56 562.71 L 374.37 514.89 L 404.80 516.25 L 372.56 562.71 Z" fill="#3f6fa5" stroke="#3f6fa5" stroke-width="1.2" stroke-linejoin="round"/>
<path d="M 404.80 516.25 L 374.37 514.89 L 382.85 494.54 L 404.80 516.25 Z" fill="#4173a7" stroke="#4173a7" stroke-width="1.2" stroke-linejoin="round"/>
<path d="M 372.56 562.71 L 333.59 523.91 L 374.37 514.89 L 372.56 562.71 Z" fill="#3f6ea3" stroke="#3f6ea3" stroke-width="1.2" stroke-linejoin="round"/>
<path d="M 336.58 493.74 L 382.85 494.54 L 374.37 514.89 L 336.58 493.74 Z" fill="#4173a6" stroke="#4173a6" stroke-width="1.2" stroke-linejoin="round"/>
<path d="M 336.58 493.74 L 374.37 514.89 L 333.59 523.91 L 336.58 493.74 Z" fill="#4171a5" stroke="#4171a5" stroke-width="1.2" stroke-linejoin="round"/>
<path d="M 498.36 595.84 L 442.74 606.81 L 491.75 576.84 L 491.75 576.84 L 498.36 595.84 Z" fill="#3d6ba5" stroke="#3d6ba5" stroke-width="1.2" stroke-linejoin="round"/>
<path d="M 442.74 606.81 L 446.65 565.34 L 491.75 576.84 L 491.75 576.84 L 442.74 606.81 Z" fill="#3d6ba5" stroke="#3d6ba5" stroke-width="1.2" stroke-linejoin="round"/>
<path d="M 498.36 595.84 L 492.38 637.03 L 442.74 606.81 L 498.36 595.84 Z" fill="#3c68a4" stroke="#3c68a4" stroke-width="1.2" stroke-linejoin="round"/>
<path d="M 448.83 638.50 L 442.74 606.81 L 492.38 637.03 L 448.83 638.50 Z" fill="#3b66a2" stroke="#3b66a2" stroke-width="1.2" stroke-linejoin="round"/>
<path d="M 423.89 574.78 L 446.65 565.34 L 442.74 606.81 L 423.89 574.78 Z" fill="#3d6aa4" stroke="#3d6aa4" stroke-width="1.2" stroke-linejoin="round"/>
<path d="M 448.83 638.50 L 422.29 634.40 L 442.74 606.81 L 448.83 638.50 Z" fill="#3b64a0" stroke="#3b64a0" stroke-width="1.2" stroke-linejoin="round"/>
<path d="M 372.56 562.71 L 423.89 574.78 L 400.47 601.09 L 372.56 562.71 Z" fill="#3d69a1" stroke="#3d69a1" stroke-width="1.2" stroke-linejoin="round"/>
<path d="M 360.55 640.83 L 400.47 601.09 L 422.29 634.40 L 360.55 640.83 Z" fill="#3a629d" stroke="#3a629d" stroke-width="1.2" stroke-linejoin="round"/>
<path d="M 423.89 574.78 L 442.74 606.81 L 400.47 601.09 L 423.89 574.78 Z" fill="#3c68a2" stroke="#3c68a2" stroke-width="1.2" stroke-linejoin="round"/>
<path d="M 422.29 634.40 L 400.47 601.09 L 442.74 606.81 L 422.29 634.40 Z" fill="#3b65a0" stroke="#3b65a0" stroke-width="1.2" stroke-linejoin="round"/>
<path d="M 537.62 124.17 L 523.28 118.62 L 523.41 107.23 L 537.62 124.17 Z" fill="#45a3bf" stroke="#45a3bf" stroke-width="1.2" stroke-linejoin="round"/>
<path d="M 437.51 274.41 L 441.35 313.54 L 401.08 287.86 L 437.51 274.41 Z" fill="#4a92b9" stroke="#4a92b9" stroke-width="1.2" stroke-linejoin="round"/>
<path d="M 401.08 287.86 L 441.35 313.54 L 393.27 309.00 L 396.53 302.33 L 399.48 294.18 L 401.08 287.86 L 401.08 287.86 Z" fill="#4a90b8" stroke="#4a90b8" stroke-width="1.2" stroke-linejoin="round"/>
<path d="M 437.51 274.41 L 408.02 271.77 L 422.51 255.19 L 437.51 274.41 Z" fill="#4b95bb" stroke="#4b95bb" stroke-width="1.2" stroke-linejoin="round"/>
<path d="M 403.91 265.47 L 422.51 255.19 L 408.02 271.77 L 403.91 265.47 L 403.91 265.47 Z" fill="#4c96bb" stroke="#4c96bb" stroke-width="1.2" stroke-linejoin="round"/>
<path d="M 437.51 274.41 L 401.08 287.86 L 408.02 271.77 L 437.51 274.41 Z" fill="#4b94ba" stroke="#4b94ba" stroke-width="1.2" stroke-linejoin="round"/>
<path d="M 408.02 271.77 L 401.08 287.86 L 401.08 287.86 L 401.69 285.45 L 403.16 276.12 L 403.90 266.21 L 403.91 265.47 L 408.02 271.77 Z" fill="#4c95ba" stroke="#4c95ba" stroke-width="1.2" stroke-linejoin="round"/>
<path d="M 90.03 42.99 L 97.75 94.10 L 55.17 77.30 L 90.03 42.99 Z" fill="#83cae4" stroke="#83cae4" stroke-width="1.2" stroke-linejoin="round"/>
<path d="M 55.17 77.30 L 57.19 121.68 L 33.06 98.62 L 55.17 77.30 Z" fill="#83c6e2" stroke="#83c6e2" stroke-width="1.2" stroke-linejoin="round"/>
<path d="M 97.75 94.10 L 57.19 121.68 L 55.17 77.30 L 97.75 94.10 Z" fill="#80c5e0" stroke="#80c5e0" stroke-width="1.2" stroke-linejoin="round"/>
<path d="M 57.19 121.68 L 33.06 142.87 L 33.06 120.74 L 57.19 121.68 Z" fill="#7fc0dd" stroke="#7fc0dd" stroke-width="1.2" stroke-linejoin="round"/>
<path d="M 100.25 33.06 L 90.03 42.99 L 78.12 33.06 L 100.25 33.06 Z" fill="#86d1e9" stroke="#86d1e9" stroke-width="1.2" stroke-linejoin="round"/>
<path d="M 90.03 42.99 L 55.17 77.30 L 78.12 33.06 L 90.03 42.99 Z" fill="#86cfe8" stroke="#86cfe8" stroke-width="1.2" stroke-linejoin="round"/>
<path d="M 55.17 77.30 L 56.00 33.06 L 78.12 33.06 L 55.17 77.30 Z" fill="#88d0ea" stroke="#88d0ea" stroke-width="1.2" stroke-linejoin="round"/>
<path d="M 114.14 47.40 L 90.03 42.99 L 100.25 33.06 L 114.14 47.40 Z" fill="#84cfe8" stroke="#84cfe8" stroke-width="1.2" stroke-linejoin="round"/>
<path d="M 90.03 42.99 L 114.14 47.40 L 97.75 94.10 L 90.03 42.99 Z" fill="#81cae4" stroke="#81cae4" stroke-width="1.2" stroke-linejoin="round"/>
<path d="M 172.77 56.43 L 166.63 33.06 L 188.75 33.06 L 172.77 56.43 Z" fill="#79c9e1" stroke="#79c9e1" stroke-width="1.2" stroke-linejoin="round"/>
<path d="M 133.29 113.50 L 176.16 92.45 L 161.74 138.27 L 133.29 113.50 Z" fill="#73bbd8" stroke="#73bbd8" stroke-width="1.2" stroke-linejoin="round"/>
<path d="M 133.29 113.50 L 161.74 138.27 L 116.96 159.87 L 133.29 113.50 Z" fill="#73b8d6" stroke="#73b8d6" stroke-width="1.2" stroke-linejoin="round"/>
<path d="M 250.77 135.74 L 241.31 78.59 L 282.53 73.41 L 250.77 135.74 Z" fill="#68b8d3" stroke="#68b8d3" stroke-width="1.2" stroke-linejoin="round"/>
<path d="M 250.77 135.74 L 282.53 73.41 L 293.86 138.36 L 250.77 135.74 Z" fill="#64b3d0" stroke="#64b3d0" stroke-width="1.2" stroke-linejoin="round"/>
<path d="M 38.11 319.33 L 33.06 319.87 L 33.06 297.74 L 38.11 319.33 Z" fill="#6496bc" stroke="#6496bc" stroke-width="1.2" stroke-linejoin="round"/>
<path d="M 38.11 319.33 L 33.06 342.00 L 33.06 319.87 L 38.11 319.33 Z" fill="#6192b9" stroke="#6192b9" stroke-width="1.2" stroke-linejoin="round"/>
<path d="M 45.30 237.66 L 33.06 253.49 L 33.06 231.37 L 45.30 237.66 Z" fill="#6ea6c9" stroke="#6ea6c9" stroke-width="1.2" stroke-linejoin="round"/>
<path d="M 80.35 203.69 L 45.30 237.66 L 38.74 213.26 L 80.35 203.69 Z" fill="#70aacc" stroke="#70aacc" stroke-width="1.2" stroke-linejoin="round"/>
<path d="M 38.74 213.26 L 33.06 209.24 L 33.06 187.12 L 38.74 213.26 Z" fill="#74afd0" stroke="#74afd0" stroke-width="1.2" stroke-linejoin="round"/>
<path d="M 80.35 203.69 L 38.74 213.26 L 33.06 187.12 L 80.35 203.69 Z" fill="#73aecf" stroke="#73aecf" stroke-width="1.2" stroke-linejoin="round"/>
<path d="M 38.74 213.26 L 33.06 231.37 L 33.06 209.24 L 38.74 213.26 Z" fill="#72abcd" stroke="#72abcd" stroke-width="1.2" stroke-linejoin="round"/>
<path d="M 38.74 213.26 L 45.30 237.66 L 33.06 231.37 L 38.74 213.26 Z" fill="#70a9cb" stroke="#70a9cb" stroke-width="1.2" stroke-linejoin="round"/>
<path d="M 80.35 203.69 L 81.28 240.73 L 45.30 237.66 L 80.35 203.69 Z" fill="#6ea8ca" stroke="#6ea8ca" stroke-width="1.2" stroke-linejoin="round"/>
<path d="M 81.28 240.73 L 33.06 275.62 L 33.06 253.49 L 81.28 240.73 Z" fill="#6ba2c5" stroke="#6ba2c5" stroke-width="1.2" stroke-linejoin="round"/>
<path d="M 45.30 237.66 L 81.28 240.73 L 33.06 253.49 L 45.30 237.66 Z" fill="#6ca5c8" stroke="#6ca5c8" stroke-width="1.2" stroke-linejoin="round"/>
<path d="M 80.35 203.69 L 126.90 213.96 L 81.28 240.73 L 80.35 203.69 Z" fill="#6ca9ca" stroke="#6ca9ca" stroke-width="1.2" stroke-linejoin="round"/>
<path d="M 131.68 364.79 L 154.29 336.68 L 178.70 366.01 L 131.68 364.79 Z" fill="#568bb4" stroke="#568bb4" stroke-width="1.2" stroke-linejoin="round"/>
<path d="M 85.15 415.16 L 33.06 408.37 L 33.06 386.25 L 85.15 415.16 Z" fill="#5581ab" stroke="#5581ab" stroke-width="1.2" stroke-linejoin="round"/>
<path d="M 37.44 366.57 L 84.31 368.01 L 33.06 386.25 L 37.44 366.57 Z" fill="#5987b1" stroke="#5987b1" stroke-width="1.2" stroke-linejoin="round"/>
<path d="M 84.31 368.01 L 37.44 366.57 L 33.06 342.00 L 84.31 368.01 Z" fill="#5b8bb3" stroke="#5b8bb3" stroke-width="1.2" stroke-linejoin="round"/>
<path d="M 38.11 319.33 L 90.48 317.87 L 33.06 342.00 L 38.11 319.33 Z" fill="#6092b9" stroke="#6092b9" stroke-width="1.2" stroke-linejoin="round"/>
<path d="M 90.48 317.87 L 84.31 368.01 L 33.06 342.00 L 90.48 317.87 Z" fill="#5d8eb6" stroke="#5d8eb6" stroke-width="1.2" stroke-linejoin="round"/>
<path d="M 42.43 294.33 L 90.48 317.87 L 38.11 319.33 L 42.43 294.33 Z" fill="#6296bc" stroke="#6296bc" stroke-width="1.2" stroke-linejoin="round"/>
<path d="M 131.68 364.79 L 84.31 368.01 L 90.48 317.87 L 131.68 364.79 Z" fill="#5a8cb5" stroke="#5a8cb5" stroke-width="1.2" stroke-linejoin="round"/>
<path d="M 131.68 364.79 L 178.70 366.01 L 159.92 399.74 L 131.68 364.79 Z" fill="#5386b1" stroke="#5386b1" stroke-width="1.2" stroke-linejoin="round"/>
<path d="M 131.68 364.79 L 159.92 399.74 L 137.20 394.63 L 131.68 364.79 Z" fill="#5385af" stroke="#5385af" stroke-width="1.2" stroke-linejoin="round"/>
<path d="M 116.84 510.48 L 87.14 528.74 L 78.64 484.42 L 116.84 510.48 Z" fill="#446a9a" stroke="#446a9a" stroke-width="1.2" stroke-linejoin="round"/>
<path d="M 116.84 510.48 L 115.23 561.02 L 87.14 528.74 L 116.84 510.48 Z" fill="#416597" stroke="#416597" stroke-width="1.2" stroke-linejoin="round"/>
<path d="M 78.64 484.42 L 87.14 528.74 L 48.18 489.23 L 78.64 484.42 Z" fill="#466b9b" stroke="#466b9b" stroke-width="1.2" stroke-linejoin="round"/>
<path d="M 76.64 451.69 L 48.18 489.23 L 33.06 474.75 L 76.64 451.69 Z" fill="#4a719f" stroke="#4a719f" stroke-width="1.2" stroke-linejoin="round"/>
<path d="M 78.64 484.42 L 48.18 489.23 L 76.64 451.69 L 78.64 484.42 Z" fill="#4a719f" stroke="#4a719f" stroke-width="1.2" stroke-linejoin="round"/>
<path d="M 504.26 215.03 L 478.61 159.44 L 523.30 156.22 L 504.26 215.03 Z" fill="#479ebe" stroke="#479ebe" stroke-width="1.2" stroke-linejoin="round"/>
<path d="M 504.26 215.03 L 523.30 156.22 L 529.31 216.41 L 504.26 215.03 Z" fill="#459bbc" stroke="#459bbc" stroke-width="1.2" stroke-linejoin="round"/>
<path d="M 537.62 124.17 L 523.30 156.22 L 523.28 118.62 L 537.62 124.17 Z" fill="#45a1be" stroke="#45a1be" stroke-width="1.2" stroke-linejoin="round"/>
<path d="M 489.77 78.65 L 507.46 91.92 L 479.51 95.54 L 489.77 78.65 Z" fill="#4aa9c3" stroke="#4aa9c3" stroke-width="1.2" stroke-linejoin="round"/>
<path d="M 33.76 610.11 L 33.06 629.63 L 33.06 607.50 L 33.76 610.11 Z" fill="#355084" stroke="#355084" stroke-width="1.2" stroke-linejoin="round"/>
<path d="M 33.76 610.11 L 54.90 630.94 L 33.06 629.63 L 33.76 610.11 Z" fill="#334e83" stroke="#334e83" stroke-width="1.2" stroke-linejoin="round"/>
<path d="M 271.82 349.15 L 258.08 365.73 L 249.21 349.15 L 271.82 349.15 Z" fill="#508ab4" stroke="#508ab4" stroke-width="1.2" stroke-linejoin="round"/>
<path d="M 249.21 349.15 L 258.08 365.73 L 226.60 349.15 L 249.21 349.15 Z" fill="#518ab4" stroke="#518ab4" stroke-width="1.2" stroke-linejoin="round"/>
<path d="M 178.70 366.01 L 215.85 391.19 L 159.92 399.74 L 178.70 366.01 Z" fill="#5185b0" stroke="#5185b0" stroke-width="1.2" stroke-linejoin="round"/>
<path d="M 258.08 365.73 L 246.92 415.84 L 215.85 391.19 L 258.08 365.73 Z" fill="#4e84af" stroke="#4e84af" stroke-width="1.2" stroke-linejoin="round"/>
<path d="M 246.92 415.84 L 198.69 450.62 L 215.85 391.19 L 246.92 415.84 Z" fill="#4c7eab" stroke="#4c7eab" stroke-width="1.2" stroke-linejoin="round"/>
<path d="M 170.29 444.11 L 215.85 391.19 L 198.69 450.62 L 170.29 444.11 Z" fill="#4c7caa" stroke="#4c7caa" stroke-width="1.2" stroke-linejoin="round"/>
<path d="M 170.29 444.11 L 159.92 399.74 L 215.85 391.19 L 170.29 444.11 Z" fill="#4e80ac" stroke="#4e80ac" stroke-width="1.2" stroke-linejoin="round"/>
<path d="M 177.92 713.19 L 203.99 723.85 L 193.10 735.09 L 177.92 713.19 Z" fill="#2b4380" stroke="#2b4380" stroke-width="1.2" stroke-linejoin="round"/>
<path d="M 203.99 723.85 L 177.92 713.19 L 203.99 701.73 L 203.99 723.85 Z" fill="#2d4682" stroke="#2d4682" stroke-width="1.2" stroke-linejoin="round"/>
<path d="M 203.99 723.85 L 203.99 735.09 L 193.10 735.09 L 203.99 723.85 Z" fill="#2e4887" stroke="#2e4887" stroke-width="1.2" stroke-linejoin="round"/>
<path d="M 305.64 580.04 L 333.72 563.95 L 316.25 592.10 L 305.64 580.04 L 305.64 580.04 Z" fill="#3c659c" stroke="#3c659c" stroke-width="1.2" stroke-linejoin="round"/>
<path d="M 294.97 560.66 L 333.72 563.95 L 305.64 580.04 L 299.01 568.00 L 294.97 560.66 Z" fill="#3d679d" stroke="#3d679d" stroke-width="1.2" stroke-linejoin="round"/>
<path d="M 333.72 563.95 L 294.97 560.66 L 333.59 523.91 L 333.72 563.95 Z" fill="#3e6aa0" stroke="#3e6aa0" stroke-width="1.2" stroke-linejoin="round"/>
<path d="M 286.51 486.68 L 333.59 523.91 L 285.18 535.21 L 286.51 486.68 Z" fill="#416fa2" stroke="#416fa2" stroke-width="1.2" stroke-linejoin="round"/>
<path d="M 285.18 535.21 L 294.97 560.66 L 293.10 557.27 L 284.29 541.28 L 285.18 535.21 Z" fill="#3f6a9e" stroke="#3f6a9e" stroke-width="1.2" stroke-linejoin="round"/>
<path d="M 333.59 523.91 L 294.97 560.66 L 285.18 535.21 L 333.59 523.91 Z" fill="#3f6ba0" stroke="#3f6ba0" stroke-width="1.2" stroke-linejoin="round"/>
<path d="M 290.85 453.52 L 286.51 486.68 L 260.66 483.11 L 290.85 453.52 Z" fill="#4575a6" stroke="#4575a6" stroke-width="1.2" stroke-linejoin="round"/>
<path d="M 290.85 453.52 L 260.66 483.11 L 256.56 455.17 L 290.85 453.52 Z" fill="#4677a7" stroke="#4677a7" stroke-width="1.2" stroke-linejoin="round"/>
<path d="M 286.51 486.68 L 262.95 502.52 L 260.66 483.11 L 286.51 486.68 Z" fill="#4472a4" stroke="#4472a4" stroke-width="1.2" stroke-linejoin="round"/>
<path d="M 158.12 476.88 L 203.99 480.47 L 203.99 502.60 L 158.12 476.88 Z" fill="#4671a1" stroke="#4671a1" stroke-width="1.2" stroke-linejoin="round"/>
<path d="M 163.76 535.14 L 203.99 502.60 L 203.99 524.73 L 163.76 535.14 Z" fill="#426b9d" stroke="#426b9d" stroke-width="1.2" stroke-linejoin="round"/>
<path d="M 163.76 535.14 L 158.12 476.88 L 203.99 502.60 L 163.76 535.14 Z" fill="#446d9e" stroke="#446d9e" stroke-width="1.2" stroke-linejoin="round"/>
<path d="M 115.85 613.03 L 78.40 607.80 L 115.23 561.02 L 115.85 613.03 Z" fill="#39588d" stroke="#39588d" stroke-width="1.2" stroke-linejoin="round"/>
<path d="M 78.40 607.80 L 33.76 610.11 L 33.06 607.50 L 78.40 607.80 Z" fill="#365286" stroke="#365286" stroke-width="1.2" stroke-linejoin="round"/>
<path d="M 54.90 630.94 L 33.76 610.11 L 78.40 607.80 L 54.90 630.94 Z" fill="#355185" stroke="#355185" stroke-width="1.2" stroke-linejoin="round"/>
<path d="M 82.18 642.61 L 54.90 630.94 L 78.40 607.80 L 82.18 642.61 Z" fill="#344f85" stroke="#344f85" stroke-width="1.2" stroke-linejoin="round"/>
<path d="M 82.18 642.61 L 78.40 607.80 L 115.85 613.03 L 82.18 642.61 Z" fill="#355287" stroke="#355287" stroke-width="1.2" stroke-linejoin="round"/>
<path d="M 115.85 613.03 L 115.23 561.02 L 154.38 591.40 L 115.85 613.03 Z" fill="#3a5a8f" stroke="#3a5a8f" stroke-width="1.2" stroke-linejoin="round"/>
<path d="M 115.85 613.03 L 154.38 591.40 L 158.36 650.57 L 115.85 613.03 Z" fill="#36558b" stroke="#36558b" stroke-width="1.2" stroke-linejoin="round"/>
<path d="M 154.38 591.40 L 201.68 604.31 L 203.99 613.23 L 154.38 591.40 Z" fill="#395a91" stroke="#395a91" stroke-width="1.2" stroke-linejoin="round"/>
<path d="M 158.36 650.57 L 154.38 591.40 L 203.99 613.23 L 158.36 650.57 Z" fill="#37578e" stroke="#37578e" stroke-width="1.2" stroke-linejoin="round"/>
<path d="M 416.97 719.61 L 413.15 735.09 L 391.02 735.09 L 416.97 719.61 Z" fill="#355496" stroke="#355496" stroke-width="1.2" stroke-linejoin="round"/>
<path d="M 416.97 719.61 L 435.28 735.09 L 413.15 735.09 L 416.97 719.61 Z" fill="#365597" stroke="#365597" stroke-width="1.2" stroke-linejoin="round"/>
<path d="M 413.65 687.67 L 380.35 715.71 L 374.59 705.25 L 369.68 696.33 L 413.65 687.67 Z" fill="#365796" stroke="#365796" stroke-width="1.2" stroke-linejoin="round"/>
<path d="M 380.35 715.71 L 413.65 687.67 L 416.97 719.61 L 380.35 715.71 Z" fill="#365797" stroke="#365797" stroke-width="1.2" stroke-linejoin="round"/>
<path d="M 358.94 674.25 L 413.65 687.67 L 369.68 696.33 L 369.68 696.33 L 358.94 674.25 Z" fill="#365897" stroke="#365897" stroke-width="1.2" stroke-linejoin="round"/>
<path d="M 360.55 640.83 L 413.65 687.67 L 358.94 674.25 L 360.55 640.83 Z" fill="#375b98" stroke="#375b98" stroke-width="1.2" stroke-linejoin="round"/>
<path d="M 360.55 640.83 L 422.29 634.40 L 413.65 687.67 L 360.55 640.83 Z" fill="#395e9b" stroke="#395e9b" stroke-width="1.2" stroke-linejoin="round"/>
<path d="M 459.74 719.06 L 416.97 719.61 L 413.65 687.67 L 459.74 719.06 Z" fill="#37599a" stroke="#37599a" stroke-width="1.2" stroke-linejoin="round"/>
<path d="M 528.42 678.12 L 536.32 653.31 L 547.46 672.42 L 528.42 678.12 Z" fill="#3d66a6" stroke="#3d66a6" stroke-width="1.2" stroke-linejoin="round"/>
<path d="M 542.03 708.41 L 545.90 735.09 L 523.78 735.09 L 542.03 708.41 Z" fill="#3c5fa3" stroke="#3c5fa3" stroke-width="1.2" stroke-linejoin="round"/>
<path d="M 569.75 710.65 L 568.03 735.09 L 545.90 735.09 L 569.75 710.65 Z" fill="#3d61a6" stroke="#3d61a6" stroke-width="1.2" stroke-linejoin="round"/>
<path d="M 542.03 708.41 L 569.75 710.65 L 545.90 735.09 L 542.03 708.41 Z" fill="#3d61a5" stroke="#3d61a5" stroke-width="1.2" stroke-linejoin="round"/>
<path d="M 379.62 326.90 L 406.01 362.22 L 371.13 354.19 L 379.62 326.90 L 379.62 326.90 Z" fill="#4a8ab5" stroke="#4a8ab5" stroke-width="1.2" stroke-linejoin="round"/>
<path d="M 397.86 323.15 L 406.01 362.22 L 379.62 326.90 L 379.62 326.90 L 397.86 323.15 Z" fill="#4a8cb5" stroke="#4a8cb5" stroke-width="1.2" stroke-linejoin="round"/>
<path d="M 371.13 354.19 L 360.92 339.43 L 360.92 339.43 L 363.46 338.29 L 370.79 333.99 L 377.38 328.96 L 379.62 326.90 L 371.13 354.19 Z" fill="#4b8cb5" stroke="#4b8cb5" stroke-width="1.2" stroke-linejoin="round"/>
<path d="M 397.86 323.15 L 379.62 326.90 L 380.40 326.18 L 383.26 323.22 L 388.42 316.84 L 392.84 309.88 L 393.27 309.00 L 397.86 323.15 Z" fill="#4b8eb7" stroke="#4b8eb7" stroke-width="1.2" stroke-linejoin="round"/>
<path d="M 487.24 325.82 L 539.03 335.31 L 496.68 363.51 L 487.24 325.82 Z" fill="#438ab5" stroke="#438ab5" stroke-width="1.2" stroke-linejoin="round"/>
<path d="M 487.24 325.82 L 540.13 284.99 L 539.03 335.31 L 487.24 325.82 Z" fill="#428db6" stroke="#428db6" stroke-width="1.2" stroke-linejoin="round"/>
<path d="M 520.45 236.50 L 572.63 247.46 L 540.13 284.99 L 520.45 236.50 Z" fill="#4193b8" stroke="#4193b8" stroke-width="1.2" stroke-linejoin="round"/>
<path d="M 520.45 236.50 L 529.31 216.41 L 572.63 247.46 L 520.45 236.50 Z" fill="#4296b9" stroke="#4296b9" stroke-width="1.2" stroke-linejoin="round"/>
<path d="M 529.31 216.41 L 567.27 183.23 L 567.27 183.23 L 572.97 204.60 L 572.97 204.60 L 529.31 216.41 Z" fill="#4198ba" stroke="#4198ba" stroke-width="1.2" stroke-linejoin="round"/>
<path d="M 523.30 156.22 L 559.50 162.53 L 567.27 183.23 L 567.27 183.23 L 523.30 156.22 Z" fill="#429cbc" stroke="#429cbc" stroke-width="1.2" stroke-linejoin="round"/>
<path d="M 567.27 183.23 L 529.31 216.41 L 523.30 156.22 L 567.27 183.23 L 567.27 183.23 Z" fill="#439bbb" stroke="#439bbb" stroke-width="1.2" stroke-linejoin="round"/>
<path d="M 445.20 248.54 L 481.82 240.77 L 480.09 290.66 L 445.20 248.54 Z" fill="#4895ba" stroke="#4895ba" stroke-width="1.2" stroke-linejoin="round"/>
<path d="M 520.45 236.50 L 480.09 290.66 L 481.82 240.77 L 520.45 236.50 Z" fill="#4695b9" stroke="#4695b9" stroke-width="1.2" stroke-linejoin="round"/>
<path d="M 504.26 215.03 L 520.45 236.50 L 481.82 240.77 L 504.26 215.03 Z" fill="#4597bb" stroke="#4597bb" stroke-width="1.2" stroke-linejoin="round"/>
<path d="M 412.26 437.21 L 454.22 438.14 L 437.40 451.90 L 412.26 437.21 Z" fill="#437dae" stroke="#437dae" stroke-width="1.2" stroke-linejoin="round"/>
<path d="M 457.87 443.56 L 449.53 447.38 L 437.40 451.90 L 457.87 443.56 Z" fill="#427bad" stroke="#427bad" stroke-width="1.2" stroke-linejoin="round"/>
<path d="M 454.22 438.14 L 457.87 443.56 L 457.87 443.56 L 437.40 451.90 L 437.40 451.90 L 454.22 438.14 Z" fill="#427dae" stroke="#427dae" stroke-width="1.2" stroke-linejoin="round"/>
<path d="M 372.56 562.71 L 400.47 601.09 L 359.26 613.77 L 372.56 562.71 Z" fill="#3c669f" stroke="#3c669f" stroke-width="1.2" stroke-linejoin="round"/>
<path d="M 372.56 562.71 L 359.26 613.77 L 333.72 563.95 L 372.56 562.71 Z" fill="#3c679f" stroke="#3c679f" stroke-width="1.2" stroke-linejoin="round"/>
<path d="M 360.55 640.83 L 359.26 613.77 L 400.47 601.09 L 360.55 640.83 Z" fill="#3a629c" stroke="#3a629c" stroke-width="1.2" stroke-linejoin="round"/>
<path d="M 333.72 563.95 L 359.26 613.77 L 316.25 592.10 L 333.72 563.95 Z" fill="#3c649c" stroke="#3c649c" stroke-width="1.2" stroke-linejoin="round"/>
<path d="M 326.99 618.80 L 359.26 613.77 L 337.66 638.18 L 332.57 628.94 L 326.99 618.80 Z" fill="#395f99" stroke="#395f99" stroke-width="1.2" stroke-linejoin="round"/>
<path d="M 359.26 613.77 L 360.55 640.83 L 337.66 638.18 L 337.66 638.18 L 359.26 613.77 Z" fill="#395f9a" stroke="#395f9a" stroke-width="1.2" stroke-linejoin="round"/>
<path d="M 339.47 346.37 L 322.03 353.22 L 317.04 348.98 L 326.84 348.34 L 337.10 346.91 L 339.47 346.37 L 339.47 346.37 Z" fill="#4d8bb4" stroke="#4d8bb4" stroke-width="1.2" stroke-linejoin="round"/>
<path d="M 339.47 346.37 L 339.47 346.37 L 339.47 346.37 L 339.47 346.37 Z" fill="#4d8fb7" stroke="#4d8fb7" stroke-width="1.2" stroke-linejoin="round"/>
<path d="M 371.13 354.19 L 339.47 346.37 L 346.62 344.75 L 355.41 341.88 L 360.92 339.43 L 371.13 354.19 Z" fill="#4b8bb5" stroke="#4b8bb5" stroke-width="1.2" stroke-linejoin="round"/>
<path d="M 322.03 353.22 L 339.47 346.37 L 340.64 411.53 L 322.03 353.22 Z" fill="#4b87b2" stroke="#4b87b2" stroke-width="1.2" stroke-linejoin="round"/>
<path d="M 340.64 411.53 L 339.47 346.37 L 371.13 354.19 L 340.64 411.53 Z" fill="#4a87b2" stroke="#4a87b2" stroke-width="1.2" stroke-linejoin="round"/>
<path d="M 401.77 159.85 L 384.31 202.27 L 383.26 200.99 L 380.40 198.06 L 377.38 195.27 L 370.79 190.25 L 366.94 187.99 L 401.77 159.85 Z" fill="#53a3c3" stroke="#53a3c3" stroke-width="1.2" stroke-linejoin="round"/>
<path d="M 445.20 248.54 L 464.10 207.40 L 481.82 240.77 L 445.20 248.54 Z" fill="#4998bc" stroke="#4998bc" stroke-width="1.2" stroke-linejoin="round"/>
<path d="M 504.26 215.03 L 464.10 207.40 L 478.61 159.44 L 504.26 215.03 Z" fill="#489dbd" stroke="#489dbd" stroke-width="1.2" stroke-linejoin="round"/>
<path d="M 504.26 215.03 L 481.82 240.77 L 464.10 207.40 L 504.26 215.03 Z" fill="#4799bc" stroke="#4799bc" stroke-width="1.2" stroke-linejoin="round"/>
<path d="M 339.77 93.56 L 340.43 37.20 L 380.34 49.96 L 339.77 93.56 Z" fill="#5eb7d0" stroke="#5eb7d0" stroke-width="1.2" stroke-linejoin="round"/>
<path d="M 366.94 187.99 L 361.56 173.77 L 401.77 159.85 L 366.94 187.99 Z" fill="#54a4c4" stroke="#54a4c4" stroke-width="1.2" stroke-linejoin="round"/>
<path d="M 401.77 159.85 L 361.56 173.77 L 370.00 124.47 L 401.77 159.85 Z" fill="#55a7c6" stroke="#55a7c6" stroke-width="1.2" stroke-linejoin="round"/>
<path d="M 323.10 155.09 L 370.00 124.47 L 361.56 173.77 L 323.10 155.09 Z" fill="#58a9c7" stroke="#58a9c7" stroke-width="1.2" stroke-linejoin="round"/>
<path d="M 55.17 77.30 L 40.71 58.23 L 56.00 33.06 L 55.17 77.30 Z" fill="#89cfe9" stroke="#89cfe9" stroke-width="1.2" stroke-linejoin="round"/>
<path d="M 40.71 58.23 L 33.87 33.06 L 56.00 33.06 L 40.71 58.23 Z" fill="#8cd3ed" stroke="#8cd3ed" stroke-width="1.2" stroke-linejoin="round"/>
<path d="M 40.71 58.23 L 33.06 54.36 L 33.87 33.06 L 40.71 58.23 Z" fill="#8cd2ec" stroke="#8cd2ec" stroke-width="1.2" stroke-linejoin="round"/>
<path d="M 40.99 154.12 L 33.06 164.99 L 33.06 142.87 L 40.99 154.12 Z" fill="#7cbad9" stroke="#7cbad9" stroke-width="1.2" stroke-linejoin="round"/>
<path d="M 72.68 133.41 L 79.96 167.53 L 40.99 154.12 L 72.68 133.41 Z" fill="#79b9d7" stroke="#79b9d7" stroke-width="1.2" stroke-linejoin="round"/>
<path d="M 40.99 154.12 L 79.96 167.53 L 33.06 164.99 L 40.99 154.12 Z" fill="#79b7d6" stroke="#79b7d6" stroke-width="1.2" stroke-linejoin="round"/>
<path d="M 72.68 133.41 L 40.99 154.12 L 57.19 121.68 L 72.68 133.41 Z" fill="#7cbddb" stroke="#7cbddb" stroke-width="1.2" stroke-linejoin="round"/>
<path d="M 57.19 121.68 L 40.99 154.12 L 33.06 142.87 L 57.19 121.68 Z" fill="#7dbddb" stroke="#7dbddb" stroke-width="1.2" stroke-linejoin="round"/>
<path d="M 114.14 47.40 L 100.25 33.06 L 122.38 33.06 L 114.14 47.40 Z" fill="#83cee7" stroke="#83cee7" stroke-width="1.2" stroke-linejoin="round"/>
<path d="M 133.29 113.50 L 97.75 94.10 L 135.11 85.55 L 133.29 113.50 Z" fill="#79c1dd" stroke="#79c1dd" stroke-width="1.2" stroke-linejoin="round"/>
<path d="M 97.75 94.10 L 114.14 47.40 L 135.11 85.55 L 97.75 94.10 Z" fill="#7dc6e1" stroke="#7dc6e1" stroke-width="1.2" stroke-linejoin="round"/>
<path d="M 133.29 113.50 L 135.11 85.55 L 176.16 92.45 L 133.29 113.50 Z" fill="#76bfdb" stroke="#76bfdb" stroke-width="1.2" stroke-linejoin="round"/>
<path d="M 176.16 92.45 L 135.11 85.55 L 172.77 56.43 L 176.16 92.45 Z" fill="#77c2dd" stroke="#77c2dd" stroke-width="1.2" stroke-linejoin="round"/>
<path d="M 176.16 92.45 L 207.90 137.43 L 161.74 138.27 L 176.16 92.45 Z" fill="#6fb8d5" stroke="#6fb8d5" stroke-width="1.2" stroke-linejoin="round"/>
<path d="M 214.39 54.45 L 172.77 56.43 L 188.75 33.06 L 214.39 54.45 Z" fill="#76c6df" stroke="#76c6df" stroke-width="1.2" stroke-linejoin="round"/>
<path d="M 282.53 73.41 L 241.31 78.59 L 237.94 54.65 L 282.53 73.41 Z" fill="#6bbdd7" stroke="#6bbdd7" stroke-width="1.2" stroke-linejoin="round"/>
<path d="M 241.31 78.59 L 214.39 54.45 L 237.94 54.65 L 241.31 78.59 Z" fill="#6fc0da" stroke="#6fc0da" stroke-width="1.2" stroke-linejoin="round"/>
<path d="M 250.77 135.74 L 293.86 138.36 L 274.53 172.95 L 250.77 135.74 Z" fill="#62aecc" stroke="#62aecc" stroke-width="1.2" stroke-linejoin="round"/>
<path d="M 126.90 213.96 L 129.13 248.98 L 81.28 240.73 L 126.90 213.96 Z" fill="#69a5c7" stroke="#69a5c7" stroke-width="1.2" stroke-linejoin="round"/>
<path d="M 157.04 212.22 L 129.13 248.98 L 126.90 213.96 L 157.04 212.22 Z" fill="#67a6c8" stroke="#67a6c8" stroke-width="1.2" stroke-linejoin="round"/>
<path d="M 157.04 212.22 L 167.25 236.10 L 129.13 248.98 L 157.04 212.22 Z" fill="#65a4c6" stroke="#65a4c6" stroke-width="1.2" stroke-linejoin="round"/>
<path d="M 154.64 272.41 L 167.25 236.10 L 203.99 258.71 L 154.64 272.41 Z" fill="#609ec2" stroke="#609ec2" stroke-width="1.2" stroke-linejoin="round"/>
<path d="M 129.86 273.66 L 129.13 248.98 L 154.64 272.41 L 129.86 273.66 Z" fill="#629ec2" stroke="#629ec2" stroke-width="1.2" stroke-linejoin="round"/>
<path d="M 167.25 236.10 L 154.64 272.41 L 129.13 248.98 L 167.25 236.10 Z" fill="#63a0c3" stroke="#63a0c3" stroke-width="1.2" stroke-linejoin="round"/>
<path d="M 37.44 366.57 L 33.06 386.25 L 33.06 364.12 L 37.44 366.57 Z" fill="#5a88b1" stroke="#5a88b1" stroke-width="1.2" stroke-linejoin="round"/>
<path d="M 37.44 366.57 L 33.06 364.12 L 33.06 342.00 L 37.44 366.57 Z" fill="#5d8bb3" stroke="#5d8bb3" stroke-width="1.2" stroke-linejoin="round"/>
<path d="M 42.43 294.33 L 90.02 279.80 L 90.48 317.87 L 42.43 294.33 Z" fill="#6398be" stroke="#6398be" stroke-width="1.2" stroke-linejoin="round"/>
<path d="M 90.02 279.80 L 42.43 294.33 L 33.06 275.62 L 90.02 279.80 Z" fill="#669cc1" stroke="#669cc1" stroke-width="1.2" stroke-linejoin="round"/>
<path d="M 81.28 240.73 L 90.02 279.80 L 33.06 275.62 L 81.28 240.73 Z" fill="#689fc3" stroke="#689fc3" stroke-width="1.2" stroke-linejoin="round"/>
<path d="M 129.86 273.66 L 90.02 279.80 L 129.13 248.98 L 129.86 273.66 Z" fill="#649ec2" stroke="#649ec2" stroke-width="1.2" stroke-linejoin="round"/>
<path d="M 81.28 240.73 L 129.13 248.98 L 90.02 279.80 L 81.28 240.73 Z" fill="#67a0c4" stroke="#67a0c4" stroke-width="1.2" stroke-linejoin="round"/>
<path d="M 129.86 273.66 L 154.64 272.41 L 134.87 317.92 L 129.86 273.66 Z" fill="#5f99be" stroke="#5f99be" stroke-width="1.2" stroke-linejoin="round"/>
<path d="M 154.29 336.68 L 134.87 317.92 L 154.64 272.41 L 154.29 336.68 Z" fill="#5c94bb" stroke="#5c94bb" stroke-width="1.2" stroke-linejoin="round"/>
<path d="M 129.86 273.66 L 134.87 317.92 L 90.02 279.80 L 129.86 273.66 Z" fill="#6199be" stroke="#6199be" stroke-width="1.2" stroke-linejoin="round"/>
<path d="M 90.48 317.87 L 90.02 279.80 L 134.87 317.92 L 90.48 317.87 Z" fill="#6096bc" stroke="#6096bc" stroke-width="1.2" stroke-linejoin="round"/>
<path d="M 131.68 364.79 L 134.87 317.92 L 154.29 336.68 L 131.68 364.79 Z" fill="#598eb6" stroke="#598eb6" stroke-width="1.2" stroke-linejoin="round"/>
<path d="M 131.68 364.79 L 90.48 317.87 L 134.87 317.92 L 131.68 364.79 Z" fill="#5b90b7" stroke="#5b90b7" stroke-width="1.2" stroke-linejoin="round"/>
<path d="M 87.14 528.74 L 33.06 541.12 L 33.06 519.00 L 87.14 528.74 Z" fill="#426495" stroke="#426495" stroke-width="1.2" stroke-linejoin="round"/>
<path d="M 48.18 489.23 L 87.14 528.74 L 33.06 519.00 L 48.18 489.23 Z" fill="#446898" stroke="#446898" stroke-width="1.2" stroke-linejoin="round"/>
<path d="M 48.93 441.06 L 76.64 451.69 L 33.06 474.75 L 48.93 441.06 Z" fill="#4d75a2" stroke="#4d75a2" stroke-width="1.2" stroke-linejoin="round"/>
<path d="M 85.15 415.16 L 76.64 451.69 L 48.93 441.06 L 85.15 415.16 Z" fill="#4f79a6" stroke="#4f79a6" stroke-width="1.2" stroke-linejoin="round"/>
<path d="M 48.93 441.06 L 33.06 430.50 L 33.06 408.37 L 48.93 441.06 Z" fill="#527ba7" stroke="#527ba7" stroke-width="1.2" stroke-linejoin="round"/>
<path d="M 85.15 415.16 L 48.93 441.06 L 33.06 408.37 L 85.15 415.16 Z" fill="#527da8" stroke="#527da8" stroke-width="1.2" stroke-linejoin="round"/>
<path d="M 170.29 444.11 L 158.12 476.88 L 131.15 449.98 L 170.29 444.11 Z" fill="#4a76a5" stroke="#4a76a5" stroke-width="1.2" stroke-linejoin="round"/>
<path d="M 85.15 415.16 L 131.15 449.98 L 76.64 451.69 L 85.15 415.16 Z" fill="#4e79a6" stroke="#4e79a6" stroke-width="1.2" stroke-linejoin="round"/>
<path d="M 85.15 415.16 L 137.20 394.63 L 131.15 449.98 L 85.15 415.16 Z" fill="#507da9" stroke="#507da9" stroke-width="1.2" stroke-linejoin="round"/>
<path d="M 170.29 444.11 L 131.15 449.98 L 159.92 399.74 L 170.29 444.11 Z" fill="#4d7ba8" stroke="#4d7ba8" stroke-width="1.2" stroke-linejoin="round"/>
<path d="M 137.20 394.63 L 159.92 399.74 L 131.15 449.98 L 137.20 394.63 Z" fill="#4f7fab" stroke="#4f7fab" stroke-width="1.2" stroke-linejoin="round"/>
<path d="M 537.62 124.17 L 549.60 142.75 L 523.30 156.22 L 537.62 124.17 Z" fill="#43a0bd" stroke="#43a0bd" stroke-width="1.2" stroke-linejoin="round"/>
<path d="M 559.50 162.53 L 523.30 156.22 L 549.60 142.75 L 559.50 162.53 Z" fill="#439ebc" stroke="#439ebc" stroke-width="1.2" stroke-linejoin="round"/>
<path d="M 479.51 95.54 L 487.59 126.22 L 462.31 120.39 L 479.51 95.54 Z" fill="#4ba7c3" stroke="#4ba7c3" stroke-width="1.2" stroke-linejoin="round"/>
<path d="M 507.46 91.92 L 487.59 126.22 L 479.51 95.54 L 507.46 91.92 Z" fill="#4aa7c2" stroke="#4aa7c2" stroke-width="1.2" stroke-linejoin="round"/>
<path d="M 478.61 159.44 L 462.31 120.39 L 487.59 126.22 L 478.61 159.44 Z" fill="#4ba4c1" stroke="#4ba4c1" stroke-width="1.2" stroke-linejoin="round"/>
<path d="M 523.28 118.62 L 487.59 126.22 L 523.41 107.23 L 523.28 118.62 Z" fill="#47a4c0" stroke="#47a4c0" stroke-width="1.2" stroke-linejoin="round"/>
<path d="M 507.46 91.92 L 523.41 107.23 L 487.59 126.22 L 507.46 91.92 Z" fill="#48a6c1" stroke="#48a6c1" stroke-width="1.2" stroke-linejoin="round"/>
<path d="M 523.28 118.62 L 523.30 156.22 L 487.59 126.22 L 523.28 118.62 Z" fill="#47a2bf" stroke="#47a2bf" stroke-width="1.2" stroke-linejoin="round"/>
<path d="M 478.61 159.44 L 487.59 126.22 L 523.30 156.22 L 478.61 159.44 Z" fill="#48a2bf" stroke="#48a2bf" stroke-width="1.2" stroke-linejoin="round"/>
<path d="M 178.70 366.01 L 154.29 336.68 L 203.99 349.15 L 178.70 366.01 Z" fill="#558cb4" stroke="#558cb4" stroke-width="1.2" stroke-linejoin="round"/>
<path d="M 203.99 349.15 L 154.29 336.68 L 203.99 326.54 L 203.99 349.15 Z" fill="#568eb6" stroke="#568eb6" stroke-width="1.2" stroke-linejoin="round"/>
<path d="M 200.95 315.50 L 203.99 303.93 L 203.99 326.54 L 200.95 315.50 Z" fill="#5892b9" stroke="#5892b9" stroke-width="1.2" stroke-linejoin="round"/>
<path d="M 154.29 336.68 L 200.95 315.50 L 203.99 326.54 L 154.29 336.68 Z" fill="#5890b8" stroke="#5890b8" stroke-width="1.2" stroke-linejoin="round"/>
<path d="M 200.95 315.50 L 154.64 272.41 L 203.99 303.93 L 200.95 315.50 Z" fill="#5b96bc" stroke="#5b96bc" stroke-width="1.2" stroke-linejoin="round"/>
<path d="M 154.29 336.68 L 154.64 272.41 L 200.95 315.50 L 154.29 336.68 Z" fill="#5b94bb" stroke="#5b94bb" stroke-width="1.2" stroke-linejoin="round"/>
<path d="M 402.56 242.94 L 422.51 255.19 L 403.91 265.47 L 403.99 261.02 L 403.90 256.09 L 403.16 246.62 L 402.56 242.94 L 402.56 242.94 Z" fill="#4d97bc" stroke="#4d97bc" stroke-width="1.2" stroke-linejoin="round"/>
<path d="M 422.51 255.19 L 402.56 242.94 L 445.20 248.54 L 422.51 255.19 Z" fill="#4c98bc" stroke="#4c98bc" stroke-width="1.2" stroke-linejoin="round"/>
<path d="M 154.64 272.41 L 203.99 281.32 L 203.99 303.93 L 154.64 272.41 Z" fill="#5c98be" stroke="#5c98be" stroke-width="1.2" stroke-linejoin="round"/>
<path d="M 154.64 272.41 L 203.99 258.71 L 203.99 281.32 L 154.64 272.41 Z" fill="#5e9bc0" stroke="#5e9bc0" stroke-width="1.2" stroke-linejoin="round"/>
<path d="M 359.26 613.77 L 326.99 618.80 L 322.97 611.51 L 316.31 599.42 L 359.26 613.77 Z" fill="#3a619a" stroke="#3a619a" stroke-width="1.2" stroke-linejoin="round"/>
<path d="M 316.25 592.10 L 359.26 613.77 L 316.31 599.42 L 316.31 599.42 L 316.25 592.10 Z" fill="#3b629b" stroke="#3b629b" stroke-width="1.2" stroke-linejoin="round"/>
<path d="M 316.25 592.10 L 316.31 599.42 L 305.64 580.04 L 316.25 592.10 Z" fill="#3b639b" stroke="#3b639b" stroke-width="1.2" stroke-linejoin="round"/>
<path d="M 203.99 613.23 L 201.68 604.31 L 203.99 591.10 L 203.99 613.23 Z" fill="#395b92" stroke="#395b92" stroke-width="1.2" stroke-linejoin="round"/>
<path d="M 286.51 486.68 L 273.62 521.90 L 262.95 502.52 L 286.51 486.68 Z" fill="#4270a2" stroke="#4270a2" stroke-width="1.2" stroke-linejoin="round"/>
<path d="M 286.51 486.68 L 285.18 535.21 L 273.62 521.90 L 286.51 486.68 Z" fill="#416fa2" stroke="#416fa2" stroke-width="1.2" stroke-linejoin="round"/>
<path d="M 285.18 535.21 L 284.29 541.28 L 274.11 522.79 L 273.62 521.90 L 285.18 535.21 Z" fill="#406b9f" stroke="#406b9f" stroke-width="1.2" stroke-linejoin="round"/>
<path d="M 260.66 483.11 L 262.95 502.52 L 256.06 490.02 L 252.27 483.14 L 260.66 483.11 Z" fill="#4472a4" stroke="#4472a4" stroke-width="1.2" stroke-linejoin="round"/>
<path d="M 256.56 455.17 L 260.66 483.11 L 252.27 483.14 L 252.27 483.14 L 256.56 455.17 Z" fill="#4575a5" stroke="#4575a5" stroke-width="1.2" stroke-linejoin="round"/>
<path d="M 163.76 535.14 L 169.99 572.21 L 115.23 561.02 L 163.76 535.14 Z" fill="#3e6295" stroke="#3e6295" stroke-width="1.2" stroke-linejoin="round"/>
<path d="M 115.23 561.02 L 169.99 572.21 L 154.38 591.40 L 115.23 561.02 Z" fill="#3c5e92" stroke="#3c5e92" stroke-width="1.2" stroke-linejoin="round"/>
<path d="M 169.99 572.21 L 203.99 546.85 L 203.99 568.98 L 169.99 572.21 Z" fill="#3d6397" stroke="#3d6397" stroke-width="1.2" stroke-linejoin="round"/>
<path d="M 169.99 572.21 L 163.76 535.14 L 203.99 546.85 L 169.99 572.21 Z" fill="#3e6498" stroke="#3e6498" stroke-width="1.2" stroke-linejoin="round"/>
<path d="M 169.99 572.21 L 203.99 568.98 L 203.99 591.10 L 169.99 572.21 Z" fill="#3b6095" stroke="#3b6095" stroke-width="1.2" stroke-linejoin="round"/>
<path d="M 201.68 604.31 L 154.38 591.40 L 169.99 572.21 L 201.68 604.31 Z" fill="#3a5d92" stroke="#3a5d92" stroke-width="1.2" stroke-linejoin="round"/>
<path d="M 201.68 604.31 L 169.99 572.21 L 203.99 591.10 L 201.68 604.31 Z" fill="#3a5d93" stroke="#3a5d93" stroke-width="1.2" stroke-linejoin="round"/>
<path d="M 448.83 638.50 L 442.56 669.92 L 422.29 634.40 L 448.83 638.50 Z" fill="#3a629f" stroke="#3a629f" stroke-width="1.2" stroke-linejoin="round"/>
<path d="M 422.29 634.40 L 442.56 669.92 L 413.65 687.67 L 422.29 634.40 Z" fill="#395f9d" stroke="#395f9d" stroke-width="1.2" stroke-linejoin="round"/>
<path d="M 448.83 638.50 L 483.61 681.56 L 442.56 669.92 L 448.83 638.50 Z" fill="#3a61a0" stroke="#3a61a0" stroke-width="1.2" stroke-linejoin="round"/>
<path d="M 459.74 719.06 L 442.56 669.92 L 483.61 681.56 L 459.74 719.06 Z" fill="#395e9e" stroke="#395e9e" stroke-width="1.2" stroke-linejoin="round"/>
<path d="M 459.74 719.06 L 413.65 687.67 L 442.56 669.92 L 459.74 719.06 Z" fill="#385c9c" stroke="#385c9c" stroke-width="1.2" stroke-linejoin="round"/>
<path d="M 569.75 710.65 L 542.03 708.41 L 558.61 691.54 L 567.44 706.69 L 569.75 710.65 Z" fill="#3d63a6" stroke="#3d63a6" stroke-width="1.2" stroke-linejoin="round"/>
<path d="M 542.03 708.41 L 528.42 678.12 L 558.61 691.54 L 542.03 708.41 Z" fill="#3c63a5" stroke="#3c63a5" stroke-width="1.2" stroke-linejoin="round"/>
<path d="M 558.61 691.54 L 528.42 678.12 L 547.46 672.42 L 553.17 682.21 L 558.61 691.54 Z" fill="#3d65a6" stroke="#3d65a6" stroke-width="1.2" stroke-linejoin="round"/>
<path d="M 540.13 284.99 L 559.62 326.64 L 539.03 335.31 L 540.13 284.99 Z" fill="#418cb6" stroke="#418cb6" stroke-width="1.2" stroke-linejoin="round"/>
<path d="M 529.31 216.41 L 572.97 204.60 L 572.97 204.60 L 576.44 226.44 L 576.44 226.44 L 529.31 216.41 Z" fill="#4097b9" stroke="#4097b9" stroke-width="1.2" stroke-linejoin="round"/>
<path d="M 572.63 247.46 L 529.31 216.41 L 576.44 226.44 L 576.44 226.44 L 572.63 247.46 Z" fill="#4095b9" stroke="#4095b9" stroke-width="1.2" stroke-linejoin="round"/>
<path d="M 574.77 292.56 L 540.13 284.99 L 577.34 270.60 L 577.34 270.60 L 574.77 292.56 Z" fill="#4090b7" stroke="#4090b7" stroke-width="1.2" stroke-linejoin="round"/>
<path d="M 577.34 270.60 L 540.13 284.99 L 572.63 247.46 L 577.34 270.60 L 577.34 270.60 Z" fill="#4091b7" stroke="#4091b7" stroke-width="1.2" stroke-linejoin="round"/>
<path d="M 574.77 292.56 L 577.34 270.60 L 576.67 279.87 L 574.77 292.56 L 574.77 292.56 Z" fill="#3e80b1" stroke="#3e80b1" stroke-width="1.2" stroke-linejoin="round"/>
<path d="M 397.55 476.45 L 412.26 437.21 L 422.29 457.01 L 421.96 457.12 L 424.90 462.15 L 397.55 476.45 Z" fill="#437bac" stroke="#437bac" stroke-width="1.2" stroke-linejoin="round"/>
<path d="M 412.26 437.21 L 437.40 451.90 L 431.44 454.12 L 422.29 457.01 L 412.26 437.21 Z" fill="#437cad" stroke="#437cad" stroke-width="1.2" stroke-linejoin="round"/>
<path d="M 397.55 476.45 L 424.90 462.15 L 436.04 481.27 L 397.55 476.45 Z" fill="#4279ab" stroke="#4279ab" stroke-width="1.2" stroke-linejoin="round"/>
<path d="M 401.77 159.85 L 397.61 216.03 L 384.31 202.27 L 401.77 159.85 Z" fill="#51a1c1" stroke="#51a1c1" stroke-width="1.2" stroke-linejoin="round"/>
<path d="M 384.31 202.27 L 397.61 216.03 L 396.44 221.24 L 392.84 214.07 L 388.42 207.27 L 384.31 202.27 L 384.31 202.27 Z" fill="#509ec0" stroke="#509ec0" stroke-width="1.2" stroke-linejoin="round"/>
<path d="M 445.20 248.54 L 397.61 216.03 L 464.10 207.40 L 445.20 248.54 Z" fill="#4c9bbd" stroke="#4c9bbd" stroke-width="1.2" stroke-linejoin="round"/>
<path d="M 397.61 216.03 L 445.20 248.54 L 402.56 242.94 L 401.69 237.69 L 401.36 236.44 L 397.61 216.03 Z" fill="#4d9abd" stroke="#4d9abd" stroke-width="1.2" stroke-linejoin="round"/>
<path d="M 397.61 216.03 L 401.36 236.44 L 399.48 229.28 L 396.53 221.41 L 396.44 221.24 L 397.61 216.03 Z" fill="#4f9cbe" stroke="#4f9cbe" stroke-width="1.2" stroke-linejoin="round"/>
<path d="M 430.42 49.44 L 409.26 100.21 L 409.20 43.20 L 409.20 43.20 L 430.42 49.44 Z" fill="#55b2ca" stroke="#55b2ca" stroke-width="1.2" stroke-linejoin="round"/>
<path d="M 409.20 43.20 L 409.20 43.20 L 380.34 49.96 L 387.58 38.56 L 387.58 38.56 L 409.20 43.20 Z" fill="#5ab6ce" stroke="#5ab6ce" stroke-width="1.2" stroke-linejoin="round"/>
<path d="M 301.16 47.59 L 282.53 73.41 L 277.25 33.06 L 301.16 47.59 Z" fill="#68bed6" stroke="#68bed6" stroke-width="1.2" stroke-linejoin="round"/>
<path d="M 282.53 73.41 L 301.16 47.59 L 339.77 93.56 L 282.53 73.41 Z" fill="#64b9d2" stroke="#64b9d2" stroke-width="1.2" stroke-linejoin="round"/>
<path d="M 339.77 93.56 L 301.16 47.59 L 340.43 37.20 L 339.77 93.56 Z" fill="#62b9d2" stroke="#62b9d2" stroke-width="1.2" stroke-linejoin="round"/>
<path d="M 361.56 173.77 L 366.94 187.99 L 366.94 187.99 L 363.46 185.94 L 355.41 182.35 L 346.62 179.48 L 346.12 179.37 L 361.56 173.77 Z" fill="#56a4c4" stroke="#56a4c4" stroke-width="1.2" stroke-linejoin="round"/>
<path d="M 323.10 155.09 L 346.12 179.37 L 337.10 177.33 L 326.84 175.89 L 323.84 175.70 L 323.10 155.09 Z" fill="#59a7c7" stroke="#59a7c7" stroke-width="1.2" stroke-linejoin="round"/>
<path d="M 346.12 179.37 L 323.10 155.09 L 361.56 173.77 L 346.12 179.37 L 346.12 179.37 Z" fill="#58a7c6" stroke="#58a7c6" stroke-width="1.2" stroke-linejoin="round"/>
<path d="M 409.26 100.21 L 411.45 125.43 L 370.00 124.47 L 409.26 100.21 Z" fill="#55acc8" stroke="#55acc8" stroke-width="1.2" stroke-linejoin="round"/>
<path d="M 401.77 159.85 L 370.00 124.47 L 411.45 125.43 L 401.77 159.85 Z" fill="#54a9c6" stroke="#54a9c6" stroke-width="1.2" stroke-linejoin="round"/>
<path d="M 409.26 100.21 L 370.00 124.47 L 378.48 87.10 L 409.26 100.21 Z" fill="#57aeca" stroke="#57aeca" stroke-width="1.2" stroke-linejoin="round"/>
<path d="M 339.77 93.56 L 378.48 87.10 L 370.00 124.47 L 339.77 93.56 Z" fill="#5ab0cb" stroke="#5ab0cb" stroke-width="1.2" stroke-linejoin="round"/>
<path d="M 339.77 93.56 L 380.34 49.96 L 378.48 87.10 L 339.77 93.56 Z" fill="#5bb4cd" stroke="#5bb4cd" stroke-width="1.2" stroke-linejoin="round"/>
<path d="M 409.26 100.21 L 378.48 87.10 L 409.20 43.20 L 409.26 100.21 Z" fill="#57b1cb" stroke="#57b1cb" stroke-width="1.2" stroke-linejoin="round"/>
<path d="M 378.48 87.10 L 380.34 49.96 L 409.20 43.20 L 409.20 43.20 L 378.48 87.10 Z" fill="#59b4cd" stroke="#59b4cd" stroke-width="1.2" stroke-linejoin="round"/>
<path d="M 323.10 155.09 L 333.52 118.50 L 370.00 124.47 L 323.10 155.09 Z" fill="#5badca" stroke="#5badca" stroke-width="1.2" stroke-linejoin="round"/>
<path d="M 339.77 93.56 L 370.00 124.47 L 333.52 118.50 L 339.77 93.56 Z" fill="#5bafcb" stroke="#5bafcb" stroke-width="1.2" stroke-linejoin="round"/>
<path d="M 323.10 155.09 L 293.86 138.36 L 333.52 118.50 L 323.10 155.09 Z" fill="#5dadcb" stroke="#5dadcb" stroke-width="1.2" stroke-linejoin="round"/>
<path d="M 282.53 73.41 L 339.77 93.56 L 333.52 118.50 L 282.53 73.41 Z" fill="#60b4cf" stroke="#60b4cf" stroke-width="1.2" stroke-linejoin="round"/>
<path d="M 282.53 73.41 L 333.52 118.50 L 293.86 138.36 L 282.53 73.41 Z" fill="#61b3cf" stroke="#61b3cf" stroke-width="1.2" stroke-linejoin="round"/>
<path d="M 40.71 58.23 L 33.06 76.49 L 33.06 54.36 L 40.71 58.23 Z" fill="#8acfe9" stroke="#8acfe9" stroke-width="1.2" stroke-linejoin="round"/>
<path d="M 55.17 77.30 L 33.06 98.62 L 33.06 76.49 L 55.17 77.30 Z" fill="#86cae5" stroke="#86cae5" stroke-width="1.2" stroke-linejoin="round"/>
<path d="M 40.71 58.23 L 55.17 77.30 L 33.06 76.49 L 40.71 58.23 Z" fill="#88cde7" stroke="#88cde7" stroke-width="1.2" stroke-linejoin="round"/>
<path d="M 172.77 56.43 L 144.50 33.06 L 166.63 33.06 L 172.77 56.43 Z" fill="#7bcae2" stroke="#7bcae2" stroke-width="1.2" stroke-linejoin="round"/>
<path d="M 144.50 33.06 L 114.14 47.40 L 122.38 33.06 L 144.50 33.06 Z" fill="#81cde6" stroke="#81cde6" stroke-width="1.2" stroke-linejoin="round"/>
<path d="M 135.11 85.55 L 114.14 47.40 L 144.50 33.06 L 135.11 85.55 Z" fill="#7ec9e3" stroke="#7ec9e3" stroke-width="1.2" stroke-linejoin="round"/>
<path d="M 172.77 56.43 L 135.11 85.55 L 144.50 33.06 L 172.77 56.43 Z" fill="#7bc7e1" stroke="#7bc7e1" stroke-width="1.2" stroke-linejoin="round"/>
<path d="M 176.16 92.45 L 216.09 85.79 L 207.90 137.43 L 176.16 92.45 Z" fill="#6fbad6" stroke="#6fbad6" stroke-width="1.2" stroke-linejoin="round"/>
<path d="M 241.31 78.59 L 216.09 85.79 L 214.39 54.45 L 241.31 78.59 Z" fill="#6fbfd9" stroke="#6fbfd9" stroke-width="1.2" stroke-linejoin="round"/>
<path d="M 250.77 135.74 L 216.09 85.79 L 241.31 78.59 L 250.77 135.74 Z" fill="#6bb9d4" stroke="#6bb9d4" stroke-width="1.2" stroke-linejoin="round"/>
<path d="M 250.77 135.74 L 207.90 137.43 L 216.09 85.79 L 250.77 135.74 Z" fill="#6ab6d3" stroke="#6ab6d3" stroke-width="1.2" stroke-linejoin="round"/>
<path d="M 176.16 92.45 L 172.77 56.43 L 216.09 85.79 L 176.16 92.45 Z" fill="#73c0db" stroke="#73c0db" stroke-width="1.2" stroke-linejoin="round"/>
<path d="M 172.77 56.43 L 214.39 54.45 L 216.09 85.79 L 172.77 56.43 Z" fill="#73c2dc" stroke="#73c2dc" stroke-width="1.2" stroke-linejoin="round"/>
<path d="M 207.90 137.43 L 250.77 135.74 L 233.42 175.09 L 207.90 137.43 Z" fill="#66b0ce" stroke="#66b0ce" stroke-width="1.2" stroke-linejoin="round"/>
<path d="M 237.94 54.65 L 214.39 54.45 L 233.00 33.06 L 237.94 54.65 Z" fill="#71c3dc" stroke="#71c3dc" stroke-width="1.2" stroke-linejoin="round"/>
<path d="M 293.86 138.36 L 323.10 155.09 L 301.25 175.09 L 293.86 138.36 Z" fill="#5dabc9" stroke="#5dabc9" stroke-width="1.2" stroke-linejoin="round"/>
<path d="M 323.10 155.09 L 323.84 175.70 L 315.86 175.18 L 310.09 175.09 L 301.25 175.09 L 323.10 155.09 Z" fill="#5ba8c8" stroke="#5ba8c8" stroke-width="1.2" stroke-linejoin="round"/>
<path d="M 48.18 489.23 L 33.06 496.87 L 33.06 474.75 L 48.18 489.23 Z" fill="#486d9c" stroke="#486d9c" stroke-width="1.2" stroke-linejoin="round"/>
<path d="M 33.06 496.87 L 48.18 489.23 L 33.06 519.00 L 33.06 496.87 Z" fill="#466a99" stroke="#466a99" stroke-width="1.2" stroke-linejoin="round"/>
<path d="M 48.93 441.06 L 33.06 474.75 L 33.06 452.62 L 48.93 441.06 Z" fill="#4d74a1" stroke="#4d74a1" stroke-width="1.2" stroke-linejoin="round"/>
<path d="M 48.93 441.06 L 33.06 452.62 L 33.06 430.50 L 48.93 441.06 Z" fill="#4f78a4" stroke="#4f78a4" stroke-width="1.2" stroke-linejoin="round"/>
<path d="M 78.64 484.42 L 76.64 451.69 L 130.45 482.06 L 78.64 484.42 Z" fill="#4972a0" stroke="#4972a0" stroke-width="1.2" stroke-linejoin="round"/>
<path d="M 76.64 451.69 L 131.15 449.98 L 130.45 482.06 L 76.64 451.69 Z" fill="#4a75a3" stroke="#4a75a3" stroke-width="1.2" stroke-linejoin="round"/>
<path d="M 116.84 510.48 L 78.64 484.42 L 130.45 482.06 L 116.84 510.48 Z" fill="#466e9d" stroke="#466e9d" stroke-width="1.2" stroke-linejoin="round"/>
<path d="M 158.12 476.88 L 130.45 482.06 L 131.15 449.98 L 158.12 476.88 Z" fill="#4973a2" stroke="#4973a2" stroke-width="1.2" stroke-linejoin="round"/>
<path d="M 116.84 510.48 L 130.45 482.06 L 163.76 535.14 L 116.84 510.48 Z" fill="#446b9c" stroke="#446b9c" stroke-width="1.2" stroke-linejoin="round"/>
<path d="M 163.76 535.14 L 130.45 482.06 L 158.12 476.88 L 163.76 535.14 Z" fill="#456e9e" stroke="#456e9e" stroke-width="1.2" stroke-linejoin="round"/>
<path d="M 479.51 95.54 L 462.31 120.39 L 450.39 98.09 L 479.51 95.54 Z" fill="#4da9c4" stroke="#4da9c4" stroke-width="1.2" stroke-linejoin="round"/>
<path d="M 409.26 100.21 L 450.39 98.09 L 411.45 125.43 L 409.26 100.21 Z" fill="#52abc7" stroke="#52abc7" stroke-width="1.2" stroke-linejoin="round"/>
<path d="M 462.31 120.39 L 411.45 125.43 L 450.39 98.09 L 462.31 120.39 Z" fill="#50a9c5" stroke="#50a9c5" stroke-width="1.2" stroke-linejoin="round"/>
<path d="M 409.26 100.21 L 430.42 49.44 L 450.39 98.09 L 409.26 100.21 Z" fill="#52aec8" stroke="#52aec8" stroke-width="1.2" stroke-linejoin="round"/>
<path d="M 430.42 49.44 L 451.07 57.35 L 450.39 98.09 L 430.42 49.44 Z" fill="#51afc8" stroke="#51afc8" stroke-width="1.2" stroke-linejoin="round"/>
<path d="M 489.77 78.65 L 479.51 95.54 L 470.92 67.10 L 489.77 78.65 Z" fill="#4cabc4" stroke="#4cabc4" stroke-width="1.2" stroke-linejoin="round"/>
<path d="M 479.51 95.54 L 450.39 98.09 L 470.92 67.10 L 479.51 95.54 Z" fill="#4dabc5" stroke="#4dabc5" stroke-width="1.2" stroke-linejoin="round"/>
<path d="M 451.07 57.35 L 470.92 67.10 L 450.39 98.09 L 451.07 57.35 Z" fill="#4fadc7" stroke="#4fadc7" stroke-width="1.2" stroke-linejoin="round"/>
<path d="M 212.29 364.73 L 203.99 349.15 L 226.60 349.15 L 212.29 364.73 Z" fill="#538bb4" stroke="#538bb4" stroke-width="1.2" stroke-linejoin="round"/>
<path d="M 258.08 365.73 L 212.29 364.73 L 226.60 349.15 L 258.08 365.73 Z" fill="#5189b3" stroke="#5189b3" stroke-width="1.2" stroke-linejoin="round"/>
<path d="M 258.08 365.73 L 215.85 391.19 L 212.29 364.73 L 258.08 365.73 Z" fill="#5087b1" stroke="#5087b1" stroke-width="1.2" stroke-linejoin="round"/>
<path d="M 178.70 366.01 L 212.29 364.73 L 215.85 391.19 L 178.70 366.01 Z" fill="#5187b1" stroke="#5187b1" stroke-width="1.2" stroke-linejoin="round"/>
<path d="M 212.29 364.73 L 178.70 366.01 L 203.99 349.15 L 212.29 364.73 Z" fill="#538ab3" stroke="#538ab3" stroke-width="1.2" stroke-linejoin="round"/>
<path d="M 167.25 236.10 L 198.99 236.26 L 203.99 258.71 L 167.25 236.10 Z" fill="#61a0c3" stroke="#61a0c3" stroke-width="1.2" stroke-linejoin="round"/>
<path d="M 198.99 236.26 L 203.99 236.10 L 203.99 258.71 L 198.99 236.26 Z" fill="#5fa0c3" stroke="#5fa0c3" stroke-width="1.2" stroke-linejoin="round"/>
<path d="M 256.56 455.17 L 252.27 483.14 L 245.09 470.09 L 237.86 470.09 L 256.56 455.17 Z" fill="#4676a6" stroke="#4676a6" stroke-width="1.2" stroke-linejoin="round"/>
<path d="M 215.73 470.09 L 198.69 450.62 L 237.86 470.09 L 215.73 470.09 Z" fill="#4776a5" stroke="#4776a5" stroke-width="1.2" stroke-linejoin="round"/>
<path d="M 198.69 450.62 L 246.92 415.84 L 237.86 470.09 L 198.69 450.62 Z" fill="#497aa8" stroke="#497aa8" stroke-width="1.2" stroke-linejoin="round"/>
<path d="M 246.92 415.84 L 256.56 455.17 L 237.86 470.09 L 246.92 415.84 Z" fill="#487aa8" stroke="#487aa8" stroke-width="1.2" stroke-linejoin="round"/>
<path d="M 78.40 607.80 L 33.06 607.50 L 33.06 585.38 L 78.40 607.80 Z" fill="#375488" stroke="#375488" stroke-width="1.2" stroke-linejoin="round"/>
<path d="M 83.59 552.63 L 33.06 563.25 L 33.06 541.12 L 83.59 552.63 Z" fill="#3e5f91" stroke="#3e5f91" stroke-width="1.2" stroke-linejoin="round"/>
<path d="M 87.14 528.74 L 83.59 552.63 L 33.06 541.12 L 87.14 528.74 Z" fill="#406293" stroke="#406293" stroke-width="1.2" stroke-linejoin="round"/>
<path d="M 115.23 561.02 L 83.59 552.63 L 87.14 528.74 L 115.23 561.02 Z" fill="#3f6294" stroke="#3f6294" stroke-width="1.2" stroke-linejoin="round"/>
<path d="M 115.23 561.02 L 78.40 607.80 L 83.59 552.63 L 115.23 561.02 Z" fill="#3b5c8f" stroke="#3b5c8f" stroke-width="1.2" stroke-linejoin="round"/>
<path d="M 83.59 552.63 L 33.06 585.38 L 33.06 563.25 L 83.59 552.63 Z" fill="#3c5c8e" stroke="#3c5c8e" stroke-width="1.2" stroke-linejoin="round"/>
<path d="M 83.59 552.63 L 78.40 607.80 L 33.06 585.38 L 83.59 552.63 Z" fill="#3a598c" stroke="#3a598c" stroke-width="1.2" stroke-linejoin="round"/>
<path d="M 574.77 292.56 L 569.98 314.14 L 540.13 284.99 L 574.77 292.56 Z" fill="#408eb6" stroke="#408eb6" stroke-width="1.2" stroke-linejoin="round"/>
<path d="M 540.13 284.99 L 569.98 314.14 L 559.62 326.64 L 540.13 284.99 Z" fill="#408db6" stroke="#408db6" stroke-width="1.2" stroke-linejoin="round"/>
<path d="M 569.98 314.14 L 574.77 292.56 L 574.77 292.56 L 574.20 296.44 L 570.49 312.53 L 569.98 314.14 L 569.98 314.14 Z" fill="#3e7fb1" stroke="#3e7fb1" stroke-width="1.2" stroke-linejoin="round"/>
<path d="M 496.68 363.51 L 513.21 407.46 L 486.24 400.55 L 496.68 363.51 Z" fill="#4284b2" stroke="#4284b2" stroke-width="1.2" stroke-linejoin="round"/>
<path d="M 496.68 363.51 L 528.54 391.54 L 513.21 407.46 L 496.68 363.51 Z" fill="#4185b2" stroke="#4185b2" stroke-width="1.2" stroke-linejoin="round"/>
<path d="M 528.54 391.54 L 528.54 391.54 L 522.38 398.65 L 513.21 407.46 L 528.54 391.54 Z" fill="#407cae" stroke="#407cae" stroke-width="1.2" stroke-linejoin="round"/>
<path d="M 496.68 363.51 L 539.03 335.31 L 530.33 367.50 L 496.68 363.51 Z" fill="#4188b4" stroke="#4188b4" stroke-width="1.2" stroke-linejoin="round"/>
<path d="M 496.68 363.51 L 530.33 367.50 L 528.54 391.54 L 496.68 363.51 Z" fill="#4186b3" stroke="#4186b3" stroke-width="1.2" stroke-linejoin="round"/>
<path d="M 577.97 248.50 L 572.63 247.46 L 576.44 226.44 L 577.97 248.50 Z" fill="#3f94b8" stroke="#3f94b8" stroke-width="1.2" stroke-linejoin="round"/>
<path d="M 577.34 270.60 L 572.63 247.46 L 577.97 248.50 L 577.34 270.60 Z" fill="#3f92b7" stroke="#3f92b7" stroke-width="1.2" stroke-linejoin="round"/>
<path d="M 577.97 248.50 L 578.02 256.20 L 577.90 262.84 L 577.34 270.60 L 577.97 248.50 Z" fill="#3e82b2" stroke="#3e82b2" stroke-width="1.2" stroke-linejoin="round"/>
<path d="M 401.77 159.85 L 456.87 168.42 L 397.61 216.03 L 401.77 159.85 Z" fill="#4fa1c1" stroke="#4fa1c1" stroke-width="1.2" stroke-linejoin="round"/>
<path d="M 464.10 207.40 L 397.61 216.03 L 456.87 168.42 L 464.10 207.40 Z" fill="#4d9ebf" stroke="#4d9ebf" stroke-width="1.2" stroke-linejoin="round"/>
<path d="M 478.61 159.44 L 464.10 207.40 L 456.87 168.42 L 478.61 159.44 Z" fill="#4a9fbf" stroke="#4a9fbf" stroke-width="1.2" stroke-linejoin="round"/>
<path d="M 478.61 159.44 L 456.87 168.42 L 462.31 120.39 L 478.61 159.44 Z" fill="#4ba3c1" stroke="#4ba3c1" stroke-width="1.2" stroke-linejoin="round"/>
<path d="M 401.77 159.85 L 411.45 125.43 L 456.87 168.42 L 401.77 159.85 Z" fill="#50a5c3" stroke="#50a5c3" stroke-width="1.2" stroke-linejoin="round"/>
<path d="M 462.31 120.39 L 456.87 168.42 L 411.45 125.43 L 462.31 120.39 Z" fill="#4ea6c3" stroke="#4ea6c3" stroke-width="1.2" stroke-linejoin="round"/>
<path d="M 387.58 38.56 L 387.58 38.56 L 380.34 49.96 L 365.67 35.53 L 365.67 35.53 L 387.58 38.56 Z" fill="#5cb8d0" stroke="#5cb8d0" stroke-width="1.2" stroke-linejoin="round"/>
<path d="M 340.43 37.20 L 343.62 33.77 L 365.67 35.53 L 340.43 37.20 Z" fill="#60bbd3" stroke="#60bbd3" stroke-width="1.2" stroke-linejoin="round"/>
<path d="M 365.67 35.53 L 380.34 49.96 L 340.43 37.20 L 365.67 35.53 L 365.67 35.53 Z" fill="#5eb9d1" stroke="#5eb9d1" stroke-width="1.2" stroke-linejoin="round"/>
<path d="M 301.16 47.59 L 277.25 33.06 L 299.38 33.06 L 301.16 47.59 Z" fill="#68c0d7" stroke="#68c0d7" stroke-width="1.2" stroke-linejoin="round"/>
<path d="M 250.77 135.74 L 250.82 169.50 L 233.42 175.09 L 250.77 135.74 Z" fill="#64adcc" stroke="#64adcc" stroke-width="1.2" stroke-linejoin="round"/>
<path d="M 250.82 169.50 L 256.03 175.09 L 233.42 175.09 L 250.82 169.50 Z" fill="#62abcb" stroke="#62abcb" stroke-width="1.2" stroke-linejoin="round"/>
<path d="M 250.77 135.74 L 274.53 172.95 L 250.82 169.50 L 250.77 135.74 Z" fill="#62adcc" stroke="#62adcc" stroke-width="1.2" stroke-linejoin="round"/>
<path d="M 250.82 169.50 L 274.53 172.95 L 256.03 175.09 L 250.82 169.50 Z" fill="#61aaca" stroke="#61aaca" stroke-width="1.2" stroke-linejoin="round"/>
<path d="M 161.74 138.27 L 207.90 137.43 L 171.42 155.23 L 161.74 138.27 Z" fill="#6db4d2" stroke="#6db4d2" stroke-width="1.2" stroke-linejoin="round"/>
<path d="M 207.90 137.43 L 200.73 167.92 L 171.42 155.23 L 207.90 137.43 Z" fill="#6ab1d0" stroke="#6ab1d0" stroke-width="1.2" stroke-linejoin="round"/>
<path d="M 157.04 212.22 L 116.96 159.87 L 171.42 155.23 L 157.04 212.22 Z" fill="#6dafcf" stroke="#6dafcf" stroke-width="1.2" stroke-linejoin="round"/>
<path d="M 116.96 159.87 L 161.74 138.27 L 171.42 155.23 L 116.96 159.87 Z" fill="#6fb4d3" stroke="#6fb4d3" stroke-width="1.2" stroke-linejoin="round"/>
<path d="M 210.81 175.09 L 207.90 137.43 L 233.42 175.09 L 210.81 175.09 Z" fill="#67aecd" stroke="#67aecd" stroke-width="1.2" stroke-linejoin="round"/>
<path d="M 200.73 167.92 L 207.90 137.43 L 210.81 175.09 L 200.73 167.92 Z" fill="#68afce" stroke="#68afce" stroke-width="1.2" stroke-linejoin="round"/>
<path d="M 255.13 33.06 L 237.94 54.65 L 233.00 33.06 L 255.13 33.06 Z" fill="#70c3dc" stroke="#70c3dc" stroke-width="1.2" stroke-linejoin="round"/>
<path d="M 277.25 33.06 L 282.53 73.41 L 255.13 33.06 L 277.25 33.06 Z" fill="#6bc0d8" stroke="#6bc0d8" stroke-width="1.2" stroke-linejoin="round"/>
<path d="M 282.53 73.41 L 237.94 54.65 L 255.13 33.06 L 282.53 73.41 Z" fill="#6cc0d8" stroke="#6cc0d8" stroke-width="1.2" stroke-linejoin="round"/>
<path d="M 214.39 54.45 L 188.75 33.06 L 210.88 33.06 L 214.39 54.45 Z" fill="#75c6df" stroke="#75c6df" stroke-width="1.2" stroke-linejoin="round"/>
<path d="M 233.00 33.06 L 214.39 54.45 L 210.88 33.06 L 233.00 33.06 Z" fill="#73c5dd" stroke="#73c5dd" stroke-width="1.2" stroke-linejoin="round"/>
<path d="M 274.53 172.95 L 293.86 138.36 L 278.64 175.09 L 274.53 172.95 Z" fill="#5fabca" stroke="#5fabca" stroke-width="1.2" stroke-linejoin="round"/>
<path d="M 278.64 175.09 L 293.86 138.36 L 301.25 175.09 L 278.64 175.09 Z" fill="#5eaac9" stroke="#5eaac9" stroke-width="1.2" stroke-linejoin="round"/>
<path d="M 274.53 172.95 L 278.64 175.09 L 256.03 175.09 L 274.53 172.95 Z" fill="#60aac9" stroke="#60aac9" stroke-width="1.2" stroke-linejoin="round"/>
<path d="M 477.55 433.47 L 486.24 400.55 L 496.16 421.54 L 477.55 433.47 Z" fill="#4281b0" stroke="#4281b0" stroke-width="1.2" stroke-linejoin="round"/>
<path d="M 486.24 400.55 L 513.21 407.46 L 496.16 421.54 L 486.24 400.55 Z" fill="#4182b1" stroke="#4182b1" stroke-width="1.2" stroke-linejoin="round"/>
<path d="M 496.16 421.54 L 496.16 421.54 L 482.19 430.89 L 477.55 433.47 L 496.16 421.54 Z" fill="#417cae" stroke="#417cae" stroke-width="1.2" stroke-linejoin="round"/>
<path d="M 496.16 421.54 L 513.21 407.46 L 510.16 410.40 L 496.76 421.14 L 496.16 421.54 L 496.16 421.54 Z" fill="#407cae" stroke="#407cae" stroke-width="1.2" stroke-linejoin="round"/>
<path d="M 539.03 335.31 L 553.43 355.09 L 530.33 367.50 L 539.03 335.31 Z" fill="#4088b4" stroke="#4088b4" stroke-width="1.2" stroke-linejoin="round"/>
<path d="M 340.43 37.20 L 321.50 33.07 L 343.62 33.77 L 340.43 37.20 Z" fill="#62bdd4" stroke="#62bdd4" stroke-width="1.2" stroke-linejoin="round"/>
<path d="M 340.43 37.20 L 301.16 47.59 L 321.50 33.07 L 340.43 37.20 Z" fill="#64bdd5" stroke="#64bdd5" stroke-width="1.2" stroke-linejoin="round"/>
<path d="M 321.50 33.07 L 301.16 47.59 L 299.38 33.06 L 321.50 33.07 Z" fill="#66bed6" stroke="#66bed6" stroke-width="1.2" stroke-linejoin="round"/>
<path d="M 200.73 167.92 L 210.81 175.09 L 203.99 175.09 L 203.99 190.88 L 200.73 167.92 Z" fill="#66accc" stroke="#66accc" stroke-width="1.2" stroke-linejoin="round"/>
<path d="M 157.04 212.22 L 171.42 155.23 L 203.99 190.88 L 157.04 212.22 Z" fill="#68accc" stroke="#68accc" stroke-width="1.2" stroke-linejoin="round"/>
<path d="M 171.42 155.23 L 200.73 167.92 L 203.99 190.88 L 171.42 155.23 Z" fill="#68aece" stroke="#68aece" stroke-width="1.2" stroke-linejoin="round"/>
<path d="M 528.54 391.54 L 530.33 367.50 L 542.05 374.05 L 528.54 391.54 Z" fill="#4186b3" stroke="#4186b3" stroke-width="1.2" stroke-linejoin="round"/>
<path d="M 530.33 367.50 L 553.43 355.09 L 542.05 374.05 L 530.33 367.50 Z" fill="#4087b3" stroke="#4087b3" stroke-width="1.2" stroke-linejoin="round"/>
<path d="M 514.04 615.07 L 514.04 615.07 L 520.21 625.67 L 514.04 615.07 Z" fill="#3e73ab" stroke="#3e73ab" stroke-width="1.2" stroke-linejoin="round"/>
<path d="M 542.05 374.05 L 538.52 379.15 L 533.44 385.90 L 528.54 391.54 L 542.05 374.05 Z" fill="#3f7caf" stroke="#3f7caf" stroke-width="1.2" stroke-linejoin="round"/>
<path d="M 547.46 672.42 L 536.32 653.31 L 547.46 672.42 L 547.46 672.42 Z" fill="#3e71ab" stroke="#3e71ab" stroke-width="1.2" stroke-linejoin="round"/>
<path d="M 553.43 355.09 L 551.96 358.00 L 543.31 372.22 L 542.05 374.05 L 553.43 355.09 Z" fill="#3f7caf" stroke="#3f7caf" stroke-width="1.2" stroke-linejoin="round"/>
<path d="M 559.62 326.64 L 569.98 314.14 L 562.74 335.04 L 562.74 335.04 L 559.62 326.64 Z" fill="#3f8bb5" stroke="#3f8bb5" stroke-width="1.2" stroke-linejoin="round"/>
<path d="M 562.74 335.04 L 539.03 335.31 L 559.62 326.64 L 562.74 335.04 L 562.74 335.04 Z" fill="#408bb5" stroke="#408bb5" stroke-width="1.2" stroke-linejoin="round"/>
<path d="M 553.43 355.09 L 539.03 335.31 L 562.74 335.04 L 562.74 335.04 L 553.43 355.09 Z" fill="#408ab4" stroke="#408ab4" stroke-width="1.2" stroke-linejoin="round"/>
<path d="M 569.98 314.14 L 569.98 314.14 L 565.55 328.15 L 562.74 335.04 L 569.98 314.14 Z" fill="#3e7db0" stroke="#3e7db0" stroke-width="1.2" stroke-linejoin="round"/>
<path d="M 553.43 355.09 L 562.74 335.04 L 559.37 343.31 L 553.43 355.09 L 553.43 355.09 Z" fill="#3e7cb0" stroke="#3e7cb0" stroke-width="1.2" stroke-linejoin="round"/>
<path d="M 198.99 236.26 L 203.99 213.49 L 203.99 236.10 L 198.99 236.26 Z" fill="#61a3c5" stroke="#61a3c5" stroke-width="1.2" stroke-linejoin="round"/>
<path d="M 203.99 213.49 L 157.04 212.22 L 203.99 190.88 L 203.99 213.49 Z" fill="#65a8c9" stroke="#65a8c9" stroke-width="1.2" stroke-linejoin="round"/>
<path d="M 167.25 236.10 L 157.04 212.22 L 203.99 213.49 L 167.25 236.10 Z" fill="#64a5c7" stroke="#64a5c7" stroke-width="1.2" stroke-linejoin="round"/>
<path d="M 198.99 236.26 L 167.25 236.10 L 203.99 213.49 L 198.99 236.26 Z" fill="#62a3c6" stroke="#62a3c6" stroke-width="1.2" stroke-linejoin="round"/>
</svg>