<svg xmlns="http://www.w3.org/2000/svg" viewBox="0 0 1072 1072" role="img" aria-label="LUXCAR">
  <title>LUXCAR</title>
  <defs>
    <linearGradient id="car" x1="0%" y1="0%" x2="100%" y2="100%">
      <stop offset="0%" stop-color="#A5A5FA"/>
      <stop offset="100%" stop-color="#3B3BE8"/>
    </linearGradient>
  </defs>
  <g transform="translate(0,1072) scale(0.1,-0.1)" fill="url(#car)" stroke="none">
    <path d="M5045 7618 c-796 -17 -1538 -132 -1935 -300 -303 -128 -465 -266
-768 -656 l-173 -223 17 -27 c30 -46 356 -366 408 -400 55 -36 134 -67 192
-77 33 -5 30 -2 -26 21 -78 32 -125 63 -113 75 18 18 568 98 978 143 557 61
845 77 1485 81 898 6 1559 -38 2300 -151 91 -14 232 -32 315 -40 82 -8 153
-18 157 -22 5 -5 -30 -30 -77 -57 -46 -27 -83 -50 -81 -52 8 -9 190 75 241
112 33 24 136 122 229 220 l169 176 -35 37 c-19 20 -106 127 -194 237 -196
245 -255 309 -367 396 -262 203 -556 310 -1107 403 -510 86 -1000 118 -1615
104z"/>
    <path d="M909 5432 c34 -48 147 -149 228 -203 172 -117 407 -207 790 -305 142
-36 185 -54 131 -54 -35 0 -286 37 -448 65 -352 62 -584 144 -818 289 -51 32
-95 56 -98 54 -2 -3 48 -108 113 -233 133 -260 121 -206 108 -520 -19 -453 58
-1192 141 -1372 46 -98 134 -150 299 -179 226 -38 370 -48 776 -52 l406 -3
134 143 c201 213 319 346 319 359 0 6 -46 95 -101 198 -170 311 -420 800 -560
1093 -73 152 -142 289 -153 303 -18 23 -56 36 -271 95 -388 105 -684 207 -918
314 -43 20 -83 36 -88 36 -6 0 -1 -13 10 -28z"/>
    <path d="M9505 5408 c-228 -105 -527 -205 -917 -308 -106 -29 -203 -55 -214
-60 -16 -6 -88 -142 -262 -492 -133 -266 -316 -624 -407 -797 -91 -172 -165
-322 -165 -332 0 -25 427 -488 457 -495 12 -3 201 -4 420 -1 382 4 407 6 607
36 404 60 451 111 516 561 41 287 51 445 57 904 l6 449 72 108 c70 104 125
217 140 288 l7 35 -28 -19 c-348 -230 -564 -310 -1002 -369 -260 -36 -308 -40
-316 -27 -4 7 1 11 12 11 27 0 361 92 490 135 232 77 437 197 594 345 100 95
89 99 -67 28z"/>
    <path d="M4930 5283 c-141 -4 -594 -23 -675 -28 -656 -46 -1316 -118 -1351
-146 -9 -7 -3 -43 22 -136 18 -69 36 -128 39 -131 7 -8 43 -6 530 28 231 16
535 35 675 42 343 17 1808 17 2195 0 415 -18 990 -53 1108 -68 31 -4 53 -2 62
6 16 13 85 216 85 249 0 23 2 23 -230 56 -312 44 -703 82 -1025 100 -60 3
-144 8 -185 11 -259 17 -922 26 -1250 17z"/>
    <path d="M3120 4484 c0 -22 65 -154 78 -159 51 -20 449 -48 902 -65 762 -28
951 -31 1350 -25 400 6 1463 45 1723 64 115 8 120 10 151 40 18 18 44 55 57
82 20 43 21 52 9 60 -9 6 -155 6 -380 2 -473 -10 -3080 -10 -3537 0 -194 4
-353 5 -353 1z"/>
    <path d="M3340 3934 c125 -211 197 -291 305 -344 91 -45 189 -57 575 -76 409
-20 1561 -22 1865 -4 99 6 281 15 405 20 322 14 403 38 515 156 59 62 161 213
172 254 5 20 3 21 -53 15 -188 -19 -570 -27 -1484 -32 -1231 -7 -2109 10
-2289 43 l-34 7 23 -39z"/>
    <path d="M3225 3090 c-110 -89 -201 -165 -203 -169 -6 -18 4437 -30 4465 -13
8 5 -12 26 -60 62 -39 30 -126 99 -193 152 -67 53 -136 104 -153 113 -29 15
-58 15 -309 5 -420 -17 -2046 -24 -2522 -11 -223 6 -499 14 -615 17 l-210 6
-200 -162z"/>
  </g>
</svg>
