<svg xmlns="http://www.w3.org/2000/svg" viewBox="0 0 32 32" role="img" aria-label="LUXCAR">
  <title>LUXCAR</title>
  <defs>
    <linearGradient id="gold" x1="4" y1="8" x2="28" y2="24" gradientUnits="userSpaceOnUse">
      <stop offset="0%" stop-color="#F0E0B8"/>
      <stop offset="45%" stop-color="#C6A768"/>
      <stop offset="100%" stop-color="#8A6F3A"/>
    </linearGradient>
  </defs>
  <path
    fill="url(#gold)"
    d="M3.5 19.2c0-1.1.6-2 1.6-2.3l3-.9 1.4-4.1c.5-1.4 1.8-2.4 3.3-2.4h9.2c1.3 0 2.5.8 3 2l1.4 4.2 3.1 1c1.1.3 1.8 1.3 1.8 2.5v2.8H3.5v-2.8zm2.4 3.2a2.4 2.4 0 1 0 0 4.8 2.4 2.4 0 0 0 0-4.8zm18.8 0a2.4 2.4 0 1 0 0 4.8 2.4 2.4 0 0 0 0-4.8zM9.8 11.8h7.8l1.2-2.1c.3-.5.8-.8 1.4-.8h2.1l-1.8 3.6-1.1 2.1H11.3l-1.5-2.8z"
  />
</svg>
