<svg xmlns="http://www.w3.org/2000/svg" viewBox="74.00 64.00 748.80 662.00">

<path d="M 285.23 527.08 L 280.48 540.00 L 277.09 528.89 L 285.23 527.08 Z" fill="#243771" stroke="#243771" stroke-width="1.2" stroke-linejoin="round"/>
<path d="M 475.98 381.86 L 446.01 355.51 L 471.07 342.32 L 475.98 381.86 Z" fill="#4579a9" stroke="#4579a9" stroke-width="1.2" stroke-linejoin="round"/>
<path d="M 277.09 499.89 L 280.54 504.63 L 277.09 514.39 L 277.09 499.89 Z" fill="#2a4078" stroke="#2a4078" stroke-width="1.2" stroke-linejoin="round"/>
<path d="M 285.23 527.08 L 277.09 528.89 L 277.09 514.39 L 285.23 527.08 Z" fill="#263a73" stroke="#263a73" stroke-width="1.2" stroke-linejoin="round"/>
<path d="M 280.54 504.63 L 285.23 527.08 L 277.09 514.39 L 280.54 504.63 Z" fill="#283d75" stroke="#283d75" stroke-width="1.2" stroke-linejoin="round"/>
<path d="M 309.28 479.40 L 308.47 509.74 L 280.54 504.63 L 309.28 479.40 Z" fill="#2d457d" stroke="#2d457d" stroke-width="1.2" stroke-linejoin="round"/>
<path d="M 280.54 504.63 L 308.47 509.74 L 285.23 527.08 L 280.54 504.63 Z" fill="#293f77" stroke="#293f77" stroke-width="1.2" stroke-linejoin="round"/>
<path d="M 285.23 527.08 L 294.98 540.00 L 280.48 540.00 L 285.23 527.08 Z" fill="#243771" stroke="#243771" stroke-width="1.2" stroke-linejoin="round"/>
<path d="M 556.68 529.50 L 573.65 530.18 L 569.64 540.00 L 556.68 529.50 Z" fill="#395a9d" stroke="#395a9d" stroke-width="1.2" stroke-linejoin="round"/>
<path d="M 592.25 461.36 L 581.98 448.76 L 584.95 448.84 L 587.53 453.25 L 592.25 461.36 Z" fill="#3d6ba7" stroke="#3d6ba7" stroke-width="1.2" stroke-linejoin="round"/>
<path d="M 581.98 448.76 L 592.25 461.36 L 578.06 475.75 L 581.98 448.76 Z" fill="#3d69a6" stroke="#3d69a6" stroke-width="1.2" stroke-linejoin="round"/>
<path d="M 475.98 381.86 L 471.07 342.32 L 499.95 347.59 L 475.98 381.86 Z" fill="#457aaa" stroke="#457aaa" stroke-width="1.2" stroke-linejoin="round"/>
<path d="M 500.30 322.22 L 499.95 347.59 L 478.64 327.99 L 500.30 322.22 Z" fill="#4780ae" stroke="#4780ae" stroke-width="1.2" stroke-linejoin="round"/>
<path d="M 471.07 342.32 L 478.64 327.99 L 499.95 347.59 L 471.07 342.32 Z" fill="#467ead" stroke="#467ead" stroke-width="1.2" stroke-linejoin="round"/>
<path d="M 568.34 342.37 L 561.07 346.41 L 555.45 348.98 L 568.34 342.37 Z" fill="#417bad" stroke="#417bad" stroke-width="1.2" stroke-linejoin="round"/>
<path d="M 542.27 398.05 L 533.19 434.96 L 520.68 396.61 L 542.27 398.05 Z" fill="#3f70a6" stroke="#3f70a6" stroke-width="1.2" stroke-linejoin="round"/>
<path d="M 499.55 427.05 L 520.68 396.61 L 533.19 434.96 L 499.55 427.05 Z" fill="#3e6da4" stroke="#3e6da4" stroke-width="1.2" stroke-linejoin="round"/>
<path d="M 307.83 168.11 L 332.07 163.09 L 308.08 191.80 L 307.83 168.11 Z" fill="#72b2d2" stroke="#72b2d2" stroke-width="1.2" stroke-linejoin="round"/>
<path d="M 303.06 145.76 L 332.07 163.09 L 307.83 168.11 L 303.06 145.76 Z" fill="#76b7d6" stroke="#76b7d6" stroke-width="1.2" stroke-linejoin="round"/>
<path d="M 303.06 145.76 L 342.77 132.71 L 332.07 163.09 L 303.06 145.76 Z" fill="#76bad8" stroke="#76bad8" stroke-width="1.2" stroke-linejoin="round"/>
<path d="M 303.06 145.76 L 319.48 120.00 L 342.77 132.71 L 303.06 145.76 Z" fill="#7abfdc" stroke="#7abfdc" stroke-width="1.2" stroke-linejoin="round"/>
<path d="M 358.33 197.39 L 338.58 198.54 L 332.07 163.09 L 358.33 197.39 Z" fill="#6caccd" stroke="#6caccd" stroke-width="1.2" stroke-linejoin="round"/>
<path d="M 308.08 191.80 L 332.07 163.09 L 338.58 198.54 L 308.08 191.80 Z" fill="#6faece" stroke="#6faece" stroke-width="1.2" stroke-linejoin="round"/>
<path d="M 542.11 238.15 L 532.28 225.55 L 547.15 221.20 L 542.11 238.15 Z" fill="#4a96bb" stroke="#4a96bb" stroke-width="1.2" stroke-linejoin="round"/>
<path d="M 291.41 471.76 L 309.28 479.40 L 277.09 485.40 L 291.41 471.76 Z" fill="#314b81" stroke="#314b81" stroke-width="1.2" stroke-linejoin="round"/>
<path d="M 309.28 479.40 L 280.54 504.63 L 277.09 485.40 L 309.28 479.40 Z" fill="#2e477e" stroke="#2e477e" stroke-width="1.2" stroke-linejoin="round"/>
<path d="M 277.09 485.40 L 280.54 504.63 L 277.09 499.89 L 277.09 485.40 Z" fill="#2c437a" stroke="#2c437a" stroke-width="1.2" stroke-linejoin="round"/>
<path d="M 490.67 501.90 L 490.63 500.13 L 497.66 514.60 L 493.05 506.23 L 490.67 501.90 Z" fill="#365896" stroke="#365896" stroke-width="1.2" stroke-linejoin="round"/>
<path d="M 490.67 501.90 L 483.68 489.20 L 490.63 500.13 L 490.67 501.90 Z" fill="#375996" stroke="#375996" stroke-width="1.2" stroke-linejoin="round"/>
<path d="M 491.68 478.24 L 490.63 500.13 L 483.68 489.20 L 491.68 478.24 Z" fill="#375b97" stroke="#375b97" stroke-width="1.2" stroke-linejoin="round"/>
<path d="M 446.01 355.51 L 439.35 317.36 L 471.07 342.32 L 446.01 355.51 Z" fill="#487eac" stroke="#487eac" stroke-width="1.2" stroke-linejoin="round"/>
<path d="M 446.01 355.51 L 417.22 330.82 L 439.35 317.36 L 446.01 355.51 Z" fill="#4a7eac" stroke="#4a7eac" stroke-width="1.2" stroke-linejoin="round"/>
<path d="M 471.07 342.32 L 439.35 317.36 L 478.64 327.99 L 471.07 342.32 Z" fill="#4980ae" stroke="#4980ae" stroke-width="1.2" stroke-linejoin="round"/>
<path d="M 424.54 297.98 L 439.35 317.36 L 417.22 330.82 L 424.54 297.98 Z" fill="#4d84af" stroke="#4d84af" stroke-width="1.2" stroke-linejoin="round"/>
<path d="M 466.44 289.78 L 478.64 327.99 L 439.35 317.36 L 466.44 289.78 Z" fill="#4b85b1" stroke="#4b85b1" stroke-width="1.2" stroke-linejoin="round"/>
<path d="M 341.67 531.25 L 339.37 512.57 L 364.02 505.62 L 341.67 531.25 Z" fill="#2c447f" stroke="#2c447f" stroke-width="1.2" stroke-linejoin="round"/>
<path d="M 475.98 381.86 L 443.17 377.23 L 446.01 355.51 L 475.98 381.86 Z" fill="#4475a7" stroke="#4475a7" stroke-width="1.2" stroke-linejoin="round"/>
<path d="M 362.74 408.98 L 389.10 402.16 L 389.10 416.66 L 362.74 408.98 Z" fill="#40689b" stroke="#40689b" stroke-width="1.2" stroke-linejoin="round"/>
<path d="M 549.53 476.71 L 578.06 475.75 L 572.31 504.92 L 549.53 476.71 Z" fill="#3b63a2" stroke="#3b63a2" stroke-width="1.2" stroke-linejoin="round"/>
<path d="M 573.65 530.18 L 556.68 529.50 L 572.31 504.92 L 573.65 530.18 Z" fill="#395d9e" stroke="#395d9e" stroke-width="1.2" stroke-linejoin="round"/>
<path d="M 573.65 530.18 L 572.31 504.92 L 601.68 502.67 L 573.65 530.18 Z" fill="#3b60a1" stroke="#3b60a1" stroke-width="1.2" stroke-linejoin="round"/>
<path d="M 578.06 475.75 L 601.68 502.67 L 572.31 504.92 L 578.06 475.75 Z" fill="#3b63a3" stroke="#3b63a3" stroke-width="1.2" stroke-linejoin="round"/>
<path d="M 599.55 473.89 L 578.06 475.75 L 592.25 461.36 L 596.30 468.30 L 599.55 473.89 Z" fill="#3c68a6" stroke="#3c68a6" stroke-width="1.2" stroke-linejoin="round"/>
<path d="M 628.76 523.99 L 629.94 526.01 L 636.06 536.51 L 627.63 540.00 L 628.76 523.99 Z" fill="#3d62a7" stroke="#3d62a7" stroke-width="1.2" stroke-linejoin="round"/>
<path d="M 581.98 448.76 L 577.65 436.31 L 584.95 448.84 L 581.98 448.76 Z" fill="#3d6ca7" stroke="#3d6ca7" stroke-width="1.2" stroke-linejoin="round"/>
<path d="M 563.05 411.26 L 542.27 398.05 L 555.75 398.74 L 563.05 411.26 Z" fill="#3f73a8" stroke="#3f73a8" stroke-width="1.2" stroke-linejoin="round"/>
<path d="M 555.75 398.74 L 542.27 398.05 L 548.45 386.21 L 552.97 393.97 L 555.75 398.74 Z" fill="#4074a9" stroke="#4074a9" stroke-width="1.2" stroke-linejoin="round"/>
<path d="M 500.30 322.22 L 521.47 295.68 L 525.16 315.13 L 500.30 322.22 Z" fill="#4785b1" stroke="#4785b1" stroke-width="1.2" stroke-linejoin="round"/>
<path d="M 500.30 322.22 L 498.62 290.42 L 521.47 295.68 L 500.30 322.22 Z" fill="#4887b2" stroke="#4887b2" stroke-width="1.2" stroke-linejoin="round"/>
<path d="M 500.30 322.22 L 478.64 327.99 L 498.62 290.42 L 500.30 322.22 Z" fill="#4884b1" stroke="#4884b1" stroke-width="1.2" stroke-linejoin="round"/>
<path d="M 515.92 370.53 L 499.95 347.59 L 525.56 344.82 L 515.92 370.53 Z" fill="#447bac" stroke="#447bac" stroke-width="1.2" stroke-linejoin="round"/>
<path d="M 547.14 326.71 L 525.56 344.82 L 525.16 315.13 L 547.14 326.71 Z" fill="#4481af" stroke="#4481af" stroke-width="1.2" stroke-linejoin="round"/>
<path d="M 500.30 322.22 L 525.56 344.82 L 499.95 347.59 L 500.30 322.22 Z" fill="#457fae" stroke="#457fae" stroke-width="1.2" stroke-linejoin="round"/>
<path d="M 500.30 322.22 L 525.16 315.13 L 525.56 344.82 L 500.30 322.22 Z" fill="#4681af" stroke="#4681af" stroke-width="1.2" stroke-linejoin="round"/>
<path d="M 520.68 396.61 L 515.92 370.53 L 541.15 373.69 L 541.15 373.69 L 520.68 396.61 Z" fill="#4176a9" stroke="#4176a9" stroke-width="1.2" stroke-linejoin="round"/>
<path d="M 548.45 386.21 L 542.27 398.05 L 541.15 373.69 L 547.31 384.27 L 548.45 386.21 Z" fill="#4075aa" stroke="#4075aa" stroke-width="1.2" stroke-linejoin="round"/>
<path d="M 542.27 398.05 L 520.68 396.61 L 541.15 373.69 L 542.27 398.05 Z" fill="#4074a9" stroke="#4074a9" stroke-width="1.2" stroke-linejoin="round"/>
<path d="M 515.92 370.53 L 520.68 396.61 L 506.29 382.38 L 515.92 370.53 Z" fill="#4175a8" stroke="#4175a8" stroke-width="1.2" stroke-linejoin="round"/>
<path d="M 475.98 381.86 L 499.95 347.59 L 506.29 382.38 L 475.98 381.86 Z" fill="#4377a9" stroke="#4377a9" stroke-width="1.2" stroke-linejoin="round"/>
<path d="M 515.92 370.53 L 506.29 382.38 L 499.95 347.59 L 515.92 370.53 Z" fill="#4378aa" stroke="#4378aa" stroke-width="1.2" stroke-linejoin="round"/>
<path d="M 548.10 428.78 L 542.27 398.05 L 563.05 411.26 L 548.10 428.78 Z" fill="#3f70a7" stroke="#3f70a7" stroke-width="1.2" stroke-linejoin="round"/>
<path d="M 542.27 398.05 L 548.10 428.78 L 533.19 434.96 L 542.27 398.05 Z" fill="#3e6ea6" stroke="#3e6ea6" stroke-width="1.2" stroke-linejoin="round"/>
<path d="M 548.10 428.78 L 563.05 411.26 L 566.01 416.34 L 570.35 423.79 L 548.10 428.78 Z" fill="#3e6fa7" stroke="#3e6fa7" stroke-width="1.2" stroke-linejoin="round"/>
<path d="M 548.10 428.78 L 570.35 423.79 L 571.72 426.13 L 577.65 436.31 L 548.10 428.78 Z" fill="#3e6ea7" stroke="#3e6ea7" stroke-width="1.2" stroke-linejoin="round"/>
<path d="M 292.91 138.07 L 277.09 137.45 L 277.09 122.96 L 292.91 138.07 Z" fill="#81c3e0" stroke="#81c3e0" stroke-width="1.2" stroke-linejoin="round"/>
<path d="M 303.06 145.76 L 292.91 138.07 L 319.48 120.00 L 303.06 145.76 Z" fill="#7dc0dd" stroke="#7dc0dd" stroke-width="1.2" stroke-linejoin="round"/>
<path d="M 307.83 168.11 L 308.08 191.80 L 277.09 180.95 L 307.83 168.11 Z" fill="#74b1d1" stroke="#74b1d1" stroke-width="1.2" stroke-linejoin="round"/>
<path d="M 277.09 166.45 L 307.83 168.11 L 277.09 180.95 L 277.09 166.45 Z" fill="#78b5d4" stroke="#78b5d4" stroke-width="1.2" stroke-linejoin="round"/>
<path d="M 283.24 251.20 L 280.41 267.58 L 277.09 253.43 L 283.24 251.20 Z" fill="#6597bd" stroke="#6597bd" stroke-width="1.2" stroke-linejoin="round"/>
<path d="M 277.09 238.94 L 283.24 251.20 L 277.09 253.43 L 277.09 238.94 Z" fill="#679bc0" stroke="#679bc0" stroke-width="1.2" stroke-linejoin="round"/>
<path d="M 310.68 299.48 L 311.23 330.37 L 277.09 311.42 L 310.68 299.48 Z" fill="#5684ae" stroke="#5684ae" stroke-width="1.2" stroke-linejoin="round"/>
<path d="M 341.72 297.37 L 345.33 316.92 L 310.68 299.48 L 341.72 297.37 Z" fill="#5687b1" stroke="#5687b1" stroke-width="1.2" stroke-linejoin="round"/>
<path d="M 311.23 330.37 L 310.68 299.48 L 345.33 316.92 L 311.23 330.37 Z" fill="#5483ae" stroke="#5483ae" stroke-width="1.2" stroke-linejoin="round"/>
<path d="M 359.04 370.81 L 385.62 353.61 L 389.10 373.17 L 359.04 370.81 Z" fill="#4874a4" stroke="#4874a4" stroke-width="1.2" stroke-linejoin="round"/>
<path d="M 367.02 349.34 L 385.62 353.61 L 359.04 370.81 L 367.02 349.34 Z" fill="#4977a5" stroke="#4977a5" stroke-width="1.2" stroke-linejoin="round"/>
<path d="M 277.09 470.90 L 291.41 471.76 L 277.09 485.40 L 277.09 470.90 Z" fill="#314b81" stroke="#314b81" stroke-width="1.2" stroke-linejoin="round"/>
<path d="M 476.68 476.50 L 491.68 478.24 L 483.68 489.20 L 479.57 481.74 L 476.68 476.50 Z" fill="#385c98" stroke="#385c98" stroke-width="1.2" stroke-linejoin="round"/>
<path d="M 338.47 540.00 L 341.67 531.25 L 352.97 540.00 L 338.47 540.00 Z" fill="#283d7a" stroke="#283d7a" stroke-width="1.2" stroke-linejoin="round"/>
<path d="M 323.97 540.00 L 341.67 531.25 L 338.47 540.00 L 323.97 540.00 Z" fill="#273c78" stroke="#273c78" stroke-width="1.2" stroke-linejoin="round"/>
<path d="M 466.44 289.78 L 448.36 287.12 L 458.62 287.12 L 462.40 287.06 L 463.17 287.01 L 466.44 289.78 Z" fill="#4e8bb4" stroke="#4e8bb4" stroke-width="1.2" stroke-linejoin="round"/>
<path d="M 466.44 289.78 L 440.01 298.62 L 448.36 287.12 L 466.44 289.78 Z" fill="#4e8ab4" stroke="#4e8ab4" stroke-width="1.2" stroke-linejoin="round"/>
<path d="M 466.44 289.78 L 439.35 317.36 L 440.01 298.62 L 466.44 289.78 Z" fill="#4d87b2" stroke="#4d87b2" stroke-width="1.2" stroke-linejoin="round"/>
<path d="M 440.01 298.62 L 433.54 287.12 L 448.36 287.12 L 440.01 298.62 Z" fill="#4f8ab4" stroke="#4f8ab4" stroke-width="1.2" stroke-linejoin="round"/>
<path d="M 440.01 298.62 L 424.54 297.98 L 433.54 287.12 L 440.01 298.62 Z" fill="#4f89b3" stroke="#4f89b3" stroke-width="1.2" stroke-linejoin="round"/>
<path d="M 424.54 297.98 L 440.01 298.62 L 439.35 317.36 L 424.54 297.98 Z" fill="#4e86b1" stroke="#4e86b1" stroke-width="1.2" stroke-linejoin="round"/>
<path d="M 372.01 525.65 L 381.96 540.00 L 367.46 540.00 L 372.01 525.65 Z" fill="#2a427f" stroke="#2a427f" stroke-width="1.2" stroke-linejoin="round"/>
<path d="M 372.01 525.65 L 367.46 540.00 L 352.97 540.00 L 372.01 525.65 Z" fill="#2a417d" stroke="#2a417d" stroke-width="1.2" stroke-linejoin="round"/>
<path d="M 341.67 531.25 L 372.01 525.65 L 352.97 540.00 L 341.67 531.25 Z" fill="#2a407c" stroke="#2a407c" stroke-width="1.2" stroke-linejoin="round"/>
<path d="M 341.67 531.25 L 364.02 505.62 L 372.01 525.65 L 341.67 531.25 Z" fill="#2c4480" stroke="#2c4480" stroke-width="1.2" stroke-linejoin="round"/>
<path d="M 389.10 503.64 L 364.02 505.62 L 389.10 489.15 L 389.10 503.64 Z" fill="#314d87" stroke="#314d87" stroke-width="1.2" stroke-linejoin="round"/>
<path d="M 389.10 518.14 L 364.02 505.62 L 389.10 503.64 L 389.10 518.14 Z" fill="#2f4a85" stroke="#2f4a85" stroke-width="1.2" stroke-linejoin="round"/>
<path d="M 372.01 525.65 L 364.02 505.62 L 389.10 518.14 L 372.01 525.65 Z" fill="#2e4783" stroke="#2e4783" stroke-width="1.2" stroke-linejoin="round"/>
<path d="M 359.20 484.62 L 389.10 474.65 L 389.10 489.15 L 359.20 484.62 Z" fill="#34528b" stroke="#34528b" stroke-width="1.2" stroke-linejoin="round"/>
<path d="M 364.02 505.62 L 359.20 484.62 L 389.10 489.15 L 364.02 505.62 Z" fill="#314e87" stroke="#314e87" stroke-width="1.2" stroke-linejoin="round"/>
<path d="M 359.20 484.62 L 389.10 460.15 L 389.10 474.65 L 359.20 484.62 Z" fill="#35558d" stroke="#35558d" stroke-width="1.2" stroke-linejoin="round"/>
<path d="M 364.02 505.62 L 339.37 512.57 L 359.20 484.62 L 364.02 505.62 Z" fill="#2f4a83" stroke="#2f4a83" stroke-width="1.2" stroke-linejoin="round"/>
<path d="M 308.47 509.74 L 339.37 512.57 L 313.74 529.77 L 308.47 509.74 Z" fill="#2a417b" stroke="#2a417b" stroke-width="1.2" stroke-linejoin="round"/>
<path d="M 313.74 529.77 L 323.97 540.00 L 309.47 540.00 L 313.74 529.77 Z" fill="#263a75" stroke="#263a75" stroke-width="1.2" stroke-linejoin="round"/>
<path d="M 313.74 529.77 L 341.67 531.25 L 323.97 540.00 L 313.74 529.77 Z" fill="#273c78" stroke="#273c78" stroke-width="1.2" stroke-linejoin="round"/>
<path d="M 341.67 531.25 L 313.74 529.77 L 339.37 512.57 L 341.67 531.25 Z" fill="#29407b" stroke="#29407b" stroke-width="1.2" stroke-linejoin="round"/>
<path d="M 313.74 529.77 L 309.47 540.00 L 294.98 540.00 L 313.74 529.77 Z" fill="#253974" stroke="#253974" stroke-width="1.2" stroke-linejoin="round"/>
<path d="M 285.23 527.08 L 308.47 509.74 L 313.74 529.77 L 285.23 527.08 Z" fill="#283d77" stroke="#283d77" stroke-width="1.2" stroke-linejoin="round"/>
<path d="M 285.23 527.08 L 313.74 529.77 L 294.98 540.00 L 285.23 527.08 Z" fill="#253973" stroke="#253973" stroke-width="1.2" stroke-linejoin="round"/>
<path d="M 309.28 479.40 L 329.91 484.23 L 308.47 509.74 L 309.28 479.40 Z" fill="#2f4981" stroke="#2f4981" stroke-width="1.2" stroke-linejoin="round"/>
<path d="M 308.47 509.74 L 329.91 484.23 L 339.37 512.57 L 308.47 509.74 Z" fill="#2e477f" stroke="#2e477f" stroke-width="1.2" stroke-linejoin="round"/>
<path d="M 339.37 512.57 L 329.91 484.23 L 359.20 484.62 L 339.37 512.57 Z" fill="#304b84" stroke="#304b84" stroke-width="1.2" stroke-linejoin="round"/>
<path d="M 309.28 479.40 L 331.35 460.02 L 329.91 484.23 L 309.28 479.40 Z" fill="#334f86" stroke="#334f86" stroke-width="1.2" stroke-linejoin="round"/>
<path d="M 331.35 460.02 L 359.20 484.62 L 329.91 484.23 L 331.35 460.02 Z" fill="#335087" stroke="#335087" stroke-width="1.2" stroke-linejoin="round"/>
<path d="M 475.98 381.86 L 474.02 401.63 L 443.17 377.23 L 475.98 381.86 Z" fill="#4272a5" stroke="#4272a5" stroke-width="1.2" stroke-linejoin="round"/>
<path d="M 499.55 427.05 L 474.10 427.86 L 474.02 401.63 L 499.55 427.05 Z" fill="#3e6ba1" stroke="#3e6ba1" stroke-width="1.2" stroke-linejoin="round"/>
<path d="M 446.01 355.51 L 423.54 356.58 L 417.22 330.82 L 446.01 355.51 Z" fill="#487baa" stroke="#487baa" stroke-width="1.2" stroke-linejoin="round"/>
<path d="M 385.62 353.61 L 396.79 366.36 L 389.10 366.36 L 389.10 373.17 L 385.62 353.61 Z" fill="#4775a5" stroke="#4775a5" stroke-width="1.2" stroke-linejoin="round"/>
<path d="M 332.00 392.83 L 362.74 408.98 L 330.94 425.94 L 332.00 392.83 Z" fill="#406698" stroke="#406698" stroke-width="1.2" stroke-linejoin="round"/>
<path d="M 569.64 540.00 L 573.65 530.18 L 584.14 540.00 L 569.64 540.00 Z" fill="#395b9e" stroke="#395b9e" stroke-width="1.2" stroke-linejoin="round"/>
<path d="M 556.68 529.50 L 569.64 540.00 L 555.14 540.00 L 556.68 529.50 Z" fill="#38599c" stroke="#38599c" stroke-width="1.2" stroke-linejoin="round"/>
<path d="M 540.64 540.00 L 556.68 529.50 L 555.14 540.00 L 540.64 540.00 Z" fill="#37589a" stroke="#37589a" stroke-width="1.2" stroke-linejoin="round"/>
<path d="M 504.66 527.30 L 528.65 529.86 L 511.65 540.00 L 504.66 527.30 Z" fill="#355495" stroke="#355495" stroke-width="1.2" stroke-linejoin="round"/>
<path d="M 528.65 529.86 L 556.68 529.50 L 540.64 540.00 L 528.65 529.86 Z" fill="#375799" stroke="#375799" stroke-width="1.2" stroke-linejoin="round"/>
<path d="M 578.06 475.75 L 606.85 486.41 L 601.68 502.67 L 578.06 475.75 Z" fill="#3c66a5" stroke="#3c66a5" stroke-width="1.2" stroke-linejoin="round"/>
<path d="M 606.85 486.41 L 578.06 475.75 L 599.55 473.89 L 605.92 484.81 L 606.85 486.41 Z" fill="#3c67a6" stroke="#3c67a6" stroke-width="1.2" stroke-linejoin="round"/>
<path d="M 573.65 530.18 L 601.68 502.67 L 610.59 522.52 L 573.65 530.18 Z" fill="#3b60a3" stroke="#3b60a3" stroke-width="1.2" stroke-linejoin="round"/>
<path d="M 610.59 522.52 L 598.63 540.00 L 584.14 540.00 L 610.59 522.52 Z" fill="#3b5ea2" stroke="#3b5ea2" stroke-width="1.2" stroke-linejoin="round"/>
<path d="M 573.65 530.18 L 610.59 522.52 L 584.14 540.00 L 573.65 530.18 Z" fill="#3b5da1" stroke="#3b5da1" stroke-width="1.2" stroke-linejoin="round"/>
<path d="M 544.62 263.79 L 516.13 270.08 L 513.12 260.81 L 544.62 263.79 Z" fill="#4a8fb7" stroke="#4a8fb7" stroke-width="1.2" stroke-linejoin="round"/>
<path d="M 521.47 295.68 L 516.13 270.08 L 544.62 263.79 L 521.47 295.68 Z" fill="#498cb6" stroke="#498cb6" stroke-width="1.2" stroke-linejoin="round"/>
<path d="M 585.84 199.24 L 602.26 200.14 L 596.45 213.30 L 585.84 199.24 Z" fill="#4498ba" stroke="#4498ba" stroke-width="1.2" stroke-linejoin="round"/>
<path d="M 542.11 238.15 L 547.15 221.20 L 570.01 248.79 L 542.11 238.15 Z" fill="#4894ba" stroke="#4894ba" stroke-width="1.2" stroke-linejoin="round"/>
<path d="M 574.69 271.83 L 570.01 248.79 L 609.35 245.08 L 574.69 271.83 Z" fill="#448fb7" stroke="#448fb7" stroke-width="1.2" stroke-linejoin="round"/>
<path d="M 596.45 213.30 L 609.35 245.08 L 570.01 248.79 L 596.45 213.30 Z" fill="#4492b8" stroke="#4492b8" stroke-width="1.2" stroke-linejoin="round"/>
<path d="M 542.11 238.15 L 570.01 248.79 L 544.62 263.79 L 542.11 238.15 Z" fill="#4891b8" stroke="#4891b8" stroke-width="1.2" stroke-linejoin="round"/>
<path d="M 574.69 271.83 L 544.62 263.79 L 570.01 248.79 L 574.69 271.83 Z" fill="#468eb7" stroke="#468eb7" stroke-width="1.2" stroke-linejoin="round"/>
<path d="M 568.34 342.37 L 547.14 326.71 L 574.04 320.80 L 568.34 342.37 Z" fill="#4381b0" stroke="#4381b0" stroke-width="1.2" stroke-linejoin="round"/>
<path d="M 521.47 295.68 L 544.62 263.79 L 555.51 299.01 L 521.47 295.68 Z" fill="#478ab4" stroke="#478ab4" stroke-width="1.2" stroke-linejoin="round"/>
<path d="M 574.69 271.83 L 580.88 296.53 L 555.51 299.01 L 574.69 271.83 Z" fill="#4489b4" stroke="#4489b4" stroke-width="1.2" stroke-linejoin="round"/>
<path d="M 574.69 271.83 L 555.51 299.01 L 544.62 263.79 L 574.69 271.83 Z" fill="#468bb5" stroke="#468bb5" stroke-width="1.2" stroke-linejoin="round"/>
<path d="M 547.14 326.71 L 525.16 315.13 L 555.51 299.01 L 547.14 326.71 Z" fill="#4584b1" stroke="#4584b1" stroke-width="1.2" stroke-linejoin="round"/>
<path d="M 521.47 295.68 L 555.51 299.01 L 525.16 315.13 L 521.47 295.68 Z" fill="#4686b2" stroke="#4686b2" stroke-width="1.2" stroke-linejoin="round"/>
<path d="M 547.14 326.71 L 555.51 299.01 L 574.04 320.80 L 547.14 326.71 Z" fill="#4484b1" stroke="#4484b1" stroke-width="1.2" stroke-linejoin="round"/>
<path d="M 580.88 296.53 L 574.04 320.80 L 555.51 299.01 L 580.88 296.53 Z" fill="#4386b3" stroke="#4386b3" stroke-width="1.2" stroke-linejoin="round"/>
<path d="M 547.14 326.71 L 553.05 345.42 L 525.56 344.82 L 547.14 326.71 Z" fill="#437faf" stroke="#437faf" stroke-width="1.2" stroke-linejoin="round"/>
<path d="M 568.34 342.37 L 553.05 345.42 L 547.14 326.71 L 568.34 342.37 Z" fill="#427faf" stroke="#427faf" stroke-width="1.2" stroke-linejoin="round"/>
<path d="M 553.05 345.42 L 568.34 342.37 L 555.45 348.98 L 555.45 348.98 L 553.05 345.42 Z" fill="#427eae" stroke="#427eae" stroke-width="1.2" stroke-linejoin="round"/>
<path d="M 499.55 427.05 L 500.73 395.71 L 520.68 396.61 L 499.55 427.05 Z" fill="#3f6fa5" stroke="#3f6fa5" stroke-width="1.2" stroke-linejoin="round"/>
<path d="M 520.68 396.61 L 500.73 395.71 L 506.29 382.38 L 520.68 396.61 Z" fill="#4173a7" stroke="#4173a7" stroke-width="1.2" stroke-linejoin="round"/>
<path d="M 499.55 427.05 L 474.02 401.63 L 500.73 395.71 L 499.55 427.05 Z" fill="#3f6ea3" stroke="#3f6ea3" stroke-width="1.2" stroke-linejoin="round"/>
<path d="M 475.98 381.86 L 506.29 382.38 L 500.73 395.71 L 475.98 381.86 Z" fill="#4173a6" stroke="#4173a6" stroke-width="1.2" stroke-linejoin="round"/>
<path d="M 475.98 381.86 L 500.73 395.71 L 474.02 401.63 L 475.98 381.86 Z" fill="#4171a5" stroke="#4171a5" stroke-width="1.2" stroke-linejoin="round"/>
<path d="M 581.98 448.76 L 545.54 455.95 L 577.65 436.31 L 577.65 436.31 L 581.98 448.76 Z" fill="#3d6ba5" stroke="#3d6ba5" stroke-width="1.2" stroke-linejoin="round"/>
<path d="M 545.54 455.95 L 548.10 428.78 L 577.65 436.31 L 577.65 436.31 L 545.54 455.95 Z" fill="#3d6ba5" stroke="#3d6ba5" stroke-width="1.2" stroke-linejoin="round"/>
<path d="M 581.98 448.76 L 578.06 475.75 L 545.54 455.95 L 581.98 448.76 Z" fill="#3c68a4" stroke="#3c68a4" stroke-width="1.2" stroke-linejoin="round"/>
<path d="M 549.53 476.71 L 545.54 455.95 L 578.06 475.75 L 549.53 476.71 Z" fill="#3b66a2" stroke="#3b66a2" stroke-width="1.2" stroke-linejoin="round"/>
<path d="M 533.19 434.96 L 548.10 428.78 L 545.54 455.95 L 533.19 434.96 Z" fill="#3d6aa4" stroke="#3d6aa4" stroke-width="1.2" stroke-linejoin="round"/>
<path d="M 549.53 476.71 L 532.14 474.02 L 545.54 455.95 L 549.53 476.71 Z" fill="#3b64a0" stroke="#3b64a0" stroke-width="1.2" stroke-linejoin="round"/>
<path d="M 499.55 427.05 L 533.19 434.96 L 517.84 452.20 L 499.55 427.05 Z" fill="#3d69a1" stroke="#3d69a1" stroke-width="1.2" stroke-linejoin="round"/>
<path d="M 491.68 478.24 L 517.84 452.20 L 532.14 474.02 L 491.68 478.24 Z" fill="#3a629d" stroke="#3a629d" stroke-width="1.2" stroke-linejoin="round"/>
<path d="M 533.19 434.96 L 545.54 455.95 L 517.84 452.20 L 533.19 434.96 Z" fill="#3c68a2" stroke="#3c68a2" stroke-width="1.2" stroke-linejoin="round"/>
<path d="M 532.14 474.02 L 517.84 452.20 L 545.54 455.95 L 532.14 474.02 Z" fill="#3b65a0" stroke="#3b65a0" stroke-width="1.2" stroke-linejoin="round"/>
<path d="M 607.70 139.70 L 598.31 136.07 L 598.39 128.60 L 607.70 139.70 Z" fill="#45a3bf" stroke="#45a3bf" stroke-width="1.2" stroke-linejoin="round"/>
<path d="M 542.11 238.15 L 544.62 263.79 L 518.24 246.96 L 542.11 238.15 Z" fill="#4a92b9" stroke="#4a92b9" stroke-width="1.2" stroke-linejoin="round"/>
<path d="M 518.24 246.96 L 544.62 263.79 L 513.12 260.81 L 515.26 256.44 L 517.19 251.10 L 518.24 246.96 L 518.24 246.96 Z" fill="#4a90b8" stroke="#4a90b8" stroke-width="1.2" stroke-linejoin="round"/>
<path d="M 542.11 238.15 L 522.78 236.42 L 532.28 225.55 L 542.11 238.15 Z" fill="#4b95bb" stroke="#4b95bb" stroke-width="1.2" stroke-linejoin="round"/>
<path d="M 520.10 232.29 L 532.28 225.55 L 522.78 236.42 L 520.10 232.29 L 520.10 232.29 Z" fill="#4c96bb" stroke="#4c96bb" stroke-width="1.2" stroke-linejoin="round"/>
<path d="M 542.11 238.15 L 518.24 246.96 L 522.78 236.42 L 542.11 238.15 Z" fill="#4b94ba" stroke="#4b94ba" stroke-width="1.2" stroke-linejoin="round"/>
<path d="M 522.78 236.42 L 518.24 246.96 L 518.24 246.96 L 518.64 245.38 L 519.60 239.27 L 520.09 232.77 L 520.10 232.29 L 522.78 236.42 Z" fill="#4c95ba" stroke="#4c95ba" stroke-width="1.2" stroke-linejoin="round"/>
<path d="M 314.43 86.51 L 319.48 120.00 L 291.58 108.99 L 314.43 86.51 Z" fill="#83cae4" stroke="#83cae4" stroke-width="1.2" stroke-linejoin="round"/>
<path d="M 291.58 108.99 L 292.91 138.07 L 277.09 122.96 L 291.58 108.99 Z" fill="#83c6e2" stroke="#83c6e2" stroke-width="1.2" stroke-linejoin="round"/>
<path d="M 319.48 120.00 L 292.91 138.07 L 291.58 108.99 L 319.48 120.00 Z" fill="#80c5e0" stroke="#80c5e0" stroke-width="1.2" stroke-linejoin="round"/>
<path d="M 292.91 138.07 L 277.09 151.95 L 277.09 137.45 L 292.91 138.07 Z" fill="#7fc0dd" stroke="#7fc0dd" stroke-width="1.2" stroke-linejoin="round"/>
<path d="M 321.12 80.00 L 314.43 86.51 L 306.62 80.00 L 321.12 80.00 Z" fill="#86d1e9" stroke="#86d1e9" stroke-width="1.2" stroke-linejoin="round"/>
<path d="M 314.43 86.51 L 291.58 108.99 L 306.62 80.00 L 314.43 86.51 Z" fill="#86cfe8" stroke="#86cfe8" stroke-width="1.2" stroke-linejoin="round"/>
<path d="M 291.58 108.99 L 292.13 80.00 L 306.62 80.00 L 291.58 108.99 Z" fill="#88d0ea" stroke="#88d0ea" stroke-width="1.2" stroke-linejoin="round"/>
<path d="M 330.23 89.40 L 314.43 86.51 L 321.12 80.00 L 330.23 89.40 Z" fill="#84cfe8" stroke="#84cfe8" stroke-width="1.2" stroke-linejoin="round"/>
<path d="M 314.43 86.51 L 330.23 89.40 L 319.48 120.00 L 314.43 86.51 Z" fill="#81cae4" stroke="#81cae4" stroke-width="1.2" stroke-linejoin="round"/>
<path d="M 368.64 95.32 L 364.61 80.00 L 379.11 80.00 L 368.64 95.32 Z" fill="#79c9e1" stroke="#79c9e1" stroke-width="1.2" stroke-linejoin="round"/>
<path d="M 342.77 132.71 L 370.86 118.92 L 361.41 148.94 L 342.77 132.71 Z" fill="#73bbd8" stroke="#73bbd8" stroke-width="1.2" stroke-linejoin="round"/>
<path d="M 342.77 132.71 L 361.41 148.94 L 332.07 163.09 L 342.77 132.71 Z" fill="#73b8d6" stroke="#73b8d6" stroke-width="1.2" stroke-linejoin="round"/>
<path d="M 419.75 147.28 L 413.55 109.83 L 440.56 106.44 L 419.75 147.28 Z" fill="#68b8d3" stroke="#68b8d3" stroke-width="1.2" stroke-linejoin="round"/>
<path d="M 419.75 147.28 L 440.56 106.44 L 447.98 149.00 L 419.75 147.28 Z" fill="#64b3d0" stroke="#64b3d0" stroke-width="1.2" stroke-linejoin="round"/>
<path d="M 280.41 267.58 L 277.09 267.93 L 277.09 253.43 L 280.41 267.58 Z" fill="#6496bc" stroke="#6496bc" stroke-width="1.2" stroke-linejoin="round"/>
<path d="M 280.41 267.58 L 277.09 282.43 L 277.09 267.93 L 280.41 267.58 Z" fill="#6192b9" stroke="#6192b9" stroke-width="1.2" stroke-linejoin="round"/>
<path d="M 285.12 214.07 L 277.09 224.44 L 277.09 209.94 L 285.12 214.07 Z" fill="#6ea6c9" stroke="#6ea6c9" stroke-width="1.2" stroke-linejoin="round"/>
<path d="M 308.08 191.80 L 285.12 214.07 L 280.82 198.08 L 308.08 191.80 Z" fill="#70aacc" stroke="#70aacc" stroke-width="1.2" stroke-linejoin="round"/>
<path d="M 280.82 198.08 L 277.09 195.44 L 277.09 180.95 L 280.82 198.08 Z" fill="#74afd0" stroke="#74afd0" stroke-width="1.2" stroke-linejoin="round"/>
<path d="M 308.08 191.80 L 280.82 198.08 L 277.09 180.95 L 308.08 191.80 Z" fill="#73aecf" stroke="#73aecf" stroke-width="1.2" stroke-linejoin="round"/>
<path d="M 280.82 198.08 L 277.09 209.94 L 277.09 195.44 L 280.82 198.08 Z" fill="#72abcd" stroke="#72abcd" stroke-width="1.2" stroke-linejoin="round"/>
<path d="M 280.82 198.08 L 285.12 214.07 L 277.09 209.94 L 280.82 198.08 Z" fill="#70a9cb" stroke="#70a9cb" stroke-width="1.2" stroke-linejoin="round"/>
<path d="M 308.08 191.80 L 308.69 216.07 L 285.12 214.07 L 308.08 191.80 Z" fill="#6ea8ca" stroke="#6ea8ca" stroke-width="1.2" stroke-linejoin="round"/>
<path d="M 308.69 216.07 L 277.09 238.94 L 277.09 224.44 L 308.69 216.07 Z" fill="#6ba2c5" stroke="#6ba2c5" stroke-width="1.2" stroke-linejoin="round"/>
<path d="M 285.12 214.07 L 308.69 216.07 L 277.09 224.44 L 285.12 214.07 Z" fill="#6ca5c8" stroke="#6ca5c8" stroke-width="1.2" stroke-linejoin="round"/>
<path d="M 308.08 191.80 L 338.58 198.54 L 308.69 216.07 L 308.08 191.80 Z" fill="#6ca9ca" stroke="#6ca9ca" stroke-width="1.2" stroke-linejoin="round"/>
<path d="M 341.72 297.37 L 356.53 278.95 L 372.53 298.17 L 341.72 297.37 Z" fill="#568bb4" stroke="#568bb4" stroke-width="1.2" stroke-linejoin="round"/>
<path d="M 311.23 330.37 L 277.09 325.92 L 277.09 311.42 L 311.23 330.37 Z" fill="#5581ab" stroke="#5581ab" stroke-width="1.2" stroke-linejoin="round"/>
<path d="M 279.97 298.53 L 310.68 299.48 L 277.09 311.42 L 279.97 298.53 Z" fill="#5987b1" stroke="#5987b1" stroke-width="1.2" stroke-linejoin="round"/>
<path d="M 310.68 299.48 L 279.97 298.53 L 277.09 282.43 L 310.68 299.48 Z" fill="#5b8bb3" stroke="#5b8bb3" stroke-width="1.2" stroke-linejoin="round"/>
<path d="M 280.41 267.58 L 314.72 266.62 L 277.09 282.43 L 280.41 267.58 Z" fill="#6092b9" stroke="#6092b9" stroke-width="1.2" stroke-linejoin="round"/>
<path d="M 314.72 266.62 L 310.68 299.48 L 277.09 282.43 L 314.72 266.62 Z" fill="#5d8eb6" stroke="#5d8eb6" stroke-width="1.2" stroke-linejoin="round"/>
<path d="M 283.24 251.20 L 314.72 266.62 L 280.41 267.58 L 283.24 251.20 Z" fill="#6296bc" stroke="#6296bc" stroke-width="1.2" stroke-linejoin="round"/>
<path d="M 341.72 297.37 L 310.68 299.48 L 314.72 266.62 L 341.72 297.37 Z" fill="#5a8cb5" stroke="#5a8cb5" stroke-width="1.2" stroke-linejoin="round"/>
<path d="M 341.72 297.37 L 372.53 298.17 L 360.22 320.27 L 341.72 297.37 Z" fill="#5386b1" stroke="#5386b1" stroke-width="1.2" stroke-linejoin="round"/>
<path d="M 341.72 297.37 L 360.22 320.27 L 345.33 316.92 L 341.72 297.37 Z" fill="#5385af" stroke="#5385af" stroke-width="1.2" stroke-linejoin="round"/>
<path d="M 332.00 392.83 L 312.53 404.79 L 306.96 375.75 L 332.00 392.83 Z" fill="#446a9a" stroke="#446a9a" stroke-width="1.2" stroke-linejoin="round"/>
<path d="M 332.00 392.83 L 330.94 425.94 L 312.53 404.79 L 332.00 392.83 Z" fill="#416597" stroke="#416597" stroke-width="1.2" stroke-linejoin="round"/>
<path d="M 306.96 375.75 L 312.53 404.79 L 287.01 378.90 L 306.96 375.75 Z" fill="#466b9b" stroke="#466b9b" stroke-width="1.2" stroke-linejoin="round"/>
<path d="M 305.65 354.31 L 287.01 378.90 L 277.09 369.42 L 305.65 354.31 Z" fill="#4a719f" stroke="#4a719f" stroke-width="1.2" stroke-linejoin="round"/>
<path d="M 306.96 375.75 L 287.01 378.90 L 305.65 354.31 L 306.96 375.75 Z" fill="#4a719f" stroke="#4a719f" stroke-width="1.2" stroke-linejoin="round"/>
<path d="M 585.84 199.24 L 569.04 162.81 L 598.32 160.70 L 585.84 199.24 Z" fill="#479ebe" stroke="#479ebe" stroke-width="1.2" stroke-linejoin="round"/>
<path d="M 585.84 199.24 L 598.32 160.70 L 602.26 200.14 L 585.84 199.24 Z" fill="#459bbc" stroke="#459bbc" stroke-width="1.2" stroke-linejoin="round"/>
<path d="M 607.70 139.70 L 598.32 160.70 L 598.31 136.07 L 607.70 139.70 Z" fill="#45a1be" stroke="#45a1be" stroke-width="1.2" stroke-linejoin="round"/>
<path d="M 576.35 109.88 L 587.95 118.57 L 569.63 120.94 L 576.35 109.88 Z" fill="#4aa9c3" stroke="#4aa9c3" stroke-width="1.2" stroke-linejoin="round"/>
<path d="M 277.56 458.11 L 277.09 470.90 L 277.09 456.40 L 277.56 458.11 Z" fill="#355084" stroke="#355084" stroke-width="1.2" stroke-linejoin="round"/>
<path d="M 277.56 458.11 L 291.41 471.76 L 277.09 470.90 L 277.56 458.11 Z" fill="#334e83" stroke="#334e83" stroke-width="1.2" stroke-linejoin="round"/>
<path d="M 433.54 287.12 L 424.54 297.98 L 418.73 287.12 L 433.54 287.12 Z" fill="#508ab4" stroke="#508ab4" stroke-width="1.2" stroke-linejoin="round"/>
<path d="M 418.73 287.12 L 424.54 297.98 L 403.91 287.12 L 418.73 287.12 Z" fill="#518ab4" stroke="#518ab4" stroke-width="1.2" stroke-linejoin="round"/>
<path d="M 372.53 298.17 L 396.86 314.67 L 360.22 320.27 L 372.53 298.17 Z" fill="#5185b0" stroke="#5185b0" stroke-width="1.2" stroke-linejoin="round"/>
<path d="M 424.54 297.98 L 417.22 330.82 L 396.86 314.67 L 424.54 297.98 Z" fill="#4e84af" stroke="#4e84af" stroke-width="1.2" stroke-linejoin="round"/>
<path d="M 417.22 330.82 L 385.62 353.61 L 396.86 314.67 L 417.22 330.82 Z" fill="#4c7eab" stroke="#4c7eab" stroke-width="1.2" stroke-linejoin="round"/>
<path d="M 367.02 349.34 L 396.86 314.67 L 385.62 353.61 L 367.02 349.34 Z" fill="#4c7caa" stroke="#4c7caa" stroke-width="1.2" stroke-linejoin="round"/>
<path d="M 367.02 349.34 L 360.22 320.27 L 396.86 314.67 L 367.02 349.34 Z" fill="#4e80ac" stroke="#4e80ac" stroke-width="1.2" stroke-linejoin="round"/>
<path d="M 372.01 525.65 L 389.10 532.64 L 381.96 540.00 L 372.01 525.65 Z" fill="#2b4380" stroke="#2b4380" stroke-width="1.2" stroke-linejoin="round"/>
<path d="M 389.10 532.64 L 372.01 525.65 L 389.10 518.14 L 389.10 532.64 Z" fill="#2d4682" stroke="#2d4682" stroke-width="1.2" stroke-linejoin="round"/>
<path d="M 389.10 532.64 L 389.10 540.00 L 381.96 540.00 L 389.10 532.64 Z" fill="#2e4887" stroke="#2e4887" stroke-width="1.2" stroke-linejoin="round"/>
<path d="M 455.70 438.41 L 474.10 427.86 L 462.66 446.31 L 455.70 438.41 L 455.70 438.41 Z" fill="#3c659c" stroke="#3c659c" stroke-width="1.2" stroke-linejoin="round"/>
<path d="M 448.71 425.71 L 474.10 427.86 L 455.70 438.41 L 451.36 430.52 L 448.71 425.71 Z" fill="#3d679d" stroke="#3d679d" stroke-width="1.2" stroke-linejoin="round"/>
<path d="M 474.10 427.86 L 448.71 425.71 L 474.02 401.63 L 474.10 427.86 Z" fill="#3e6aa0" stroke="#3e6aa0" stroke-width="1.2" stroke-linejoin="round"/>
<path d="M 443.17 377.23 L 474.02 401.63 L 442.29 409.03 L 443.17 377.23 Z" fill="#416fa2" stroke="#416fa2" stroke-width="1.2" stroke-linejoin="round"/>
<path d="M 442.29 409.03 L 448.71 425.71 L 447.48 423.49 L 441.71 413.01 L 442.29 409.03 Z" fill="#3f6a9e" stroke="#3f6a9e" stroke-width="1.2" stroke-linejoin="round"/>
<path d="M 474.02 401.63 L 448.71 425.71 L 442.29 409.03 L 474.02 401.63 Z" fill="#3f6ba0" stroke="#3f6ba0" stroke-width="1.2" stroke-linejoin="round"/>
<path d="M 446.01 355.51 L 443.17 377.23 L 426.23 374.89 L 446.01 355.51 Z" fill="#4575a6" stroke="#4575a6" stroke-width="1.2" stroke-linejoin="round"/>
<path d="M 446.01 355.51 L 426.23 374.89 L 423.54 356.58 L 446.01 355.51 Z" fill="#4677a7" stroke="#4677a7" stroke-width="1.2" stroke-linejoin="round"/>
<path d="M 443.17 377.23 L 427.73 387.61 L 426.23 374.89 L 443.17 377.23 Z" fill="#4472a4" stroke="#4472a4" stroke-width="1.2" stroke-linejoin="round"/>
<path d="M 359.04 370.81 L 389.10 373.17 L 389.10 387.66 L 359.04 370.81 Z" fill="#4671a1" stroke="#4671a1" stroke-width="1.2" stroke-linejoin="round"/>
<path d="M 362.74 408.98 L 389.10 387.66 L 389.10 402.16 L 362.74 408.98 Z" fill="#426b9d" stroke="#426b9d" stroke-width="1.2" stroke-linejoin="round"/>
<path d="M 362.74 408.98 L 359.04 370.81 L 389.10 387.66 L 362.74 408.98 Z" fill="#446d9e" stroke="#446d9e" stroke-width="1.2" stroke-linejoin="round"/>
<path d="M 331.35 460.02 L 306.81 456.60 L 330.94 425.94 L 331.35 460.02 Z" fill="#39588d" stroke="#39588d" stroke-width="1.2" stroke-linejoin="round"/>
<path d="M 306.81 456.60 L 277.56 458.11 L 277.09 456.40 L 306.81 456.60 Z" fill="#365286" stroke="#365286" stroke-width="1.2" stroke-linejoin="round"/>
<path d="M 291.41 471.76 L 277.56 458.11 L 306.81 456.60 L 291.41 471.76 Z" fill="#355185" stroke="#355185" stroke-width="1.2" stroke-linejoin="round"/>
<path d="M 309.28 479.40 L 291.41 471.76 L 306.81 456.60 L 309.28 479.40 Z" fill="#344f85" stroke="#344f85" stroke-width="1.2" stroke-linejoin="round"/>
<path d="M 309.28 479.40 L 306.81 456.60 L 331.35 460.02 L 309.28 479.40 Z" fill="#355287" stroke="#355287" stroke-width="1.2" stroke-linejoin="round"/>
<path d="M 331.35 460.02 L 330.94 425.94 L 356.59 445.85 L 331.35 460.02 Z" fill="#3a5a8f" stroke="#3a5a8f" stroke-width="1.2" stroke-linejoin="round"/>
<path d="M 331.35 460.02 L 356.59 445.85 L 359.20 484.62 L 331.35 460.02 Z" fill="#36558b" stroke="#36558b" stroke-width="1.2" stroke-linejoin="round"/>
<path d="M 356.59 445.85 L 387.59 454.31 L 389.10 460.15 L 356.59 445.85 Z" fill="#395a91" stroke="#395a91" stroke-width="1.2" stroke-linejoin="round"/>
<path d="M 359.20 484.62 L 356.59 445.85 L 389.10 460.15 L 359.20 484.62 Z" fill="#37578e" stroke="#37578e" stroke-width="1.2" stroke-linejoin="round"/>
<path d="M 528.65 529.86 L 526.15 540.00 L 511.65 540.00 L 528.65 529.86 Z" fill="#355496" stroke="#355496" stroke-width="1.2" stroke-linejoin="round"/>
<path d="M 528.65 529.86 L 540.64 540.00 L 526.15 540.00 L 528.65 529.86 Z" fill="#365597" stroke="#365597" stroke-width="1.2" stroke-linejoin="round"/>
<path d="M 526.47 508.93 L 504.66 527.30 L 500.88 520.45 L 497.66 514.60 L 526.47 508.93 Z" fill="#365796" stroke="#365796" stroke-width="1.2" stroke-linejoin="round"/>
<path d="M 504.66 527.30 L 526.47 508.93 L 528.65 529.86 L 504.66 527.30 Z" fill="#365797" stroke="#365797" stroke-width="1.2" stroke-linejoin="round"/>
<path d="M 490.63 500.13 L 526.47 508.93 L 497.66 514.60 L 497.66 514.60 L 490.63 500.13 Z" fill="#365897" stroke="#365897" stroke-width="1.2" stroke-linejoin="round"/>
<path d="M 491.68 478.24 L 526.47 508.93 L 490.63 500.13 L 491.68 478.24 Z" fill="#375b98" stroke="#375b98" stroke-width="1.2" stroke-linejoin="round"/>
<path d="M 491.68 478.24 L 532.14 474.02 L 526.47 508.93 L 491.68 478.24 Z" fill="#395e9b" stroke="#395e9b" stroke-width="1.2" stroke-linejoin="round"/>
<path d="M 556.68 529.50 L 528.65 529.86 L 526.47 508.93 L 556.68 529.50 Z" fill="#37599a" stroke="#37599a" stroke-width="1.2" stroke-linejoin="round"/>
<path d="M 601.68 502.67 L 606.85 486.41 L 614.16 498.94 L 601.68 502.67 Z" fill="#3d66a6" stroke="#3d66a6" stroke-width="1.2" stroke-linejoin="round"/>
<path d="M 610.59 522.52 L 613.13 540.00 L 598.63 540.00 L 610.59 522.52 Z" fill="#3c5fa3" stroke="#3c5fa3" stroke-width="1.2" stroke-linejoin="round"/>
<path d="M 628.76 523.99 L 627.63 540.00 L 613.13 540.00 L 628.76 523.99 Z" fill="#3d61a6" stroke="#3d61a6" stroke-width="1.2" stroke-linejoin="round"/>
<path d="M 610.59 522.52 L 628.76 523.99 L 613.13 540.00 L 610.59 522.52 Z" fill="#3d61a5" stroke="#3d61a5" stroke-width="1.2" stroke-linejoin="round"/>
<path d="M 504.17 272.54 L 521.47 295.68 L 498.62 290.42 L 504.17 272.54 L 504.17 272.54 Z" fill="#4a8ab5" stroke="#4a8ab5" stroke-width="1.2" stroke-linejoin="round"/>
<path d="M 516.13 270.08 L 521.47 295.68 L 504.17 272.54 L 504.17 272.54 L 516.13 270.08 Z" fill="#4a8cb5" stroke="#4a8cb5" stroke-width="1.2" stroke-linejoin="round"/>
<path d="M 498.62 290.42 L 491.92 280.75 L 491.92 280.75 L 493.59 280.00 L 498.39 277.18 L 502.71 273.89 L 504.17 272.54 L 498.62 290.42 Z" fill="#4b8cb5" stroke="#4b8cb5" stroke-width="1.2" stroke-linejoin="round"/>
<path d="M 516.13 270.08 L 504.17 272.54 L 504.69 272.07 L 506.56 270.13 L 509.94 265.95 L 512.84 261.39 L 513.12 260.81 L 516.13 270.08 Z" fill="#4b8eb7" stroke="#4b8eb7" stroke-width="1.2" stroke-linejoin="round"/>
<path d="M 574.69 271.83 L 608.63 278.05 L 580.88 296.53 L 574.69 271.83 Z" fill="#438ab5" stroke="#438ab5" stroke-width="1.2" stroke-linejoin="round"/>
<path d="M 574.69 271.83 L 609.35 245.08 L 608.63 278.05 L 574.69 271.83 Z" fill="#428db6" stroke="#428db6" stroke-width="1.2" stroke-linejoin="round"/>
<path d="M 596.45 213.30 L 630.64 220.49 L 609.35 245.08 L 596.45 213.30 Z" fill="#4193b8" stroke="#4193b8" stroke-width="1.2" stroke-linejoin="round"/>
<path d="M 596.45 213.30 L 602.26 200.14 L 630.64 220.49 L 596.45 213.30 Z" fill="#4296b9" stroke="#4296b9" stroke-width="1.2" stroke-linejoin="round"/>
<path d="M 602.26 200.14 L 627.13 178.40 L 627.13 178.40 L 630.87 192.40 L 630.87 192.40 L 602.26 200.14 Z" fill="#4198ba" stroke="#4198ba" stroke-width="1.2" stroke-linejoin="round"/>
<path d="M 598.32 160.70 L 622.04 164.84 L 627.13 178.40 L 627.13 178.40 L 598.32 160.70 Z" fill="#429cbc" stroke="#429cbc" stroke-width="1.2" stroke-linejoin="round"/>
<path d="M 627.13 178.40 L 602.26 200.14 L 598.32 160.70 L 627.13 178.40 L 627.13 178.40 Z" fill="#439bbb" stroke="#439bbb" stroke-width="1.2" stroke-linejoin="round"/>
<path d="M 547.15 221.20 L 571.14 216.10 L 570.01 248.79 L 547.15 221.20 Z" fill="#4895ba" stroke="#4895ba" stroke-width="1.2" stroke-linejoin="round"/>
<path d="M 596.45 213.30 L 570.01 248.79 L 571.14 216.10 L 596.45 213.30 Z" fill="#4695b9" stroke="#4695b9" stroke-width="1.2" stroke-linejoin="round"/>
<path d="M 585.84 199.24 L 596.45 213.30 L 571.14 216.10 L 585.84 199.24 Z" fill="#4597bb" stroke="#4597bb" stroke-width="1.2" stroke-linejoin="round"/>
<path d="M 525.56 344.82 L 553.05 345.42 L 542.03 354.45 L 525.56 344.82 Z" fill="#437dae" stroke="#437dae" stroke-width="1.2" stroke-linejoin="round"/>
<path d="M 555.45 348.98 L 549.99 351.48 L 542.03 354.45 L 555.45 348.98 Z" fill="#427bad" stroke="#427bad" stroke-width="1.2" stroke-linejoin="round"/>
<path d="M 553.05 345.42 L 555.45 348.98 L 555.45 348.98 L 542.03 354.45 L 542.03 354.45 L 553.05 345.42 Z" fill="#427dae" stroke="#427dae" stroke-width="1.2" stroke-linejoin="round"/>
<path d="M 499.55 427.05 L 517.84 452.20 L 490.84 460.51 L 499.55 427.05 Z" fill="#3c669f" stroke="#3c669f" stroke-width="1.2" stroke-linejoin="round"/>
<path d="M 499.55 427.05 L 490.84 460.51 L 474.10 427.86 L 499.55 427.05 Z" fill="#3c679f" stroke="#3c679f" stroke-width="1.2" stroke-linejoin="round"/>
<path d="M 491.68 478.24 L 490.84 460.51 L 517.84 452.20 L 491.68 478.24 Z" fill="#3a629c" stroke="#3a629c" stroke-width="1.2" stroke-linejoin="round"/>
<path d="M 474.10 427.86 L 490.84 460.51 L 462.66 446.31 L 474.10 427.86 Z" fill="#3c649c" stroke="#3c649c" stroke-width="1.2" stroke-linejoin="round"/>
<path d="M 469.69 463.80 L 490.84 460.51 L 476.68 476.50 L 473.35 470.45 L 469.69 463.80 Z" fill="#395f99" stroke="#395f99" stroke-width="1.2" stroke-linejoin="round"/>
<path d="M 490.84 460.51 L 491.68 478.24 L 476.68 476.50 L 476.68 476.50 L 490.84 460.51 Z" fill="#395f9a" stroke="#395f9a" stroke-width="1.2" stroke-linejoin="round"/>
<path d="M 477.87 285.30 L 466.44 289.78 L 463.17 287.01 L 469.59 286.59 L 476.31 285.65 L 477.87 285.30 L 477.87 285.30 Z" fill="#4d8bb4" stroke="#4d8bb4" stroke-width="1.2" stroke-linejoin="round"/>
<path d="M 477.87 285.30 L 477.87 285.30 L 477.87 285.30 L 477.87 285.30 Z" fill="#4d8fb7" stroke="#4d8fb7" stroke-width="1.2" stroke-linejoin="round"/>
<path d="M 498.62 290.42 L 477.87 285.30 L 482.55 284.24 L 488.31 282.36 L 491.92 280.75 L 498.62 290.42 Z" fill="#4b8bb5" stroke="#4b8bb5" stroke-width="1.2" stroke-linejoin="round"/>
<path d="M 466.44 289.78 L 477.87 285.30 L 478.64 327.99 L 466.44 289.78 Z" fill="#4b87b2" stroke="#4b87b2" stroke-width="1.2" stroke-linejoin="round"/>
<path d="M 478.64 327.99 L 477.87 285.30 L 498.62 290.42 L 478.64 327.99 Z" fill="#4a87b2" stroke="#4a87b2" stroke-width="1.2" stroke-linejoin="round"/>
<path d="M 518.69 163.08 L 507.25 190.88 L 506.56 190.04 L 504.69 188.11 L 502.71 186.29 L 498.39 183.00 L 495.87 181.52 L 518.69 163.08 Z" fill="#53a3c3" stroke="#53a3c3" stroke-width="1.2" stroke-linejoin="round"/>
<path d="M 547.15 221.20 L 559.53 194.24 L 571.14 216.10 L 547.15 221.20 Z" fill="#4998bc" stroke="#4998bc" stroke-width="1.2" stroke-linejoin="round"/>
<path d="M 585.84 199.24 L 559.53 194.24 L 569.04 162.81 L 585.84 199.24 Z" fill="#489dbd" stroke="#489dbd" stroke-width="1.2" stroke-linejoin="round"/>
<path d="M 585.84 199.24 L 571.14 216.10 L 559.53 194.24 L 585.84 199.24 Z" fill="#4799bc" stroke="#4799bc" stroke-width="1.2" stroke-linejoin="round"/>
<path d="M 478.06 119.65 L 478.50 82.71 L 504.65 91.08 L 478.06 119.65 Z" fill="#5eb7d0" stroke="#5eb7d0" stroke-width="1.2" stroke-linejoin="round"/>
<path d="M 495.87 181.52 L 492.34 172.20 L 518.69 163.08 L 495.87 181.52 Z" fill="#54a4c4" stroke="#54a4c4" stroke-width="1.2" stroke-linejoin="round"/>
<path d="M 518.69 163.08 L 492.34 172.20 L 497.87 139.90 L 518.69 163.08 Z" fill="#55a7c6" stroke="#55a7c6" stroke-width="1.2" stroke-linejoin="round"/>
<path d="M 467.14 159.96 L 497.87 139.90 L 492.34 172.20 L 467.14 159.96 Z" fill="#58a9c7" stroke="#58a9c7" stroke-width="1.2" stroke-linejoin="round"/>
<path d="M 291.58 108.99 L 282.11 96.49 L 292.13 80.00 L 291.58 108.99 Z" fill="#89cfe9" stroke="#89cfe9" stroke-width="1.2" stroke-linejoin="round"/>
<path d="M 282.11 96.49 L 277.63 80.00 L 292.13 80.00 L 282.11 96.49 Z" fill="#8cd3ed" stroke="#8cd3ed" stroke-width="1.2" stroke-linejoin="round"/>
<path d="M 282.11 96.49 L 277.09 93.96 L 277.63 80.00 L 282.11 96.49 Z" fill="#8cd2ec" stroke="#8cd2ec" stroke-width="1.2" stroke-linejoin="round"/>
<path d="M 282.29 159.32 L 277.09 166.45 L 277.09 151.95 L 282.29 159.32 Z" fill="#7cbad9" stroke="#7cbad9" stroke-width="1.2" stroke-linejoin="round"/>
<path d="M 303.06 145.76 L 307.83 168.11 L 282.29 159.32 L 303.06 145.76 Z" fill="#79b9d7" stroke="#79b9d7" stroke-width="1.2" stroke-linejoin="round"/>
<path d="M 282.29 159.32 L 307.83 168.11 L 277.09 166.45 L 282.29 159.32 Z" fill="#79b7d6" stroke="#79b7d6" stroke-width="1.2" stroke-linejoin="round"/>
<path d="M 303.06 145.76 L 282.29 159.32 L 292.91 138.07 L 303.06 145.76 Z" fill="#7cbddb" stroke="#7cbddb" stroke-width="1.2" stroke-linejoin="round"/>
<path d="M 292.91 138.07 L 282.29 159.32 L 277.09 151.95 L 292.91 138.07 Z" fill="#7dbddb" stroke="#7dbddb" stroke-width="1.2" stroke-linejoin="round"/>
<path d="M 330.23 89.40 L 321.12 80.00 L 335.62 80.00 L 330.23 89.40 Z" fill="#83cee7" stroke="#83cee7" stroke-width="1.2" stroke-linejoin="round"/>
<path d="M 342.77 132.71 L 319.48 120.00 L 343.97 114.40 L 342.77 132.71 Z" fill="#79c1dd" stroke="#79c1dd" stroke-width="1.2" stroke-linejoin="round"/>
<path d="M 319.48 120.00 L 330.23 89.40 L 343.97 114.40 L 319.48 120.00 Z" fill="#7dc6e1" stroke="#7dc6e1" stroke-width="1.2" stroke-linejoin="round"/>
<path d="M 342.77 132.71 L 343.97 114.40 L 370.86 118.92 L 342.77 132.71 Z" fill="#76bfdb" stroke="#76bfdb" stroke-width="1.2" stroke-linejoin="round"/>
<path d="M 370.86 118.92 L 343.97 114.40 L 368.64 95.32 L 370.86 118.92 Z" fill="#77c2dd" stroke="#77c2dd" stroke-width="1.2" stroke-linejoin="round"/>
<path d="M 370.86 118.92 L 391.66 148.39 L 361.41 148.94 L 370.86 118.92 Z" fill="#6fb8d5" stroke="#6fb8d5" stroke-width="1.2" stroke-linejoin="round"/>
<path d="M 395.91 94.02 L 368.64 95.32 L 379.11 80.00 L 395.91 94.02 Z" fill="#76c6df" stroke="#76c6df" stroke-width="1.2" stroke-linejoin="round"/>
<path d="M 440.56 106.44 L 413.55 109.83 L 411.34 94.15 L 440.56 106.44 Z" fill="#6bbdd7" stroke="#6bbdd7" stroke-width="1.2" stroke-linejoin="round"/>
<path d="M 413.55 109.83 L 395.91 94.02 L 411.34 94.15 L 413.55 109.83 Z" fill="#6fc0da" stroke="#6fc0da" stroke-width="1.2" stroke-linejoin="round"/>
<path d="M 419.75 147.28 L 447.98 149.00 L 435.32 171.66 L 419.75 147.28 Z" fill="#62aecc" stroke="#62aecc" stroke-width="1.2" stroke-linejoin="round"/>
<path d="M 338.58 198.54 L 340.04 221.48 L 308.69 216.07 L 338.58 198.54 Z" fill="#69a5c7" stroke="#69a5c7" stroke-width="1.2" stroke-linejoin="round"/>
<path d="M 358.33 197.39 L 340.04 221.48 L 338.58 198.54 L 358.33 197.39 Z" fill="#67a6c8" stroke="#67a6c8" stroke-width="1.2" stroke-linejoin="round"/>
<path d="M 358.33 197.39 L 365.02 213.05 L 340.04 221.48 L 358.33 197.39 Z" fill="#65a4c6" stroke="#65a4c6" stroke-width="1.2" stroke-linejoin="round"/>
<path d="M 356.76 236.84 L 365.02 213.05 L 389.10 227.86 L 356.76 236.84 Z" fill="#609ec2" stroke="#609ec2" stroke-width="1.2" stroke-linejoin="round"/>
<path d="M 340.52 237.65 L 340.04 221.48 L 356.76 236.84 L 340.52 237.65 Z" fill="#629ec2" stroke="#629ec2" stroke-width="1.2" stroke-linejoin="round"/>
<path d="M 365.02 213.05 L 356.76 236.84 L 340.04 221.48 L 365.02 213.05 Z" fill="#63a0c3" stroke="#63a0c3" stroke-width="1.2" stroke-linejoin="round"/>
<path d="M 279.97 298.53 L 277.09 311.42 L 277.09 296.93 L 279.97 298.53 Z" fill="#5a88b1" stroke="#5a88b1" stroke-width="1.2" stroke-linejoin="round"/>
<path d="M 279.97 298.53 L 277.09 296.93 L 277.09 282.43 L 279.97 298.53 Z" fill="#5d8bb3" stroke="#5d8bb3" stroke-width="1.2" stroke-linejoin="round"/>
<path d="M 283.24 251.20 L 314.42 241.67 L 314.72 266.62 L 283.24 251.20 Z" fill="#6398be" stroke="#6398be" stroke-width="1.2" stroke-linejoin="round"/>
<path d="M 314.42 241.67 L 283.24 251.20 L 277.09 238.94 L 314.42 241.67 Z" fill="#669cc1" stroke="#669cc1" stroke-width="1.2" stroke-linejoin="round"/>
<path d="M 308.69 216.07 L 314.42 241.67 L 277.09 238.94 L 308.69 216.07 Z" fill="#689fc3" stroke="#689fc3" stroke-width="1.2" stroke-linejoin="round"/>
<path d="M 340.52 237.65 L 314.42 241.67 L 340.04 221.48 L 340.52 237.65 Z" fill="#649ec2" stroke="#649ec2" stroke-width="1.2" stroke-linejoin="round"/>
<path d="M 308.69 216.07 L 340.04 221.48 L 314.42 241.67 L 308.69 216.07 Z" fill="#67a0c4" stroke="#67a0c4" stroke-width="1.2" stroke-linejoin="round"/>
<path d="M 340.52 237.65 L 356.76 236.84 L 343.80 266.66 L 340.52 237.65 Z" fill="#5f99be" stroke="#5f99be" stroke-width="1.2" stroke-linejoin="round"/>
<path d="M 356.53 278.95 L 343.80 266.66 L 356.76 236.84 L 356.53 278.95 Z" fill="#5c94bb" stroke="#5c94bb" stroke-width="1.2" stroke-linejoin="round"/>
<path d="M 340.52 237.65 L 343.80 266.66 L 314.42 241.67 L 340.52 237.65 Z" fill="#6199be" stroke="#6199be" stroke-width="1.2" stroke-linejoin="round"/>
<path d="M 314.72 266.62 L 314.42 241.67 L 343.80 266.66 L 314.72 266.62 Z" fill="#6096bc" stroke="#6096bc" stroke-width="1.2" stroke-linejoin="round"/>
<path d="M 341.72 297.37 L 343.80 266.66 L 356.53 278.95 L 341.72 297.37 Z" fill="#598eb6" stroke="#598eb6" stroke-width="1.2" stroke-linejoin="round"/>
<path d="M 341.72 297.37 L 314.72 266.62 L 343.80 266.66 L 341.72 297.37 Z" fill="#5b90b7" stroke="#5b90b7" stroke-width="1.2" stroke-linejoin="round"/>
<path d="M 312.53 404.79 L 277.09 412.91 L 277.09 398.41 L 312.53 404.79 Z" fill="#426495" stroke="#426495" stroke-width="1.2" stroke-linejoin="round"/>
<path d="M 287.01 378.90 L 312.53 404.79 L 277.09 398.41 L 287.01 378.90 Z" fill="#446898" stroke="#446898" stroke-width="1.2" stroke-linejoin="round"/>
<path d="M 287.49 347.34 L 305.65 354.31 L 277.09 369.42 L 287.49 347.34 Z" fill="#4d75a2" stroke="#4d75a2" stroke-width="1.2" stroke-linejoin="round"/>
<path d="M 311.23 330.37 L 305.65 354.31 L 287.49 347.34 L 311.23 330.37 Z" fill="#4f79a6" stroke="#4f79a6" stroke-width="1.2" stroke-linejoin="round"/>
<path d="M 287.49 347.34 L 277.09 340.42 L 277.09 325.92 L 287.49 347.34 Z" fill="#527ba7" stroke="#527ba7" stroke-width="1.2" stroke-linejoin="round"/>
<path d="M 311.23 330.37 L 287.49 347.34 L 277.09 325.92 L 311.23 330.37 Z" fill="#527da8" stroke="#527da8" stroke-width="1.2" stroke-linejoin="round"/>
<path d="M 367.02 349.34 L 359.04 370.81 L 341.37 353.19 L 367.02 349.34 Z" fill="#4a76a5" stroke="#4a76a5" stroke-width="1.2" stroke-linejoin="round"/>
<path d="M 311.23 330.37 L 341.37 353.19 L 305.65 354.31 L 311.23 330.37 Z" fill="#4e79a6" stroke="#4e79a6" stroke-width="1.2" stroke-linejoin="round"/>
<path d="M 311.23 330.37 L 345.33 316.92 L 341.37 353.19 L 311.23 330.37 Z" fill="#507da9" stroke="#507da9" stroke-width="1.2" stroke-linejoin="round"/>
<path d="M 367.02 349.34 L 341.37 353.19 L 360.22 320.27 L 367.02 349.34 Z" fill="#4d7ba8" stroke="#4d7ba8" stroke-width="1.2" stroke-linejoin="round"/>
<path d="M 345.33 316.92 L 360.22 320.27 L 341.37 353.19 L 345.33 316.92 Z" fill="#4f7fab" stroke="#4f7fab" stroke-width="1.2" stroke-linejoin="round"/>
<path d="M 607.70 139.70 L 615.56 151.88 L 598.32 160.70 L 607.70 139.70 Z" fill="#43a0bd" stroke="#43a0bd" stroke-width="1.2" stroke-linejoin="round"/>
<path d="M 622.04 164.84 L 598.32 160.70 L 615.56 151.88 L 622.04 164.84 Z" fill="#439ebc" stroke="#439ebc" stroke-width="1.2" stroke-linejoin="round"/>
<path d="M 569.63 120.94 L 574.92 141.05 L 558.36 137.23 L 569.63 120.94 Z" fill="#4ba7c3" stroke="#4ba7c3" stroke-width="1.2" stroke-linejoin="round"/>
<path d="M 587.95 118.57 L 574.92 141.05 L 569.63 120.94 L 587.95 118.57 Z" fill="#4aa7c2" stroke="#4aa7c2" stroke-width="1.2" stroke-linejoin="round"/>
<path d="M 569.04 162.81 L 558.36 137.23 L 574.92 141.05 L 569.04 162.81 Z" fill="#4ba4c1" stroke="#4ba4c1" stroke-width="1.2" stroke-linejoin="round"/>
<path d="M 598.31 136.07 L 574.92 141.05 L 598.39 128.60 L 598.31 136.07 Z" fill="#47a4c0" stroke="#47a4c0" stroke-width="1.2" stroke-linejoin="round"/>
<path d="M 587.95 118.57 L 598.39 128.60 L 574.92 141.05 L 587.95 118.57 Z" fill="#48a6c1" stroke="#48a6c1" stroke-width="1.2" stroke-linejoin="round"/>
<path d="M 598.31 136.07 L 598.32 160.70 L 574.92 141.05 L 598.31 136.07 Z" fill="#47a2bf" stroke="#47a2bf" stroke-width="1.2" stroke-linejoin="round"/>
<path d="M 569.04 162.81 L 574.92 141.05 L 598.32 160.70 L 569.04 162.81 Z" fill="#48a2bf" stroke="#48a2bf" stroke-width="1.2" stroke-linejoin="round"/>
<path d="M 372.53 298.17 L 356.53 278.95 L 389.10 287.12 L 372.53 298.17 Z" fill="#558cb4" stroke="#558cb4" stroke-width="1.2" stroke-linejoin="round"/>
<path d="M 389.10 287.12 L 356.53 278.95 L 389.10 272.30 L 389.10 287.12 Z" fill="#568eb6" stroke="#568eb6" stroke-width="1.2" stroke-linejoin="round"/>
<path d="M 387.10 265.07 L 389.10 257.49 L 389.10 272.30 L 387.10 265.07 Z" fill="#5892b9" stroke="#5892b9" stroke-width="1.2" stroke-linejoin="round"/>
<path d="M 356.53 278.95 L 387.10 265.07 L 389.10 272.30 L 356.53 278.95 Z" fill="#5890b8" stroke="#5890b8" stroke-width="1.2" stroke-linejoin="round"/>
<path d="M 387.10 265.07 L 356.76 236.84 L 389.10 257.49 L 387.10 265.07 Z" fill="#5b96bc" stroke="#5b96bc" stroke-width="1.2" stroke-linejoin="round"/>
<path d="M 356.53 278.95 L 356.76 236.84 L 387.10 265.07 L 356.53 278.95 Z" fill="#5b94bb" stroke="#5b94bb" stroke-width="1.2" stroke-linejoin="round"/>
<path d="M 519.21 217.53 L 532.28 225.55 L 520.10 232.29 L 520.15 229.37 L 520.09 226.14 L 519.60 219.94 L 519.21 217.53 L 519.21 217.53 Z" fill="#4d97bc" stroke="#4d97bc" stroke-width="1.2" stroke-linejoin="round"/>
<path d="M 532.28 225.55 L 519.21 217.53 L 547.15 221.20 L 532.28 225.55 Z" fill="#4c98bc" stroke="#4c98bc" stroke-width="1.2" stroke-linejoin="round"/>
<path d="M 356.76 236.84 L 389.10 242.67 L 389.10 257.49 L 356.76 236.84 Z" fill="#5c98be" stroke="#5c98be" stroke-width="1.2" stroke-linejoin="round"/>
<path d="M 356.76 236.84 L 389.10 227.86 L 389.10 242.67 L 356.76 236.84 Z" fill="#5e9bc0" stroke="#5e9bc0" stroke-width="1.2" stroke-linejoin="round"/>
<path d="M 490.84 460.51 L 469.69 463.80 L 467.06 459.03 L 462.69 451.11 L 490.84 460.51 Z" fill="#3a619a" stroke="#3a619a" stroke-width="1.2" stroke-linejoin="round"/>
<path d="M 462.66 446.31 L 490.84 460.51 L 462.69 451.11 L 462.69 451.11 L 462.66 446.31 Z" fill="#3b629b" stroke="#3b629b" stroke-width="1.2" stroke-linejoin="round"/>
<path d="M 462.66 446.31 L 462.69 451.11 L 455.70 438.41 L 462.66 446.31 Z" fill="#3b639b" stroke="#3b639b" stroke-width="1.2" stroke-linejoin="round"/>
<path d="M 389.10 460.15 L 387.59 454.31 L 389.10 445.65 L 389.10 460.15 Z" fill="#395b92" stroke="#395b92" stroke-width="1.2" stroke-linejoin="round"/>
<path d="M 443.17 377.23 L 434.72 400.31 L 427.73 387.61 L 443.17 377.23 Z" fill="#4270a2" stroke="#4270a2" stroke-width="1.2" stroke-linejoin="round"/>
<path d="M 443.17 377.23 L 442.29 409.03 L 434.72 400.31 L 443.17 377.23 Z" fill="#416fa2" stroke="#416fa2" stroke-width="1.2" stroke-linejoin="round"/>
<path d="M 442.29 409.03 L 441.71 413.01 L 435.04 400.89 L 434.72 400.31 L 442.29 409.03 Z" fill="#406b9f" stroke="#406b9f" stroke-width="1.2" stroke-linejoin="round"/>
<path d="M 426.23 374.89 L 427.73 387.61 L 423.22 379.42 L 420.73 374.91 L 426.23 374.89 Z" fill="#4472a4" stroke="#4472a4" stroke-width="1.2" stroke-linejoin="round"/>
<path d="M 423.54 356.58 L 426.23 374.89 L 420.73 374.91 L 420.73 374.91 L 423.54 356.58 Z" fill="#4575a5" stroke="#4575a5" stroke-width="1.2" stroke-linejoin="round"/>
<path d="M 362.74 408.98 L 366.82 433.27 L 330.94 425.94 L 362.74 408.98 Z" fill="#3e6295" stroke="#3e6295" stroke-width="1.2" stroke-linejoin="round"/>
<path d="M 330.94 425.94 L 366.82 433.27 L 356.59 445.85 L 330.94 425.94 Z" fill="#3c5e92" stroke="#3c5e92" stroke-width="1.2" stroke-linejoin="round"/>
<path d="M 366.82 433.27 L 389.10 416.66 L 389.10 431.16 L 366.82 433.27 Z" fill="#3d6397" stroke="#3d6397" stroke-width="1.2" stroke-linejoin="round"/>
<path d="M 366.82 433.27 L 362.74 408.98 L 389.10 416.66 L 366.82 433.27 Z" fill="#3e6498" stroke="#3e6498" stroke-width="1.2" stroke-linejoin="round"/>
<path d="M 366.82 433.27 L 389.10 431.16 L 389.10 445.65 L 366.82 433.27 Z" fill="#3b6095" stroke="#3b6095" stroke-width="1.2" stroke-linejoin="round"/>
<path d="M 387.59 454.31 L 356.59 445.85 L 366.82 433.27 L 387.59 454.31 Z" fill="#3a5d92" stroke="#3a5d92" stroke-width="1.2" stroke-linejoin="round"/>
<path d="M 387.59 454.31 L 366.82 433.27 L 389.10 445.65 L 387.59 454.31 Z" fill="#3a5d93" stroke="#3a5d93" stroke-width="1.2" stroke-linejoin="round"/>
<path d="M 549.53 476.71 L 545.42 497.30 L 532.14 474.02 L 549.53 476.71 Z" fill="#3a629f" stroke="#3a629f" stroke-width="1.2" stroke-linejoin="round"/>
<path d="M 532.14 474.02 L 545.42 497.30 L 526.47 508.93 L 532.14 474.02 Z" fill="#395f9d" stroke="#395f9d" stroke-width="1.2" stroke-linejoin="round"/>
<path d="M 549.53 476.71 L 572.31 504.92 L 545.42 497.30 L 549.53 476.71 Z" fill="#3a61a0" stroke="#3a61a0" stroke-width="1.2" stroke-linejoin="round"/>
<path d="M 556.68 529.50 L 545.42 497.30 L 572.31 504.92 L 556.68 529.50 Z" fill="#395e9e" stroke="#395e9e" stroke-width="1.2" stroke-linejoin="round"/>
<path d="M 556.68 529.50 L 526.47 508.93 L 545.42 497.30 L 556.68 529.50 Z" fill="#385c9c" stroke="#385c9c" stroke-width="1.2" stroke-linejoin="round"/>
<path d="M 628.76 523.99 L 610.59 522.52 L 621.46 511.46 L 627.25 521.40 L 628.76 523.99 Z" fill="#3d63a6" stroke="#3d63a6" stroke-width="1.2" stroke-linejoin="round"/>
<path d="M 610.59 522.52 L 601.68 502.67 L 621.46 511.46 L 610.59 522.52 Z" fill="#3c63a5" stroke="#3c63a5" stroke-width="1.2" stroke-linejoin="round"/>
<path d="M 621.46 511.46 L 601.68 502.67 L 614.16 498.94 L 617.89 505.35 L 621.46 511.46 Z" fill="#3d65a6" stroke="#3d65a6" stroke-width="1.2" stroke-linejoin="round"/>
<path d="M 609.35 245.08 L 622.12 272.37 L 608.63 278.05 L 609.35 245.08 Z" fill="#418cb6" stroke="#418cb6" stroke-width="1.2" stroke-linejoin="round"/>
<path d="M 602.26 200.14 L 630.87 192.40 L 630.87 192.40 L 633.14 206.71 L 633.14 206.71 L 602.26 200.14 Z" fill="#4097b9" stroke="#4097b9" stroke-width="1.2" stroke-linejoin="round"/>
<path d="M 630.64 220.49 L 602.26 200.14 L 633.14 206.71 L 633.14 206.71 L 630.64 220.49 Z" fill="#4095b9" stroke="#4095b9" stroke-width="1.2" stroke-linejoin="round"/>
<path d="M 632.05 250.04 L 609.35 245.08 L 633.73 235.65 L 633.73 235.65 L 632.05 250.04 Z" fill="#4090b7" stroke="#4090b7" stroke-width="1.2" stroke-linejoin="round"/>
<path d="M 633.73 235.65 L 609.35 245.08 L 630.64 220.49 L 633.73 235.65 L 633.73 235.65 Z" fill="#4091b7" stroke="#4091b7" stroke-width="1.2" stroke-linejoin="round"/>
<path d="M 632.05 250.04 L 633.73 235.65 L 633.29 241.72 L 632.05 250.04 L 632.05 250.04 Z" fill="#3e80b1" stroke="#3e80b1" stroke-width="1.2" stroke-linejoin="round"/>
<path d="M 515.92 370.53 L 525.56 344.82 L 532.14 357.79 L 531.92 357.86 L 533.84 361.16 L 515.92 370.53 Z" fill="#437bac" stroke="#437bac" stroke-width="1.2" stroke-linejoin="round"/>
<path d="M 525.56 344.82 L 542.03 354.45 L 538.13 355.90 L 532.14 357.79 L 525.56 344.82 Z" fill="#437cad" stroke="#437cad" stroke-width="1.2" stroke-linejoin="round"/>
<path d="M 515.92 370.53 L 533.84 361.16 L 541.15 373.69 L 515.92 370.53 Z" fill="#4279ab" stroke="#4279ab" stroke-width="1.2" stroke-linejoin="round"/>
<path d="M 518.69 163.08 L 515.96 199.89 L 507.25 190.88 L 518.69 163.08 Z" fill="#51a1c1" stroke="#51a1c1" stroke-width="1.2" stroke-linejoin="round"/>
<path d="M 507.25 190.88 L 515.96 199.89 L 515.20 203.31 L 512.84 198.61 L 509.94 194.15 L 507.25 190.88 L 507.25 190.88 Z" fill="#509ec0" stroke="#509ec0" stroke-width="1.2" stroke-linejoin="round"/>
<path d="M 547.15 221.20 L 515.96 199.89 L 559.53 194.24 L 547.15 221.20 Z" fill="#4c9bbd" stroke="#4c9bbd" stroke-width="1.2" stroke-linejoin="round"/>
<path d="M 515.96 199.89 L 547.15 221.20 L 519.21 217.53 L 518.64 214.08 L 518.42 213.27 L 515.96 199.89 Z" fill="#4d9abd" stroke="#4d9abd" stroke-width="1.2" stroke-linejoin="round"/>
<path d="M 515.96 199.89 L 518.42 213.27 L 517.19 208.58 L 515.26 203.42 L 515.20 203.31 L 515.96 199.89 Z" fill="#4f9cbe" stroke="#4f9cbe" stroke-width="1.2" stroke-linejoin="round"/>
<path d="M 537.46 90.74 L 523.60 124.00 L 523.56 86.65 L 523.56 86.65 L 537.46 90.74 Z" fill="#55b2ca" stroke="#55b2ca" stroke-width="1.2" stroke-linejoin="round"/>
<path d="M 523.56 86.65 L 523.56 86.65 L 504.65 91.08 L 509.39 83.61 L 509.39 83.61 L 523.56 86.65 Z" fill="#5ab6ce" stroke="#5ab6ce" stroke-width="1.2" stroke-linejoin="round"/>
<path d="M 452.77 89.52 L 440.56 106.44 L 437.10 80.00 L 452.77 89.52 Z" fill="#68bed6" stroke="#68bed6" stroke-width="1.2" stroke-linejoin="round"/>
<path d="M 440.56 106.44 L 452.77 89.52 L 478.06 119.65 L 440.56 106.44 Z" fill="#64b9d2" stroke="#64b9d2" stroke-width="1.2" stroke-linejoin="round"/>
<path d="M 478.06 119.65 L 452.77 89.52 L 478.50 82.71 L 478.06 119.65 Z" fill="#62b9d2" stroke="#62b9d2" stroke-width="1.2" stroke-linejoin="round"/>
<path d="M 492.34 172.20 L 495.87 181.52 L 495.87 181.52 L 493.59 180.18 L 488.31 177.83 L 482.55 175.95 L 482.23 175.87 L 492.34 172.20 Z" fill="#56a4c4" stroke="#56a4c4" stroke-width="1.2" stroke-linejoin="round"/>
<path d="M 467.14 159.96 L 482.23 175.87 L 476.31 174.53 L 469.59 173.59 L 467.63 173.47 L 467.14 159.96 Z" fill="#59a7c7" stroke="#59a7c7" stroke-width="1.2" stroke-linejoin="round"/>
<path d="M 482.23 175.87 L 467.14 159.96 L 492.34 172.20 L 482.23 175.87 L 482.23 175.87 Z" fill="#58a7c6" stroke="#58a7c6" stroke-width="1.2" stroke-linejoin="round"/>
<path d="M 523.60 124.00 L 525.03 140.53 L 497.87 139.90 L 523.60 124.00 Z" fill="#55acc8" stroke="#55acc8" stroke-width="1.2" stroke-linejoin="round"/>
<path d="M 518.69 163.08 L 497.87 139.90 L 525.03 140.53 L 518.69 163.08 Z" fill="#54a9c6" stroke="#54a9c6" stroke-width="1.2" stroke-linejoin="round"/>
<path d="M 523.60 124.00 L 497.87 139.90 L 503.43 115.41 L 523.60 124.00 Z" fill="#57aeca" stroke="#57aeca" stroke-width="1.2" stroke-linejoin="round"/>
<path d="M 478.06 119.65 L 503.43 115.41 L 497.87 139.90 L 478.06 119.65 Z" fill="#5ab0cb" stroke="#5ab0cb" stroke-width="1.2" stroke-linejoin="round"/>
<path d="M 478.06 119.65 L 504.65 91.08 L 503.43 115.41 L 478.06 119.65 Z" fill="#5bb4cd" stroke="#5bb4cd" stroke-width="1.2" stroke-linejoin="round"/>
<path d="M 523.60 124.00 L 503.43 115.41 L 523.56 86.65 L 523.60 124.00 Z" fill="#57b1cb" stroke="#57b1cb" stroke-width="1.2" stroke-linejoin="round"/>
<path d="M 503.43 115.41 L 504.65 91.08 L 523.56 86.65 L 523.56 86.65 L 503.43 115.41 Z" fill="#59b4cd" stroke="#59b4cd" stroke-width="1.2" stroke-linejoin="round"/>
<path d="M 467.14 159.96 L 473.97 135.99 L 497.87 139.90 L 467.14 159.96 Z" fill="#5badca" stroke="#5badca" stroke-width="1.2" stroke-linejoin="round"/>
<path d="M 478.06 119.65 L 497.87 139.90 L 473.97 135.99 L 478.06 119.65 Z" fill="#5bafcb" stroke="#5bafcb" stroke-width="1.2" stroke-linejoin="round"/>
<path d="M 467.14 159.96 L 447.98 149.00 L 473.97 135.99 L 467.14 159.96 Z" fill="#5dadcb" stroke="#5dadcb" stroke-width="1.2" stroke-linejoin="round"/>
<path d="M 440.56 106.44 L 478.06 119.65 L 473.97 135.99 L 440.56 106.44 Z" fill="#60b4cf" stroke="#60b4cf" stroke-width="1.2" stroke-linejoin="round"/>
<path d="M 440.56 106.44 L 473.97 135.99 L 447.98 149.00 L 440.56 106.44 Z" fill="#61b3cf" stroke="#61b3cf" stroke-width="1.2" stroke-linejoin="round"/>
<path d="M 282.11 96.49 L 277.09 108.46 L 277.09 93.96 L 282.11 96.49 Z" fill="#8acfe9" stroke="#8acfe9" stroke-width="1.2" stroke-linejoin="round"/>
<path d="M 291.58 108.99 L 277.09 122.96 L 277.09 108.46 L 291.58 108.99 Z" fill="#86cae5" stroke="#86cae5" stroke-width="1.2" stroke-linejoin="round"/>
<path d="M 282.11 96.49 L 291.58 108.99 L 277.09 108.46 L 282.11 96.49 Z" fill="#88cde7" stroke="#88cde7" stroke-width="1.2" stroke-linejoin="round"/>
<path d="M 368.64 95.32 L 350.12 80.00 L 364.61 80.00 L 368.64 95.32 Z" fill="#7bcae2" stroke="#7bcae2" stroke-width="1.2" stroke-linejoin="round"/>
<path d="M 350.12 80.00 L 330.23 89.40 L 335.62 80.00 L 350.12 80.00 Z" fill="#81cde6" stroke="#81cde6" stroke-width="1.2" stroke-linejoin="round"/>
<path d="M 343.97 114.40 L 330.23 89.40 L 350.12 80.00 L 343.97 114.40 Z" fill="#7ec9e3" stroke="#7ec9e3" stroke-width="1.2" stroke-linejoin="round"/>
<path d="M 368.64 95.32 L 343.97 114.40 L 350.12 80.00 L 368.64 95.32 Z" fill="#7bc7e1" stroke="#7bc7e1" stroke-width="1.2" stroke-linejoin="round"/>
<path d="M 370.86 118.92 L 397.03 114.56 L 391.66 148.39 L 370.86 118.92 Z" fill="#6fbad6" stroke="#6fbad6" stroke-width="1.2" stroke-linejoin="round"/>
<path d="M 413.55 109.83 L 397.03 114.56 L 395.91 94.02 L 413.55 109.83 Z" fill="#6fbfd9" stroke="#6fbfd9" stroke-width="1.2" stroke-linejoin="round"/>
<path d="M 419.75 147.28 L 397.03 114.56 L 413.55 109.83 L 419.75 147.28 Z" fill="#6bb9d4" stroke="#6bb9d4" stroke-width="1.2" stroke-linejoin="round"/>
<path d="M 419.75 147.28 L 391.66 148.39 L 397.03 114.56 L 419.75 147.28 Z" fill="#6ab6d3" stroke="#6ab6d3" stroke-width="1.2" stroke-linejoin="round"/>
<path d="M 370.86 118.92 L 368.64 95.32 L 397.03 114.56 L 370.86 118.92 Z" fill="#73c0db" stroke="#73c0db" stroke-width="1.2" stroke-linejoin="round"/>
<path d="M 368.64 95.32 L 395.91 94.02 L 397.03 114.56 L 368.64 95.32 Z" fill="#73c2dc" stroke="#73c2dc" stroke-width="1.2" stroke-linejoin="round"/>
<path d="M 391.66 148.39 L 419.75 147.28 L 408.38 173.06 L 391.66 148.39 Z" fill="#66b0ce" stroke="#66b0ce" stroke-width="1.2" stroke-linejoin="round"/>
<path d="M 411.34 94.15 L 395.91 94.02 L 408.11 80.00 L 411.34 94.15 Z" fill="#71c3dc" stroke="#71c3dc" stroke-width="1.2" stroke-linejoin="round"/>
<path d="M 447.98 149.00 L 467.14 159.96 L 452.83 173.06 L 447.98 149.00 Z" fill="#5dabc9" stroke="#5dabc9" stroke-width="1.2" stroke-linejoin="round"/>
<path d="M 467.14 159.96 L 467.63 173.47 L 462.40 173.12 L 458.62 173.06 L 452.83 173.06 L 467.14 159.96 Z" fill="#5ba8c8" stroke="#5ba8c8" stroke-width="1.2" stroke-linejoin="round"/>
<path d="M 287.01 378.90 L 277.09 383.91 L 277.09 369.42 L 287.01 378.90 Z" fill="#486d9c" stroke="#486d9c" stroke-width="1.2" stroke-linejoin="round"/>
<path d="M 277.09 383.91 L 287.01 378.90 L 277.09 398.41 L 277.09 383.91 Z" fill="#466a99" stroke="#466a99" stroke-width="1.2" stroke-linejoin="round"/>
<path d="M 287.49 347.34 L 277.09 369.42 L 277.09 354.92 L 287.49 347.34 Z" fill="#4d74a1" stroke="#4d74a1" stroke-width="1.2" stroke-linejoin="round"/>
<path d="M 287.49 347.34 L 277.09 354.92 L 277.09 340.42 L 287.49 347.34 Z" fill="#4f78a4" stroke="#4f78a4" stroke-width="1.2" stroke-linejoin="round"/>
<path d="M 306.96 375.75 L 305.65 354.31 L 340.91 374.21 L 306.96 375.75 Z" fill="#4972a0" stroke="#4972a0" stroke-width="1.2" stroke-linejoin="round"/>
<path d="M 305.65 354.31 L 341.37 353.19 L 340.91 374.21 L 305.65 354.31 Z" fill="#4a75a3" stroke="#4a75a3" stroke-width="1.2" stroke-linejoin="round"/>
<path d="M 332.00 392.83 L 306.96 375.75 L 340.91 374.21 L 332.00 392.83 Z" fill="#466e9d" stroke="#466e9d" stroke-width="1.2" stroke-linejoin="round"/>
<path d="M 359.04 370.81 L 340.91 374.21 L 341.37 353.19 L 359.04 370.81 Z" fill="#4973a2" stroke="#4973a2" stroke-width="1.2" stroke-linejoin="round"/>
<path d="M 332.00 392.83 L 340.91 374.21 L 362.74 408.98 L 332.00 392.83 Z" fill="#446b9c" stroke="#446b9c" stroke-width="1.2" stroke-linejoin="round"/>
<path d="M 362.74 408.98 L 340.91 374.21 L 359.04 370.81 L 362.74 408.98 Z" fill="#456e9e" stroke="#456e9e" stroke-width="1.2" stroke-linejoin="round"/>
<path d="M 569.63 120.94 L 558.36 137.23 L 550.55 122.61 L 569.63 120.94 Z" fill="#4da9c4" stroke="#4da9c4" stroke-width="1.2" stroke-linejoin="round"/>
<path d="M 523.60 124.00 L 550.55 122.61 L 525.03 140.53 L 523.60 124.00 Z" fill="#52abc7" stroke="#52abc7" stroke-width="1.2" stroke-linejoin="round"/>
<path d="M 558.36 137.23 L 525.03 140.53 L 550.55 122.61 L 558.36 137.23 Z" fill="#50a9c5" stroke="#50a9c5" stroke-width="1.2" stroke-linejoin="round"/>
<path d="M 523.60 124.00 L 537.46 90.74 L 550.55 122.61 L 523.60 124.00 Z" fill="#52aec8" stroke="#52aec8" stroke-width="1.2" stroke-linejoin="round"/>
<path d="M 537.46 90.74 L 551.00 95.92 L 550.55 122.61 L 537.46 90.74 Z" fill="#51afc8" stroke="#51afc8" stroke-width="1.2" stroke-linejoin="round"/>
<path d="M 576.35 109.88 L 569.63 120.94 L 564.00 102.30 L 576.35 109.88 Z" fill="#4cabc4" stroke="#4cabc4" stroke-width="1.2" stroke-linejoin="round"/>
<path d="M 569.63 120.94 L 550.55 122.61 L 564.00 102.30 L 569.63 120.94 Z" fill="#4dabc5" stroke="#4dabc5" stroke-width="1.2" stroke-linejoin="round"/>
<path d="M 551.00 95.92 L 564.00 102.30 L 550.55 122.61 L 551.00 95.92 Z" fill="#4fadc7" stroke="#4fadc7" stroke-width="1.2" stroke-linejoin="round"/>
<path d="M 394.54 297.32 L 389.10 287.12 L 403.91 287.12 L 394.54 297.32 Z" fill="#538bb4" stroke="#538bb4" stroke-width="1.2" stroke-linejoin="round"/>
<path d="M 424.54 297.98 L 394.54 297.32 L 403.91 287.12 L 424.54 297.98 Z" fill="#5189b3" stroke="#5189b3" stroke-width="1.2" stroke-linejoin="round"/>
<path d="M 424.54 297.98 L 396.86 314.67 L 394.54 297.32 L 424.54 297.98 Z" fill="#5087b1" stroke="#5087b1" stroke-width="1.2" stroke-linejoin="round"/>
<path d="M 372.53 298.17 L 394.54 297.32 L 396.86 314.67 L 372.53 298.17 Z" fill="#5187b1" stroke="#5187b1" stroke-width="1.2" stroke-linejoin="round"/>
<path d="M 394.54 297.32 L 372.53 298.17 L 389.10 287.12 L 394.54 297.32 Z" fill="#538ab3" stroke="#538ab3" stroke-width="1.2" stroke-linejoin="round"/>
<path d="M 365.02 213.05 L 385.82 213.15 L 389.10 227.86 L 365.02 213.05 Z" fill="#61a0c3" stroke="#61a0c3" stroke-width="1.2" stroke-linejoin="round"/>
<path d="M 385.82 213.15 L 389.10 213.04 L 389.10 227.86 L 385.82 213.15 Z" fill="#5fa0c3" stroke="#5fa0c3" stroke-width="1.2" stroke-linejoin="round"/>
<path d="M 423.54 356.58 L 420.73 374.91 L 416.03 366.36 L 411.29 366.36 L 423.54 356.58 Z" fill="#4676a6" stroke="#4676a6" stroke-width="1.2" stroke-linejoin="round"/>
<path d="M 396.79 366.36 L 385.62 353.61 L 411.29 366.36 L 396.79 366.36 Z" fill="#4776a5" stroke="#4776a5" stroke-width="1.2" stroke-linejoin="round"/>
<path d="M 385.62 353.61 L 417.22 330.82 L 411.29 366.36 L 385.62 353.61 Z" fill="#497aa8" stroke="#497aa8" stroke-width="1.2" stroke-linejoin="round"/>
<path d="M 417.22 330.82 L 423.54 356.58 L 411.29 366.36 L 417.22 330.82 Z" fill="#487aa8" stroke="#487aa8" stroke-width="1.2" stroke-linejoin="round"/>
<path d="M 306.81 456.60 L 277.09 456.40 L 277.09 441.90 L 306.81 456.60 Z" fill="#375488" stroke="#375488" stroke-width="1.2" stroke-linejoin="round"/>
<path d="M 310.21 420.44 L 277.09 427.41 L 277.09 412.91 L 310.21 420.44 Z" fill="#3e5f91" stroke="#3e5f91" stroke-width="1.2" stroke-linejoin="round"/>
<path d="M 312.53 404.79 L 310.21 420.44 L 277.09 412.91 L 312.53 404.79 Z" fill="#406293" stroke="#406293" stroke-width="1.2" stroke-linejoin="round"/>
<path d="M 330.94 425.94 L 310.21 420.44 L 312.53 404.79 L 330.94 425.94 Z" fill="#3f6294" stroke="#3f6294" stroke-width="1.2" stroke-linejoin="round"/>
<path d="M 330.94 425.94 L 306.81 456.60 L 310.21 420.44 L 330.94 425.94 Z" fill="#3b5c8f" stroke="#3b5c8f" stroke-width="1.2" stroke-linejoin="round"/>
<path d="M 310.21 420.44 L 277.09 441.90 L 277.09 427.41 L 310.21 420.44 Z" fill="#3c5c8e" stroke="#3c5c8e" stroke-width="1.2" stroke-linejoin="round"/>
<path d="M 310.21 420.44 L 306.81 456.60 L 277.09 441.90 L 310.21 420.44 Z" fill="#3a598c" stroke="#3a598c" stroke-width="1.2" stroke-linejoin="round"/>
<path d="M 632.05 250.04 L 628.91 264.18 L 609.35 245.08 L 632.05 250.04 Z" fill="#408eb6" stroke="#408eb6" stroke-width="1.2" stroke-linejoin="round"/>
<path d="M 609.35 245.08 L 628.91 264.18 L 622.12 272.37 L 609.35 245.08 Z" fill="#408db6" stroke="#408db6" stroke-width="1.2" stroke-linejoin="round"/>
<path d="M 628.91 264.18 L 632.05 250.04 L 632.05 250.04 L 631.67 252.58 L 629.24 263.12 L 628.91 264.18 L 628.91 264.18 Z" fill="#3e7fb1" stroke="#3e7fb1" stroke-width="1.2" stroke-linejoin="round"/>
<path d="M 580.88 296.53 L 591.71 325.33 L 574.04 320.80 L 580.88 296.53 Z" fill="#4284b2" stroke="#4284b2" stroke-width="1.2" stroke-linejoin="round"/>
<path d="M 580.88 296.53 L 601.76 314.90 L 591.71 325.33 L 580.88 296.53 Z" fill="#4185b2" stroke="#4185b2" stroke-width="1.2" stroke-linejoin="round"/>
<path d="M 601.76 314.90 L 601.76 314.90 L 597.72 319.55 L 591.71 325.33 L 601.76 314.90 Z" fill="#407cae" stroke="#407cae" stroke-width="1.2" stroke-linejoin="round"/>
<path d="M 580.88 296.53 L 608.63 278.05 L 602.93 299.14 L 580.88 296.53 Z" fill="#4188b4" stroke="#4188b4" stroke-width="1.2" stroke-linejoin="round"/>
<path d="M 580.88 296.53 L 602.93 299.14 L 601.76 314.90 L 580.88 296.53 Z" fill="#4186b3" stroke="#4186b3" stroke-width="1.2" stroke-linejoin="round"/>
<path d="M 634.15 221.17 L 630.64 220.49 L 633.14 206.71 L 634.15 221.17 Z" fill="#3f94b8" stroke="#3f94b8" stroke-width="1.2" stroke-linejoin="round"/>
<path d="M 633.73 235.65 L 630.64 220.49 L 634.15 221.17 L 633.73 235.65 Z" fill="#3f92b7" stroke="#3f92b7" stroke-width="1.2" stroke-linejoin="round"/>
<path d="M 634.15 221.17 L 634.18 226.22 L 634.10 230.56 L 633.73 235.65 L 634.15 221.17 Z" fill="#3e82b2" stroke="#3e82b2" stroke-width="1.2" stroke-linejoin="round"/>
<path d="M 518.69 163.08 L 554.79 168.70 L 515.96 199.89 L 518.69 163.08 Z" fill="#4fa1c1" stroke="#4fa1c1" stroke-width="1.2" stroke-linejoin="round"/>
<path d="M 559.53 194.24 L 515.96 199.89 L 554.79 168.70 L 559.53 194.24 Z" fill="#4d9ebf" stroke="#4d9ebf" stroke-width="1.2" stroke-linejoin="round"/>
<path d="M 569.04 162.81 L 559.53 194.24 L 554.79 168.70 L 569.04 162.81 Z" fill="#4a9fbf" stroke="#4a9fbf" stroke-width="1.2" stroke-linejoin="round"/>
<path d="M 569.04 162.81 L 554.79 168.70 L 558.36 137.23 L 569.04 162.81 Z" fill="#4ba3c1" stroke="#4ba3c1" stroke-width="1.2" stroke-linejoin="round"/>
<path d="M 518.69 163.08 L 525.03 140.53 L 554.79 168.70 L 518.69 163.08 Z" fill="#50a5c3" stroke="#50a5c3" stroke-width="1.2" stroke-linejoin="round"/>
<path d="M 558.36 137.23 L 554.79 168.70 L 525.03 140.53 L 558.36 137.23 Z" fill="#4ea6c3" stroke="#4ea6c3" stroke-width="1.2" stroke-linejoin="round"/>
<path d="M 509.39 83.61 L 509.39 83.61 L 504.65 91.08 L 495.03 81.62 L 495.03 81.62 L 509.39 83.61 Z" fill="#5cb8d0" stroke="#5cb8d0" stroke-width="1.2" stroke-linejoin="round"/>
<path d="M 478.50 82.71 L 480.59 80.47 L 495.03 81.62 L 478.50 82.71 Z" fill="#60bbd3" stroke="#60bbd3" stroke-width="1.2" stroke-linejoin="round"/>
<path d="M 495.03 81.62 L 504.65 91.08 L 478.50 82.71 L 495.03 81.62 L 495.03 81.62 Z" fill="#5eb9d1" stroke="#5eb9d1" stroke-width="1.2" stroke-linejoin="round"/>
<path d="M 452.77 89.52 L 437.10 80.00 L 451.60 80.00 L 452.77 89.52 Z" fill="#68c0d7" stroke="#68c0d7" stroke-width="1.2" stroke-linejoin="round"/>
<path d="M 419.75 147.28 L 419.78 169.40 L 408.38 173.06 L 419.75 147.28 Z" fill="#64adcc" stroke="#64adcc" stroke-width="1.2" stroke-linejoin="round"/>
<path d="M 419.78 169.40 L 423.20 173.06 L 408.38 173.06 L 419.78 169.40 Z" fill="#62abcb" stroke="#62abcb" stroke-width="1.2" stroke-linejoin="round"/>
<path d="M 419.75 147.28 L 435.32 171.66 L 419.78 169.40 L 419.75 147.28 Z" fill="#62adcc" stroke="#62adcc" stroke-width="1.2" stroke-linejoin="round"/>
<path d="M 419.78 169.40 L 435.32 171.66 L 423.20 173.06 L 419.78 169.40 Z" fill="#61aaca" stroke="#61aaca" stroke-width="1.2" stroke-linejoin="round"/>
<path d="M 361.41 148.94 L 391.66 148.39 L 367.75 160.05 L 361.41 148.94 Z" fill="#6db4d2" stroke="#6db4d2" stroke-width="1.2" stroke-linejoin="round"/>
<path d="M 391.66 148.39 L 386.96 168.37 L 367.75 160.05 L 391.66 148.39 Z" fill="#6ab1d0" stroke="#6ab1d0" stroke-width="1.2" stroke-linejoin="round"/>
<path d="M 358.33 197.39 L 332.07 163.09 L 367.75 160.05 L 358.33 197.39 Z" fill="#6dafcf" stroke="#6dafcf" stroke-width="1.2" stroke-linejoin="round"/>
<path d="M 332.07 163.09 L 361.41 148.94 L 367.75 160.05 L 332.07 163.09 Z" fill="#6fb4d3" stroke="#6fb4d3" stroke-width="1.2" stroke-linejoin="round"/>
<path d="M 393.57 173.06 L 391.66 148.39 L 408.38 173.06 L 393.57 173.06 Z" fill="#67aecd" stroke="#67aecd" stroke-width="1.2" stroke-linejoin="round"/>
<path d="M 386.96 168.37 L 391.66 148.39 L 393.57 173.06 L 386.96 168.37 Z" fill="#68afce" stroke="#68afce" stroke-width="1.2" stroke-linejoin="round"/>
<path d="M 422.60 80.00 L 411.34 94.15 L 408.11 80.00 L 422.60 80.00 Z" fill="#70c3dc" stroke="#70c3dc" stroke-width="1.2" stroke-linejoin="round"/>
<path d="M 437.10 80.00 L 440.56 106.44 L 422.60 80.00 L 437.10 80.00 Z" fill="#6bc0d8" stroke="#6bc0d8" stroke-width="1.2" stroke-linejoin="round"/>
<path d="M 440.56 106.44 L 411.34 94.15 L 422.60 80.00 L 440.56 106.44 Z" fill="#6cc0d8" stroke="#6cc0d8" stroke-width="1.2" stroke-linejoin="round"/>
<path d="M 395.91 94.02 L 379.11 80.00 L 393.61 80.00 L 395.91 94.02 Z" fill="#75c6df" stroke="#75c6df" stroke-width="1.2" stroke-linejoin="round"/>
<path d="M 408.11 80.00 L 395.91 94.02 L 393.61 80.00 L 408.11 80.00 Z" fill="#73c5dd" stroke="#73c5dd" stroke-width="1.2" stroke-linejoin="round"/>
<path d="M 435.32 171.66 L 447.98 149.00 L 438.01 173.06 L 435.32 171.66 Z" fill="#5fabca" stroke="#5fabca" stroke-width="1.2" stroke-linejoin="round"/>
<path d="M 438.01 173.06 L 447.98 149.00 L 452.83 173.06 L 438.01 173.06 Z" fill="#5eaac9" stroke="#5eaac9" stroke-width="1.2" stroke-linejoin="round"/>
<path d="M 435.32 171.66 L 438.01 173.06 L 423.20 173.06 L 435.32 171.66 Z" fill="#60aac9" stroke="#60aac9" stroke-width="1.2" stroke-linejoin="round"/>
<path d="M 568.34 342.37 L 574.04 320.80 L 580.54 334.55 L 568.34 342.37 Z" fill="#4281b0" stroke="#4281b0" stroke-width="1.2" stroke-linejoin="round"/>
<path d="M 574.04 320.80 L 591.71 325.33 L 580.54 334.55 L 574.04 320.80 Z" fill="#4182b1" stroke="#4182b1" stroke-width="1.2" stroke-linejoin="round"/>
<path d="M 580.54 334.55 L 580.54 334.55 L 571.38 340.68 L 568.34 342.37 L 580.54 334.55 Z" fill="#417cae" stroke="#417cae" stroke-width="1.2" stroke-linejoin="round"/>
<path d="M 580.54 334.55 L 591.71 325.33 L 589.71 327.25 L 580.93 334.29 L 580.54 334.55 L 580.54 334.55 Z" fill="#407cae" stroke="#407cae" stroke-width="1.2" stroke-linejoin="round"/>
<path d="M 608.63 278.05 L 618.06 291.01 L 602.93 299.14 L 608.63 278.05 Z" fill="#4088b4" stroke="#4088b4" stroke-width="1.2" stroke-linejoin="round"/>
<path d="M 478.50 82.71 L 466.10 80.01 L 480.59 80.47 L 478.50 82.71 Z" fill="#62bdd4" stroke="#62bdd4" stroke-width="1.2" stroke-linejoin="round"/>
<path d="M 478.50 82.71 L 452.77 89.52 L 466.10 80.01 L 478.50 82.71 Z" fill="#64bdd5" stroke="#64bdd5" stroke-width="1.2" stroke-linejoin="round"/>
<path d="M 466.10 80.01 L 452.77 89.52 L 451.60 80.00 L 466.10 80.01 Z" fill="#66bed6" stroke="#66bed6" stroke-width="1.2" stroke-linejoin="round"/>
<path d="M 386.96 168.37 L 393.57 173.06 L 389.10 173.06 L 389.10 183.41 L 386.96 168.37 Z" fill="#66accc" stroke="#66accc" stroke-width="1.2" stroke-linejoin="round"/>
<path d="M 358.33 197.39 L 367.75 160.05 L 389.10 183.41 L 358.33 197.39 Z" fill="#68accc" stroke="#68accc" stroke-width="1.2" stroke-linejoin="round"/>
<path d="M 367.75 160.05 L 386.96 168.37 L 389.10 183.41 L 367.75 160.05 Z" fill="#68aece" stroke="#68aece" stroke-width="1.2" stroke-linejoin="round"/>
<path d="M 601.76 314.90 L 602.93 299.14 L 610.61 303.43 L 601.76 314.90 Z" fill="#4186b3" stroke="#4186b3" stroke-width="1.2" stroke-linejoin="round"/>
<path d="M 602.93 299.14 L 618.06 291.01 L 610.61 303.43 L 602.93 299.14 Z" fill="#4087b3" stroke="#4087b3" stroke-width="1.2" stroke-linejoin="round"/>
<path d="M 592.25 461.36 L 592.25 461.36 L 596.30 468.30 L 592.25 461.36 Z" fill="#3e73ab" stroke="#3e73ab" stroke-width="1.2" stroke-linejoin="round"/>
<path d="M 610.61 303.43 L 608.30 306.77 L 604.96 311.20 L 601.76 314.90 L 610.61 303.43 Z" fill="#3f7caf" stroke="#3f7caf" stroke-width="1.2" stroke-linejoin="round"/>
<path d="M 614.16 498.94 L 606.85 486.41 L 614.16 498.94 L 614.16 498.94 Z" fill="#3e71ab" stroke="#3e71ab" stroke-width="1.2" stroke-linejoin="round"/>
<path d="M 618.06 291.01 L 617.10 292.92 L 611.43 302.23 L 610.61 303.43 L 618.06 291.01 Z" fill="#3f7caf" stroke="#3f7caf" stroke-width="1.2" stroke-linejoin="round"/>
<path d="M 622.12 272.37 L 628.91 264.18 L 624.17 277.87 L 624.17 277.87 L 622.12 272.37 Z" fill="#3f8bb5" stroke="#3f8bb5" stroke-width="1.2" stroke-linejoin="round"/>
<path d="M 624.17 277.87 L 608.63 278.05 L 622.12 272.37 L 624.17 277.87 L 624.17 277.87 Z" fill="#408bb5" stroke="#408bb5" stroke-width="1.2" stroke-linejoin="round"/>
<path d="M 618.06 291.01 L 608.63 278.05 L 624.17 277.87 L 624.17 277.87 L 618.06 291.01 Z" fill="#408ab4" stroke="#408ab4" stroke-width="1.2" stroke-linejoin="round"/>
<path d="M 628.91 264.18 L 628.91 264.18 L 626.00 273.36 L 624.17 277.87 L 628.91 264.18 Z" fill="#3e7db0" stroke="#3e7db0" stroke-width="1.2" stroke-linejoin="round"/>
<path d="M 618.06 291.01 L 624.17 277.87 L 621.96 283.29 L 618.06 291.01 L 618.06 291.01 Z" fill="#3e7cb0" stroke="#3e7cb0" stroke-width="1.2" stroke-linejoin="round"/>
<path d="M 385.82 213.15 L 389.10 198.23 L 389.10 213.04 L 385.82 213.15 Z" fill="#61a3c5" stroke="#61a3c5" stroke-width="1.2" stroke-linejoin="round"/>
<path d="M 389.10 198.23 L 358.33 197.39 L 389.10 183.41 L 389.10 198.23 Z" fill="#65a8c9" stroke="#65a8c9" stroke-width="1.2" stroke-linejoin="round"/>
<path d="M 365.02 213.05 L 358.33 197.39 L 389.10 198.23 L 365.02 213.05 Z" fill="#64a5c7" stroke="#64a5c7" stroke-width="1.2" stroke-linejoin="round"/>
<path d="M 385.82 213.15 L 365.02 213.05 L 389.10 198.23 L 385.82 213.15 Z" fill="#62a3c6" stroke="#62a3c6" stroke-width="1.2" stroke-linejoin="round"/>
<path d="M 116.62 708.90 L 90.00 708.90 L 90.00 599.56 L 134.71 599.56 L 136.31 599.58 L 139.42 599.72 L 142.41 600.00 L 145.28 600.42 L 148.04 600.99 L 150.67 601.70 L 153.19 602.55 L 155.58 603.54 L 156.73 604.08 L 157.86 604.66 L 159.99 605.89 L 161.99 607.23 L 163.83 608.67 L 165.54 610.22 L 167.10 611.87 L 168.51 613.63 L 169.78 615.50 L 170.36 616.47 L 170.91 617.46 L 171.90 619.48 L 172.75 621.56 L 173.46 623.69 L 174.02 625.89 L 174.45 628.13 L 174.73 630.43 L 174.87 632.79 L 174.89 633.99 L 174.86 635.35 L 174.67 638.00 L 174.29 640.58 L 173.71 643.09 L 172.94 645.52 L 171.98 647.88 L 170.82 650.17 L 169.48 652.38 L 168.73 653.46 L 167.94 654.52 L 166.22 656.50 L 164.31 658.33 L 162.23 660.01 L 159.96 661.52 L 157.50 662.89 L 154.87 664.09 L 152.05 665.14 L 150.58 665.61 L 175.81 708.90 L 145.76 708.90 L 123.03 667.63 L 116.62 667.63 L 116.62 708.90 Z M 135.76 648.67 L 137.36 648.44 L 138.84 648.11 L 140.21 647.66 L 141.46 647.10 L 142.60 646.43 L 143.63 645.65 L 144.10 645.21 L 144.55 644.75 L 145.35 643.76 L 146.04 642.68 L 146.61 641.50 L 147.07 640.23 L 147.42 638.87 L 147.65 637.42 L 147.76 635.87 L 147.78 635.07 L 147.76 634.30 L 147.65 632.82 L 147.42 631.43 L 147.07 630.12 L 146.61 628.90 L 146.04 627.75 L 145.35 626.69 L 144.55 625.72 L 144.10 625.26 L 143.63 624.82 L 142.60 624.04 L 141.46 623.37 L 140.21 622.81 L 138.84 622.36 L 137.36 622.03 L 135.76 621.81 L 134.05 621.69 L 133.15 621.68 L 116.62 621.68 L 116.62 648.79 L 133.15 648.79 L 134.05 648.78 L 135.76 648.67 Z M 256.50 663.59 L 220.82 663.59 L 220.82 687.56 L 261.17 687.56 L 261.17 708.90 L 194.20 708.90 L 194.20 599.56 L 261.17 599.56 L 261.17 620.90 L 220.82 620.90 L 220.82 643.02 L 256.50 643.02 L 256.50 663.59 Z M 306.18 708.90 L 279.56 708.90 L 279.56 599.56 L 306.18 599.56 L 350.74 667.31 L 350.74 599.56 L 377.37 599.56 L 377.37 708.90 L 350.74 708.90 L 306.18 641.47 L 306.18 708.90 Z M 445.43 708.90 L 418.80 708.90 L 418.80 620.90 L 389.84 620.90 L 389.84 599.56 L 474.41 599.56 L 474.41 620.90 L 445.43 620.90 L 445.43 708.90 Z M 492.80 599.56 L 519.42 599.56 L 519.42 708.90 L 492.80 708.90 L 492.80 599.56 Z M 600.11 663.59 L 564.43 663.59 L 564.43 687.56 L 604.78 687.56 L 604.78 708.90 L 537.81 708.90 L 537.81 599.56 L 604.78 599.56 L 604.78 620.90 L 564.43 620.90 L 564.43 643.02 L 600.11 643.02 L 600.11 663.59 Z M 649.79 708.90 L 623.17 708.90 L 623.17 599.56 L 667.87 599.56 L 669.47 599.58 L 672.59 599.72 L 675.58 600.00 L 678.45 600.42 L 681.20 600.99 L 683.84 601.70 L 686.35 602.55 L 688.75 603.54 L 689.90 604.08 L 691.02 604.66 L 693.16 605.89 L 695.15 607.23 L 697.00 608.67 L 698.70 610.22 L 700.26 611.87 L 701.68 613.63 L 702.95 615.50 L 703.53 616.47 L 704.08 617.46 L 705.07 619.48 L 705.91 621.56 L 706.62 623.69 L 707.19 625.89 L 707.61 628.13 L 707.89 630.43 L 708.04 632.79 L 708.05 633.99 L 708.03 635.35 L 707.84 638.00 L 707.45 640.58 L 706.88 643.09 L 706.11 645.52 L 705.14 647.88 L 703.99 650.17 L 702.64 652.38 L 701.90 653.46 L 701.10 654.52 L 699.38 656.50 L 697.48 658.33 L 695.39 660.01 L 693.12 661.52 L 690.67 662.89 L 688.04 664.09 L 685.22 665.14 L 683.74 665.61 L 708.98 708.90 L 678.92 708.90 L 656.19 667.63 L 649.79 667.63 L 649.79 708.90 Z M 668.93 648.67 L 670.52 648.44 L 672.01 648.11 L 673.37 647.66 L 674.63 647.10 L 675.77 646.43 L 676.80 645.65 L 677.27 645.21 L 677.71 644.75 L 678.52 643.76 L 679.21 642.68 L 679.78 641.50 L 680.24 640.23 L 680.58 638.87 L 680.81 637.42 L 680.93 635.87 L 680.94 635.07 L 680.93 634.30 L 680.81 632.82 L 680.58 631.43 L 680.24 630.12 L 679.78 628.90 L 679.21 627.75 L 678.52 626.69 L 677.71 625.72 L 677.27 625.26 L 676.80 624.82 L 675.77 624.04 L 674.63 623.37 L 673.37 622.81 L 672.01 622.36 L 670.52 622.03 L 668.93 621.81 L 667.21 621.69 L 666.32 621.68 L 649.79 621.68 L 649.79 648.79 L 666.32 648.79 L 667.21 648.78 L 668.93 648.67 Z M 759.67 709.62 L 756.90 709.25 L 754.22 708.77 L 751.61 708.16 L 749.08 707.43 L 746.62 706.58 L 745.42 706.11 L 744.25 705.60 L 742.00 704.51 L 739.86 703.31 L 737.84 701.99 L 735.94 700.55 L 734.17 698.99 L 732.50 697.32 L 730.96 695.53 L 730.24 694.59 L 729.55 693.63 L 728.30 691.62 L 727.21 689.51 L 726.30 687.31 L 725.55 685.01 L 724.97 682.61 L 724.55 680.12 L 724.31 677.53 L 724.25 676.20 L 752.60 676.20 L 752.69 676.94 L 752.93 678.38 L 753.27 679.72 L 753.70 680.97 L 754.22 682.12 L 754.84 683.19 L 755.55 684.17 L 756.35 685.06 L 756.79 685.47 L 757.25 685.85 L 758.21 686.55 L 759.25 687.15 L 760.35 687.65 L 761.52 688.05 L 762.75 688.34 L 764.05 688.54 L 765.42 688.64 L 766.13 688.66 L 766.86 688.65 L 768.27 688.56 L 769.60 688.39 L 770.84 688.13 L 772.01 687.79 L 773.10 687.37 L 774.11 686.86 L 775.04 686.26 L 775.48 685.93 L 775.89 685.58 L 776.64 684.83 L 777.29 684.02 L 777.82 683.14 L 778.25 682.20 L 778.57 681.19 L 778.79 680.12 L 778.90 678.98 L 778.91 678.39 L 778.90 677.88 L 778.81 676.91 L 778.64 675.99 L 778.39 675.10 L 778.05 674.27 L 777.62 673.48 L 777.11 672.73 L 776.51 672.03 L 776.18 671.69 L 775.48 671.04 L 773.96 669.84 L 772.29 668.75 L 770.46 667.78 L 769.49 667.34 L 768.45 666.90 L 766.04 665.98 L 761.65 664.48 L 758.20 663.42 L 755.61 662.60 L 750.80 660.97 L 746.48 659.34 L 742.63 657.71 L 740.89 656.90 L 740.07 656.47 L 738.45 655.56 L 736.89 654.54 L 735.40 653.43 L 733.96 652.22 L 732.58 650.92 L 731.26 649.52 L 729.99 648.02 L 729.38 647.23 L 728.80 646.42 L 727.75 644.70 L 726.84 642.86 L 726.09 640.89 L 725.49 638.81 L 725.04 636.60 L 724.73 634.28 L 724.58 631.83 L 724.56 630.56 L 724.58 629.62 L 724.66 627.76 L 724.83 625.96 L 725.09 624.20 L 725.44 622.50 L 725.87 620.85 L 726.39 619.26 L 726.99 617.71 L 727.68 616.22 L 728.46 614.78 L 729.32 613.39 L 730.27 612.05 L 731.31 610.76 L 732.43 609.53 L 733.64 608.34 L 734.93 607.21 L 735.61 606.66 L 736.31 606.13 L 737.74 605.12 L 739.23 604.17 L 740.77 603.29 L 742.36 602.48 L 744.00 601.73 L 745.70 601.05 L 747.45 600.45 L 749.25 599.90 L 751.10 599.43 L 753.98 598.85 L 758.00 598.30 L 762.23 598.03 L 764.43 598.00 L 766.66 598.03 L 770.95 598.30 L 775.03 598.85 L 777.94 599.43 L 779.82 599.90 L 781.64 600.45 L 783.40 601.05 L 785.11 601.73 L 786.77 602.48 L 788.37 603.29 L 789.91 604.17 L 791.40 605.12 L 792.84 606.13 L 793.54 606.66 L 794.22 607.21 L 795.52 608.34 L 796.75 609.53 L 797.89 610.77 L 798.95 612.06 L 799.93 613.40 L 800.83 614.80 L 801.66 616.25 L 802.40 617.75 L 803.06 619.31 L 803.64 620.92 L 804.14 622.58 L 804.56 624.29 L 804.89 626.06 L 805.15 627.88 L 805.33 629.75 L 805.39 630.71 L 776.57 630.71 L 776.52 630.06 L 776.34 628.81 L 776.06 627.63 L 775.67 626.52 L 775.19 625.48 L 774.60 624.51 L 773.91 623.61 L 773.11 622.77 L 772.68 622.39 L 772.22 622.02 L 771.27 621.35 L 770.25 620.78 L 769.16 620.31 L 768.02 619.93 L 766.81 619.64 L 765.53 619.45 L 764.20 619.36 L 763.50 619.34 L 762.91 619.35 L 761.75 619.43 L 760.66 619.60 L 759.63 619.84 L 758.65 620.16 L 757.73 620.56 L 756.87 621.05 L 756.07 621.61 L 755.69 621.92 L 755.34 622.25 L 754.69 622.96 L 754.14 623.74 L 753.68 624.60 L 753.31 625.52 L 753.03 626.52 L 752.85 627.59 L 752.76 628.73 L 752.75 629.32 L 752.77 629.97 L 752.92 631.22 L 753.23 632.40 L 753.70 633.50 L 754.33 634.53 L 755.11 635.49 L 756.04 636.38 L 757.13 637.19 L 757.74 637.57 L 759.07 638.32 L 762.27 639.85 L 766.16 641.44 L 770.75 643.10 L 773.31 643.95 L 775.90 644.84 L 780.69 646.59 L 785.00 648.31 L 788.80 649.99 L 790.52 650.81 L 791.34 651.23 L 792.94 652.14 L 794.48 653.14 L 795.97 654.23 L 797.40 655.42 L 798.77 656.70 L 800.09 658.07 L 801.35 659.54 L 801.96 660.30 L 802.54 661.10 L 803.60 662.77 L 804.51 664.55 L 805.27 666.44 L 805.87 668.44 L 806.33 670.56 L 806.63 672.79 L 806.78 675.13 L 806.80 676.34 L 806.78 677.50 L 806.63 679.79 L 806.33 682.02 L 805.89 684.19 L 805.29 686.32 L 804.55 688.39 L 803.65 690.40 L 802.61 692.37 L 802.03 693.33 L 801.42 694.27 L 800.10 696.09 L 798.65 697.80 L 797.06 699.42 L 795.34 700.94 L 793.48 702.36 L 791.49 703.69 L 789.37 704.92 L 788.26 705.50 L 787.11 706.04 L 784.75 707.03 L 782.29 707.87 L 779.73 708.58 L 777.06 709.14 L 774.29 709.56 L 771.41 709.84 L 768.44 709.98 L 766.91 710.00 L 765.42 709.98 L 762.51 709.86 L 759.67 709.62 Z" fill="#152357"/>
</svg>