<svg width="195" height="24" viewBox="0 0 195 24" fill="none" xmlns="http://www.w3.org/2000/svg">
<path fill-rule="evenodd" clip-rule="evenodd" d="M82.0686 19.6152H85.6386V14.4072C85.6386 12.2757 85.9203 11.448 86.7655 11.448C87.6106 11.448 87.8923 12.2757 87.8923 13.5796V19.6177H91.4624V14.4097C91.4624 12.2782 91.7441 11.4505 92.5892 11.4505C93.3396 11.4505 93.7186 12.161 93.7186 13.3452V19.6202H97.2861V12.3979C97.2861 9.43864 96.254 7.90044 93.7186 7.90044C92.497 7.90044 91.6518 8.37411 90.9937 9.32146L90.8067 9.5583C90.1485 8.49378 89.4904 7.78326 88.0818 7.78326C86.8602 7.78326 86.0151 8.25694 85.4517 9.20429L84.8882 8.13977H82.0686V19.6227V19.6152Z" fill="#51547E" fill-opacity="0.6"/>
<path fill-rule="evenodd" clip-rule="evenodd" d="M76.3804 3.54022H72.5287L68.0188 19.6377H71.9628L72.5287 17.389H76.6621L77.2256 19.6377H81.1695L76.3779 3.54022H76.3804ZM73.3614 13.9586L74.4882 9.81518L75.7098 13.9586H73.3614Z" fill="#51547E" fill-opacity="0.6"/>
<path fill-rule="evenodd" clip-rule="evenodd" d="M10.1442 11.4694L9.76771 11.1129C10.5181 10.2852 10.9893 9.69188 10.9893 7.91684C10.9893 5.19445 9.67546 3.65625 7.04531 3.65625H0V19.6366H6.20017C9.67546 19.6366 11.6475 18.6892 11.6475 15.1391C11.6475 13.7181 11.1788 12.5339 10.1442 11.4694ZM4.22071 7.60022H6.28743C7.13257 7.60022 7.32204 7.95423 7.32204 8.90159C7.32204 9.84894 7.04033 9.84894 6.19519 9.84894H4.2232V7.60022H4.22071ZM6.66637 15.8073H4.2232V13.3217H6.76111C7.51151 13.3217 7.88796 13.6782 7.88796 14.6231C7.88796 15.6901 7.60625 15.8073 6.66637 15.8073Z" fill="#51547E" fill-opacity="0.6"/>
<path fill-rule="evenodd" clip-rule="evenodd" d="M34.1472 19.6364H37.7172V14.7825L40.2527 19.6364H44.2939L40.7238 12.7706L44.0121 8.15352H39.8787L37.7172 11.2324V3.89044H34.1472V19.6364Z" fill="#51547E" fill-opacity="0.6"/>
<path fill-rule="evenodd" clip-rule="evenodd" d="M23.043 19.6157H26.613V14.4078C26.613 12.2763 27.1764 11.3289 28.1163 11.3289C29.1509 11.3289 29.5249 12.2763 29.5249 13.6948V19.6157H33.0949V13.1039C33.0949 9.67105 31.968 7.65668 29.5249 7.65668C28.4927 7.65668 27.7398 8.01069 26.9894 8.95804L26.8025 9.19238L26.426 8.12786H23.043V19.6108V19.6157Z" fill="#51547E" fill-opacity="0.6"/>
<path fill-rule="evenodd" clip-rule="evenodd" d="M52.2257 7.65033C49.3138 7.65033 47.3418 10.3727 47.3418 14.0425C47.3418 17.7122 49.3138 20.0806 52.5074 20.0806C55.7009 20.0806 57.299 17.7147 57.299 14.2793C57.299 10.0187 55.514 7.65033 52.2257 7.65033ZM52.4126 16.9917C50.9243 16.9917 50.9093 14.935 50.9093 13.8829C50.9093 12.2948 51.2534 10.9536 52.4126 10.9536C53.4398 10.9536 53.8062 11.8636 53.8212 13.7583C53.8411 16.1665 53.3151 16.9917 52.4126 16.9917Z" fill="#51547E" fill-opacity="0.6"/>
<path fill-rule="evenodd" clip-rule="evenodd" d="M103.438 17.1171C102.593 17.1171 102.122 16.5263 101.935 15.2224H108.135C108.135 10.7225 106.632 7.64612 103.344 7.64612C100.337 7.64612 98.365 10.1317 98.365 14.0382C98.365 17.9448 100.337 20.2534 103.531 20.2534C106.161 20.2534 107.288 18.6553 108.133 16.0501H105.031C104.939 16.6435 104.373 17.1146 103.436 17.1146L103.438 17.1171ZM103.339 10.8721C104.184 10.8721 104.655 11.5826 104.75 12.53H101.838C102.025 11.4654 102.496 10.8721 103.341 10.8721H103.339Z" fill="#51547E" fill-opacity="0.6"/>
<path fill-rule="evenodd" clip-rule="evenodd" d="M17.2122 7.87396C14.1134 7.87396 12.7023 9.53183 12.7023 12.2542H15.7089C15.7089 11.5437 16.1801 10.7135 17.2122 10.7135C17.6834 10.7135 18.0574 11.1872 18.0574 11.7805C18.0574 13.7924 12.1389 11.7805 12.1389 16.7516C12.1389 18.8832 13.2658 20.1845 15.1455 20.1845C16.5541 20.1845 17.5887 19.5937 18.1521 18.8832L18.7155 19.5937H21.8169V13.5556C21.8169 9.76867 20.877 7.87396 17.2147 7.87396H17.2122ZM18.0549 16.0287C18.0549 16.7392 17.302 17.4497 16.7411 17.4497C16.1801 17.4497 15.8959 16.976 15.8959 16.5023C15.8959 15.7918 16.4593 14.9641 18.0574 14.7273V16.0287H18.0549Z" fill="#51547E" fill-opacity="0.6"/>
<path fill-rule="evenodd" clip-rule="evenodd" d="M136.928 7.88452C133.921 7.88452 132.325 9.42272 132.325 12.2648H135.332C135.332 11.5543 135.708 10.7266 136.835 10.7266C137.304 10.7266 137.68 11.2003 137.68 11.7911C137.68 13.803 131.951 11.7911 131.951 16.7622C131.951 18.8912 133.078 20.0779 134.958 20.0779C136.272 20.0779 137.306 19.6043 137.775 18.8937L138.339 19.6043H141.437V13.5661C141.437 9.8964 140.592 7.88452 136.93 7.88452H136.928ZM137.678 16.0293C137.678 16.7398 136.927 17.4503 136.364 17.4503C135.801 17.4503 135.519 16.9766 135.519 16.5029C135.519 15.7924 136.082 14.9647 137.68 14.7279V16.0293H137.678Z" fill="#51547E" fill-opacity="0.6"/>
<path fill-rule="evenodd" clip-rule="evenodd" d="M127.902 14.9766C127.807 16.5148 127.526 16.8713 126.588 16.8713C125.272 16.8713 124.803 15.6871 124.803 14.1464C124.803 12.2542 125.088 11.07 126.401 11.07C127.247 11.07 127.341 11.1872 127.905 12.4911H130.724C130.537 9.53183 129.503 7.87396 126.404 7.87396C123.492 7.87396 121.707 10.0055 121.707 13.6727C121.707 17.699 123.305 20.1845 126.499 20.1845C128.942 20.1845 130.819 18.6463 131.006 15.8043L131.101 14.9741H127.907L127.902 14.9766Z" fill="#51547E" fill-opacity="0.6"/>
<path fill-rule="evenodd" clip-rule="evenodd" d="M109.354 19.6133H112.924V15.5896C112.924 12.6303 113.582 11.8027 115.649 11.5658H116.026V8.01324C114.804 8.01324 113.864 8.01324 112.832 9.43427L112.269 8.13042H109.357V19.6133H109.354Z" fill="#51547E" fill-opacity="0.6"/>
<path fill-rule="evenodd" clip-rule="evenodd" d="M58.439 10.9967H59.6605V19.6376H63.2306V10.9967H64.7339V8.15467H63.2306C63.2306 6.97048 63.4176 6.85081 63.794 6.85081H64.9209V3.77441H62.4777C60.8796 3.77441 59.8475 4.13092 59.8475 6.61647V8.15716H58.439V10.9992V10.9967Z" fill="#51547E" fill-opacity="0.6"/>
<path fill-rule="evenodd" clip-rule="evenodd" d="M117.023 19.6143H120.593V8.13141H117.023V19.6143Z" fill="#51547E" fill-opacity="0.6"/>
<path fill-rule="evenodd" clip-rule="evenodd" d="M117.023 6.91925H120.593V3.60352H117.023V6.91925Z" fill="#51547E" fill-opacity="0.6"/>
<path fill-rule="evenodd" clip-rule="evenodd" d="M164.353 5.128C162.578 5.8784 154.835 9.33125 151.943 11.019C150.694 10.5354 149.632 10.1814 148.181 9.64038C154.194 6.13518 160.729 4.14575 160.843 3.99866C162.067 4.32026 163.109 4.82385 164.353 5.128Z" fill="#51547E" fill-opacity="0.6"/>
<path fill-rule="evenodd" clip-rule="evenodd" d="M170.16 7.54893C168.385 8.29933 160.59 12.0588 157.695 13.7491C156.346 13.0735 155.028 12.4004 153.684 11.8569C159.697 8.35169 165.935 6.0232 166.047 5.8786C167.204 6.32735 168.939 7.10019 170.158 7.54893H170.16Z" fill="#51547E" fill-opacity="0.6"/>
<path fill-rule="evenodd" clip-rule="evenodd" d="M188.92 6.23354C187.145 6.98395 174.924 10.9379 163.349 18.6339C161.883 17.7364 159.519 16.3702 158.073 15.899C164.087 12.3938 172.052 7.1086 184.195 3.99231C186.025 4.79507 187.282 5.49311 188.92 6.23354Z" fill="#51547E" fill-opacity="0.6"/>
<path fill-rule="evenodd" clip-rule="evenodd" d="M194.639 9.44428C192.864 10.1947 178.031 17.2824 170.836 23.5473C169.519 22.777 166.66 20.623 165.326 19.9125C171.093 16.1929 178.417 10.7955 190.434 7.16565C192.263 7.96841 193.163 8.5792 194.642 9.44677L194.639 9.44428Z" fill="#51547E" fill-opacity="0.6"/>
<path fill-rule="evenodd" clip-rule="evenodd" d="M164.456 1.40979C167.622 2.4419 172.247 4.04991 175.269 5.5906C174.311 6.11414 173.015 6.46815 171.858 6.9493C164.172 3.72831 161.053 2.78096 160.909 2.66877C161.597 2.3721 163.863 1.60923 164.456 1.40979Z" fill="#51547E" fill-opacity="0.6"/>
<path fill-rule="evenodd" clip-rule="evenodd" d="M170.062 0.000366211C173.228 1.03248 178.062 2.40863 181.081 3.95182C180.054 4.2086 178.568 4.51275 177.389 5.00388C169.703 1.78288 166.871 0.947718 166.727 0.833038C167.415 0.536368 169.469 0.197316 170.062 0.000366211Z" fill="#51547E" fill-opacity="0.6"/>
</svg>
