<svg width="184" height="24" viewBox="0 0 184 24" fill="none" xmlns="http://www.w3.org/2000/svg">
<path d="M75.1016 7.30884H63.266V9.97027L63.6228 9.93781V9.90536C63.6875 9.51587 64.4009 8.76938 65.2764 8.76938C65.2764 8.76938 67.8057 8.76938 67.903 8.76938C67.903 8.8992 67.903 22.4984 67.903 22.4984H70.4972C70.4972 22.4984 70.4972 8.8992 70.4972 8.80184C70.6268 8.80184 73.1884 8.80184 73.1884 8.80184C74.0966 8.80184 74.6801 9.28866 74.7774 9.74305V9.80796H75.1665L75.1342 7.37375H75.1016V7.30884Z" fill="#51547E" fill-opacity="0.6"/>
<path d="M16.0188 7.30884H15.954V7.66587L15.9864 7.69832C16.2134 7.82814 16.4404 8.3799 16.4404 9.06148V22.4984H18.9696C18.9696 22.4984 18.9696 15.715 18.9696 15.5852C19.0993 15.5852 20.1046 15.5852 20.1046 15.5852C21.1098 15.6501 21.4989 16.2992 21.9853 17.1431L22.0501 17.2405L22.3744 17.7598C22.9257 18.6686 23.6715 19.9019 24.4173 21.0703C24.9685 21.8817 25.6495 22.3686 26.525 22.4984C27.1411 22.5958 28.3734 22.5633 28.8597 22.4335L29.411 22.3036L29.638 22.2387L28.8597 22.0116C28.5355 21.9142 28.049 21.687 27.4005 20.9405C26.979 20.4861 26.3304 19.415 25.3252 17.8572L24.3524 16.2992L24.32 16.2668C24.0606 15.8773 23.6066 15.2606 22.8608 14.8712C24.2876 14.4168 25.6819 13.1185 25.6819 11.1711C25.6819 10.6194 25.5522 9.58078 24.6118 8.67199C23.6715 7.76323 22.1799 7.30884 20.1694 7.30884H16.0188ZM20.364 8.67199C22.9581 8.76938 23.0229 10.9764 23.0229 11.2036C23.0229 13.4106 21.4016 14.1896 19.9749 14.1896C19.9749 14.1896 19.0669 14.1571 18.9696 14.1571C18.9696 14.0273 18.9696 8.80184 18.9696 8.67199C19.2615 8.67199 19.7479 8.63954 20.364 8.67199Z" fill="#51547E" fill-opacity="0.6"/>
<path d="M41.9594 7.30754H41.8945L41.9268 7.69703H41.9594C42.1865 7.79439 42.3809 8.34615 42.3809 8.80054V22.4647H46.7259C49.5795 22.4647 51.9791 21.5883 53.6003 19.9006C54.9625 18.505 55.7082 16.5901 55.7082 14.6427C55.7082 13.4742 55.3191 11.6892 54.1842 10.2286C52.6925 8.28124 50.3253 7.27509 47.1151 7.27509L41.9594 7.30754ZM44.9752 8.76809C45.1047 8.76809 46.3371 8.76809 46.3371 8.76809C46.6936 8.76809 47.6015 8.80054 48.2502 8.89791C52.5304 9.54703 52.9844 13.1497 52.9844 14.6427C52.9844 15.876 52.7574 17.6611 51.6874 19.0243C50.6498 20.355 49.0283 21.0366 46.8234 21.0366C46.3045 21.0366 45.656 21.0366 44.9426 21.0041C44.9752 20.9068 44.9752 8.89791 44.9752 8.76809Z" fill="#51547E" fill-opacity="0.6"/>
<path d="M60.9629 7.30884H57.9795V7.66587L58.0121 7.69832C58.2714 7.82814 58.4659 8.31499 58.4659 8.96411V22.4984H60.9952V7.34129L60.9629 7.30884Z" fill="#51547E" fill-opacity="0.6"/>
<path d="M38.6861 7.30884H30.1578L30.1904 7.66587H30.2227C30.4498 7.79569 30.7091 8.31499 30.7091 9.02902V22.466H39.2048L39.8209 19.7721L39.4644 19.6422L39.3669 19.8045C38.6535 20.908 37.9404 21.0379 35.4759 21.0379C34.6004 21.0703 33.7248 20.9729 33.2059 20.9405C33.2059 20.8431 33.2059 14.8712 33.2059 14.7413C33.3357 14.7413 37.5186 14.7413 37.5186 14.7413V13.3782C37.5186 13.3782 33.3357 13.3782 33.2059 13.3782C33.2059 13.2484 33.2059 8.76938 33.2059 8.67199C33.3357 8.67199 36.708 8.70445 36.708 8.70445C37.4863 8.70445 38.3618 9.45096 38.4267 9.90536V9.97027H38.7833L38.6861 7.30884Z" fill="#51547E" fill-opacity="0.6"/>
<path d="M109.795 7.30884H106.811L106.844 7.66587H106.876C107.136 7.79569 107.33 8.31499 107.33 8.96411V22.4984H109.859V7.34129L109.795 7.30884Z" fill="#51547E" fill-opacity="0.6"/>
<path d="M145.205 7.30754H136.709L136.742 7.69703H136.774C137.001 7.82684 137.261 8.31369 137.261 9.02772V22.4647H145.757L146.372 19.7708L145.984 19.641L145.886 19.8033C145.173 20.9068 144.459 21.0366 142.027 21.0366C141.152 21.069 140.276 20.9717 139.758 20.9392C139.758 20.8418 139.758 14.8699 139.758 14.7401C139.887 14.7401 144.07 14.7401 144.07 14.7401V13.3769C144.07 13.3769 139.887 13.3769 139.758 13.3769C139.758 13.2471 139.758 8.76809 139.758 8.67072C139.887 8.67072 143.26 8.70318 143.26 8.70318C144.233 8.70318 144.946 9.41721 144.946 9.90406V9.96897L145.335 9.93651L145.27 7.27509L145.205 7.30754Z" fill="#51547E" fill-opacity="0.6"/>
<path d="M113.914 11.1403C113.881 13.25 115.146 14.2886 117.221 15.3272L117.999 15.7167C119.621 16.5281 120.691 17.0474 120.691 18.5728C120.691 18.8325 120.626 19.7413 119.945 20.4553C119.459 20.9421 118.778 21.1694 117.934 21.1694C115.502 21.1369 114.627 19.2544 114.303 18.1509L114.238 17.9562L113.719 18.0535L113.849 21.2343L113.978 21.2992C114.789 21.7536 116.151 22.5325 118.064 22.565C119.459 22.565 120.853 22.0132 121.793 21.072C122.636 20.2281 123.09 19.1895 123.09 18.0211C123.09 15.3597 121.242 14.4184 119.296 13.3798L118.94 13.1851C116.832 12.1465 116.119 11.6596 116.119 10.4912C116.119 9.67979 116.735 8.44646 118.421 8.47891C120.464 8.51137 121.339 9.97192 121.534 10.7509L121.599 10.9781L122.118 10.9131L121.923 8.12191L121.826 8.05697C120.658 7.27803 119.199 7.18067 118.615 7.18067C116.346 7.14821 113.946 8.54382 113.914 11.1403Z" fill="#51547E" fill-opacity="0.6"/>
<path d="M80.5805 11.1369C80.5479 13.2466 81.8126 14.2852 83.8879 15.3238L84.6662 15.7132C86.2874 16.5246 87.3574 17.0439 87.3574 18.5694C87.3574 18.8291 87.2927 19.7378 86.6116 20.4519C86.1253 20.9387 85.4445 21.1659 84.6013 21.1659C82.1694 21.1335 81.2939 19.251 80.9696 18.1475L80.9047 17.9527L80.3857 18.0501L80.5156 21.2308L80.6451 21.2957C81.456 21.7501 82.8179 22.5291 84.7311 22.5615C86.1253 22.5615 87.5195 22.0098 88.4599 21.0686C89.3031 20.2247 89.7569 19.1861 89.7569 18.0176C89.7569 15.3562 87.9086 14.415 85.9632 13.3764L85.6066 13.1817C83.4987 12.1431 82.7853 11.6562 82.7853 10.4878C82.7853 9.67636 83.4015 8.44302 85.0876 8.47548C87.1306 8.50793 88.0061 9.96848 88.2006 10.7474L88.2655 10.9746L88.7842 10.9097L88.622 8.15093L88.5248 8.08599C87.3574 7.30705 85.8982 7.20969 85.3147 7.20969C83.0449 7.14478 80.6128 8.54038 80.5805 11.1369Z" fill="#51547E" fill-opacity="0.6"/>
<path d="M125.296 11.1385C125.264 13.2482 126.528 14.2867 128.604 15.3253L129.382 15.7148C131.003 16.5262 132.073 17.0455 132.073 18.571C132.073 18.8307 132.008 19.7394 131.327 20.4534C130.841 20.9403 130.16 21.1675 129.317 21.1675C126.885 21.135 126.009 19.2526 125.685 18.149L125.62 17.9543L125.102 18.0517L125.231 21.2324L125.361 21.2973C126.172 21.7517 127.533 22.5307 129.447 22.5631C130.841 22.5631 132.235 22.0114 133.176 21.0701C134.019 20.2263 134.473 19.1877 134.473 18.0192C134.473 15.3578 132.624 14.4166 130.679 13.378L130.322 13.1832C128.215 12.1446 127.501 11.6578 127.501 10.4894C127.501 9.97006 127.728 9.45076 128.117 9.06128C128.539 8.67179 129.122 8.44461 129.803 8.44461C131.846 8.47706 132.722 9.93761 132.916 10.7166L132.981 10.9113L133.5 10.8464L133.338 8.08758L133.241 8.02267C132.073 7.24373 130.614 7.14636 130.03 7.14636C127.76 7.14636 125.329 8.54197 125.296 11.1385Z" fill="#51547E" fill-opacity="0.6"/>
<path d="M103.471 7.30832H101.461L101.493 7.66535H101.525C101.623 7.73026 101.947 7.95744 101.947 8.89868V17.4996C101.947 19.1549 101.331 21.1672 98.4126 21.1672C95.6562 21.1672 95.0726 19.5119 95.0726 17.0452V7.27586H91.8948L91.9271 7.60041H91.9597C92.1541 7.6978 92.511 8.11971 92.511 8.93114V17.0128C92.511 22.0435 95.8184 22.5952 98.3151 22.5952C99.5475 22.5952 103.503 22.2382 103.503 17.4996V7.24341L103.471 7.30832Z" fill="#51547E" fill-opacity="0.6"/>
<path d="M175.948 17.5645C173.126 17.1101 170.078 16.8504 167.841 17.2399C167.711 17.2723 167.614 17.175 167.614 17.0451C167.614 16.2662 167.614 13.7346 166.998 10.5863C166.998 10.5214 166.965 10.489 166.901 10.4565C159.54 5.29595 152.892 1.85558 150.168 0.557323C149.974 0.459954 149.779 0.719605 149.941 0.881887C157.886 8.18456 160.675 20.6153 161.031 22.2706C161.064 22.368 161.161 22.4329 161.258 22.4329C170.175 20.7127 179.125 22.8548 181.622 23.5364C181.817 23.6013 181.946 23.3417 181.817 23.2119C179.968 21.232 178.023 19.382 176.045 17.6294C176.045 17.5969 176.012 17.5645 175.948 17.5645Z" fill="#51547E" fill-opacity="0.6"/>
<path d="M183.438 18.8306C176.272 9.2235 166.09 2.14803 162.88 0.0383699C162.685 -0.0914554 162.491 0.135739 162.621 0.330478C165.085 3.5761 166.35 7.30859 166.966 10.4244C166.966 10.4893 166.998 10.5218 167.031 10.5542C169.982 12.6314 172.997 14.9683 175.98 17.5323C176.013 17.5648 176.045 17.5648 176.078 17.5648C179.191 18.0841 182.044 18.7981 183.211 19.1227C183.406 19.1876 183.536 18.9929 183.438 18.8306Z" fill="#51547E" fill-opacity="0.6"/>
<path d="M2.10772 9.48391C0.778235 10.9445 0 12.8918 0 14.9041C0 17.1436 0.875515 19.1559 2.46441 20.6164C3.98845 22.012 5.9989 22.7585 8.17148 22.7585C9.3064 22.7585 11.5438 22.5638 13.6839 21.2331L13.7812 21.1682L14.0406 18.0199L13.6191 17.9875L13.5542 18.1173C11.9653 21.5252 9.50095 21.0384 8.56057 21.0384C4.37758 21.0384 2.9508 17.955 2.9508 14.612C2.9508 11.3988 4.37758 8.64003 8.593 8.64003C9.89008 8.64003 12.2248 8.60758 13.457 11.5287L13.5218 11.6909L13.911 11.5611L13.6515 8.28303L13.5542 8.25057C11.5763 7.37424 9.98735 6.98476 8.39845 6.98476C5.83675 6.9523 3.6642 7.82864 2.10772 9.48391Z" fill="#51547E" fill-opacity="0.6"/>
</svg>
