<svg width="183" height="30" viewBox="0 0 183 30" fill="none" xmlns="http://www.w3.org/2000/svg">
<path d="M5.20423 14.8119H2.78947V26.661H5.1626C9.45089 26.661 10.8664 24.9504 10.8664 20.6113C10.9081 16.2722 9.24272 14.8119 5.20423 14.8119ZM5.99528 12.4337C11.033 12.4337 13.9473 14.7284 13.9473 20.653C13.9473 25.6179 11.7408 29.0392 5.91201 29.0392H0V12.4337H5.99528Z" fill="#51547E" fill-opacity="0.6"/>
<path d="M17.7768 22.1126H23.1476C23.0643 20.3186 22.3565 19.3172 20.5663 19.3172C18.9426 19.3172 18.0266 20.1099 17.7768 22.1126ZM23.0227 25.5756H25.6456C25.3125 27.4531 23.8137 29.2471 20.5247 29.2471C16.8192 29.2471 15.0706 26.6603 15.0706 23.2808C15.0706 19.7762 16.8609 17.1894 20.5247 17.1894C24.4799 17.1894 25.7289 19.9013 25.7289 22.7802V24.0736H17.7352C17.9017 26.2014 18.8177 27.161 20.5247 27.161C22.5231 27.161 22.8978 26.2431 23.0227 25.5756Z" fill="#51547E" fill-opacity="0.6"/>
<path d="M35.0964 27.6608C34.4303 28.4953 33.3478 29.2463 31.4326 29.2463C28.6848 29.2463 27.2692 27.786 27.2692 24.9489V17.4806H29.8922V24.2813C29.8922 25.9085 30.3085 27.0767 32.0988 27.0767C33.5143 27.0767 34.3886 26.0754 34.6384 25.3661C34.805 24.8654 34.8466 24.3648 34.8466 23.7389V17.4806H37.4695V28.9959H35.138L35.0964 27.6608Z" fill="#51547E" fill-opacity="0.6"/>
<path d="M46.5471 28.9551C46.214 29.0385 45.6311 29.0802 44.8817 29.0802C42.1755 29.0802 41.0097 28.4961 41.0097 25.2418V19.4841H38.8448V17.4814H41.0097V14.2271H43.6327V17.4814H46.4638V19.4841H43.6327V25.0332C43.6327 26.6186 44.0074 27.0358 45.5062 27.0358C46.0058 27.0358 46.4638 26.9524 46.5471 26.9107V28.9551Z" fill="#51547E" fill-opacity="0.6"/>
<path d="M50.1686 25.5306C50.2103 26.1981 50.4601 27.2412 52.3752 27.2829C53.999 27.2829 54.5818 26.6571 54.5818 25.8644C54.5818 25.1134 54.1239 24.7796 53.1663 24.5293L50.6682 23.9869C49.0445 23.6114 47.7955 22.7352 47.7955 20.7325C47.7955 18.4795 49.669 17.2696 52.292 17.2696C55.3729 17.2696 56.9133 18.855 57.0382 21.0246H54.4569C54.3737 20.3988 53.9157 19.2723 52.0838 19.2723C50.7932 19.2723 50.2103 19.8146 50.2103 20.5656C50.2103 21.4001 50.7515 21.7339 51.7924 21.9425L54.2071 22.4431C56.1639 22.8604 57.1215 24.0286 57.1215 25.7809C57.1215 27.575 55.8725 29.3273 52.4169 29.3273C49.0029 29.2856 47.7122 27.7001 47.5873 25.5723H50.1686V25.5306Z" fill="#51547E" fill-opacity="0.6"/>
<path d="M60.786 23.2808C60.786 25.5756 61.4938 27.1193 63.4089 27.1193C65.3657 27.1193 65.6988 25.8676 65.7404 24.9497H68.3633C68.1135 27.5782 66.4482 29.2054 63.4089 29.2054C59.1623 29.2054 58.0798 26.41 58.0798 23.2391C58.0798 20.1099 59.2039 17.1894 63.4089 17.1894C66.7813 17.1894 68.2384 19.0252 68.405 21.4451H65.7404C65.6155 20.6523 65.3657 19.3172 63.3673 19.3172C61.6603 19.3589 60.786 20.6106 60.786 23.2808Z" fill="#51547E" fill-opacity="0.6"/>
<path d="M72.2759 29.0392H69.653V12.4337H72.2759V18.6503C72.9837 17.8993 74.0245 17.2318 75.898 17.2318C78.5626 17.2318 79.8949 18.8589 79.8949 21.2788V29.0392H77.272V22.1133C77.272 20.2358 76.4809 19.4848 75.1486 19.4848C73.9412 19.4848 73.1086 20.1523 72.6922 20.7782C72.3592 21.3206 72.2759 21.8212 72.2759 22.6557V29.0392Z" fill="#51547E" fill-opacity="0.6"/>
<path d="M83.976 22.1126H89.3467C89.2635 20.3186 88.5557 19.3172 86.7655 19.3172C85.1417 19.3172 84.2258 20.1099 83.976 22.1126ZM89.2218 25.5756H91.8448C91.5117 27.4531 90.0129 29.2471 86.7238 29.2471C83.0184 29.2471 81.2698 26.6603 81.2698 23.2808C81.2698 19.7762 83.06 17.1894 86.7238 17.1894C90.679 17.1894 91.928 19.9013 91.928 22.7802V24.0736H83.9343C84.1009 26.2014 85.0168 27.161 86.7238 27.161C88.7222 27.161 89.0969 26.2431 89.2218 25.5756Z" fill="#51547E" fill-opacity="0.6"/>
<path d="M100.42 21.5292V26.661H104.167C106.291 26.661 107.248 25.9517 107.248 24.0742C107.248 22.1967 106.291 21.5292 104.167 21.5292H100.42ZM103.626 14.7702H100.42V19.151H103.709C105.833 19.151 106.499 18.4834 106.499 16.9397C106.499 15.5212 105.833 14.7702 103.626 14.7702ZM97.5891 29.0392V12.4337H104.126C107.998 12.4337 109.496 14.186 109.496 16.6894C109.496 18.5252 108.539 19.8186 107.248 20.2358C108.789 20.4861 110.287 21.7378 110.287 24.1159C110.287 27.1617 108.705 29.0392 104.625 29.0392H97.5891Z" fill="#51547E" fill-opacity="0.6"/>
<path d="M118.739 24.6582V23.9072H116.116C114.618 23.9072 113.993 24.4913 113.993 25.5761C113.993 26.494 114.409 27.1615 115.908 27.1615C117.407 27.1615 118.323 26.4105 118.614 25.5344C118.739 25.2423 118.739 25.0337 118.739 24.6582ZM121.321 29.039H119.031L118.947 27.7039C118.281 28.5384 117.116 29.2894 115.242 29.2894C112.952 29.2894 111.328 27.9542 111.328 25.6595C111.328 23.4482 112.952 21.9462 116.116 21.9462H118.739V21.1535C118.739 19.735 117.99 19.276 116.616 19.276C114.992 19.276 114.618 19.9853 114.493 20.7363H111.828C112.203 18.6919 113.577 17.2316 116.658 17.2316C119.822 17.2316 121.279 18.4833 121.279 21.3204V29.039H121.321Z" fill="#51547E" fill-opacity="0.6"/>
<path d="M126.026 18.6502C126.734 17.8992 127.816 17.2316 129.648 17.2316C132.313 17.2316 133.645 18.8588 133.645 21.2787V29.039H130.98V22.1131C130.98 20.2356 130.189 19.4846 128.857 19.4846C127.65 19.4846 126.817 20.1522 126.401 20.778C126.068 21.3204 125.984 21.8628 125.984 22.6972V28.9973H123.361V17.482H125.859L126.026 18.6502Z" fill="#51547E" fill-opacity="0.6"/>
<path d="M135.767 28.9974H138.39V12.4337H135.767V28.9974ZM143.053 17.4821L138.515 22.5722L143.511 29.0392H146.675L141.513 22.4888L146.051 17.4821H143.053Z" fill="#51547E" fill-opacity="0.6"/>
<path d="M153.795 29.0387H182.73V0H153.795V29.0387ZM157.833 4.08878H178.692V24.9916H157.833V4.08878ZM171.156 6.96761L160.165 22.0711H165.369L176.36 6.96761H171.156Z" fill="#51547E" fill-opacity="0.6"/>
</svg>
