<svg width="135" height="30" viewBox="0 0 135 30" fill="none" xmlns="http://www.w3.org/2000/svg">
<path d="M58.736 14.7167L44.026 0V29.4334L58.736 14.7167Z" fill="#51547E" fill-opacity="0.6"/>
<path d="M29.3507 14.7167L44.0261 0H14.6753L29.3507 14.7167Z" fill="#51547E" fill-opacity="0.6"/>
<path d="M0 14.7167L14.6754 29.4334V0L0 14.7167Z" fill="#51547E" fill-opacity="0.6"/>
<path d="M29.3507 14.7166L14.6753 29.4333H44.0261L29.3507 14.7166Z" fill="#51547E" fill-opacity="0.6"/>
<path d="M71.617 15.6175H66.2993V20.8809H63.6405V8.55353H66.2993V13.6092H71.617V8.55353H74.2759V20.8809H71.617V15.6175Z" fill="#51547E" fill-opacity="0.6"/>
<path d="M80.6644 21.1222C78.0056 21.1222 75.8302 20.0488 75.7957 17.1054H78.4545C78.489 18.4213 79.2487 19.2177 80.699 19.2177C81.7694 19.2177 83.0125 18.6637 83.0125 17.4517C83.0125 16.4821 82.1838 16.2051 80.8026 15.7896L79.9048 15.5472C77.9711 14.9932 76.0374 14.2314 76.0374 12.0152C76.0374 9.27961 78.5926 8.34467 80.9062 8.34467C83.2888 8.34467 85.3606 9.17573 85.3951 11.9113H82.7363C82.6327 10.8032 81.9766 10.1453 80.7335 10.1453C79.7321 10.1453 78.7653 10.6647 78.7653 11.7728C78.7653 12.6731 79.594 12.9501 81.3205 13.5042L82.3564 13.8158C84.4628 14.4737 85.8095 15.2009 85.8095 17.2786C85.8095 20.0488 83.0816 21.1222 80.6644 21.1222Z" fill="#51547E" fill-opacity="0.6"/>
<path d="M87.2931 8.55338H91.5749C92.3691 8.51876 93.1978 8.55338 93.992 8.69189C95.4768 9.03817 96.6163 10.0077 96.6163 11.6699C96.6163 13.2627 95.6149 14.0592 94.1646 14.4401C95.8221 14.7517 97.0652 15.5828 97.0652 17.418C97.0652 20.2229 94.3028 20.8462 92.1619 20.8462H87.3276L87.2931 8.55338ZM91.5749 13.6783C92.7489 13.6783 93.9575 13.4359 93.9575 12.0161C93.9575 10.7349 92.8525 10.3886 91.7475 10.3886H89.8829V13.6783H91.5749ZM91.8166 19.0455C93.0597 19.0455 94.2682 18.7685 94.2682 17.2449C94.2682 15.7213 93.2323 15.4443 91.9547 15.4443H89.8483V19.0455H91.8166Z" fill="#51547E" fill-opacity="0.6"/>
<path d="M104.005 21.1231C100.034 21.1231 98.2732 18.5953 98.2732 14.8209C98.2732 11.0465 100.241 8.31091 104.143 8.31091C106.595 8.31091 108.978 9.419 109.047 12.1892H106.284C106.146 10.9426 105.317 10.3193 104.143 10.3193C101.726 10.3193 101.001 12.9164 101.001 14.8902C101.001 16.8639 101.726 19.1493 104.04 19.1493C105.248 19.1493 106.146 18.4914 106.319 17.2448H109.081C108.805 20.0843 106.56 21.1231 104.005 21.1231Z" fill="#51547E" fill-opacity="0.6"/>
<path d="M118.716 21.0887C115.677 21.0887 114.02 19.392 114.02 16.3794V8.55353H115.194V15.9638C115.194 16.9334 115.194 17.903 115.747 18.734C116.403 19.7382 117.611 20.1538 118.751 20.1538C120.097 20.1538 121.41 19.5651 121.997 18.2839C122.273 17.5567 122.376 16.7603 122.307 15.9638V8.55353H123.481V16.3447C123.412 19.2881 121.651 21.0887 118.716 21.0887Z" fill="#51547E" fill-opacity="0.6"/>
<path d="M125.83 8.55353H126.935V20.8809H125.83V8.55353ZM127.004 14.1978L132.495 8.55353H133.979L128.351 14.1286L134.566 20.9156H133.047L127.004 14.1978Z" fill="#51547E" fill-opacity="0.6"/>
</svg>
