<svg width="183" height="26" viewBox="0 0 183 26" fill="none" xmlns="http://www.w3.org/2000/svg">
<path d="M48.819 19.0403C49.277 19.2247 49.9559 19.3434 50.8555 19.3982V19.7835H40.7019V19.3982C41.5998 19.3434 42.2805 19.2247 42.7385 19.0403C43.1965 18.8576 43.5141 18.5636 43.6874 18.1582C43.8608 17.7546 43.9484 17.1574 43.9484 16.3685V4.08528H43.8663L36.9044 20.1415H36.8223L29.364 4.14189H29.2819V16.3685C29.2819 17.1574 29.3731 17.7546 29.5575 18.1582C29.7399 18.5618 30.0575 18.8558 30.5064 19.0403C30.9553 19.2247 31.6305 19.3434 32.5283 19.3982V19.7835H24.7818V19.3982C25.6796 19.3434 26.3548 19.2247 26.8037 19.0403C27.2526 18.8576 27.5702 18.5636 27.7527 18.1582C27.9351 17.7546 28.0282 17.1574 28.0282 16.3685V4.05788C28.0282 3.26895 27.937 2.67177 27.7527 2.26818C27.5683 1.86458 27.2526 1.57056 26.8037 1.38611C26.353 1.20349 25.6796 1.08295 24.7818 1.02817V0.642833H31.7309L38.0778 14.5094L44.2331 0.642833H50.8555V1.02817C49.9559 1.08295 49.277 1.20349 48.819 1.38611C48.3609 1.57056 48.0398 1.86823 47.8554 2.28096C47.6711 2.69369 47.5799 3.28539 47.5799 4.05788V16.3685C47.5799 17.1574 47.6711 17.7546 47.8554 18.1582C48.0398 18.5636 48.3609 18.8558 48.819 19.0403ZM62.615 9.75937C63.1825 10.8058 63.4672 11.9892 63.4672 13.3114C63.4672 14.6336 63.1825 15.817 62.615 16.8634C62.0457 17.9098 61.2537 18.7189 60.2354 19.2868C59.2171 19.8566 58.0565 20.1415 56.7535 20.1415C55.4506 20.1415 54.2954 19.8566 53.2863 19.2868C52.2771 18.7189 51.4833 17.9098 50.9066 16.8634C50.3281 15.817 50.0398 14.6336 50.0398 13.3114C50.0398 11.9892 50.3281 10.8058 50.9066 9.75937C51.4851 8.71294 52.2771 7.90575 53.2863 7.33596C54.2954 6.76618 55.4506 6.48129 56.7535 6.48129C58.0565 6.48129 59.2171 6.76618 60.2354 7.33596C61.2537 7.90575 62.0457 8.71294 62.615 9.75937ZM59.8631 13.3114C59.8631 12.0075 59.739 10.888 59.4908 9.95112C59.2426 9.01427 58.885 8.30386 58.4178 7.81626C57.9506 7.33048 57.3941 7.08577 56.7535 7.08577C56.1112 7.08577 55.5564 7.32866 55.0892 7.81626C54.6221 8.30386 54.2644 9.01427 54.0162 9.95112C53.768 10.888 53.6439 12.0075 53.6439 13.3114C53.6439 14.6153 53.768 15.7348 54.0162 16.6716C54.2644 17.6085 54.6221 18.3189 55.0892 18.8065C55.5564 19.2941 56.1112 19.537 56.7535 19.537C57.3959 19.537 57.9506 19.2941 58.4178 18.8065C58.885 18.3207 59.2426 17.6085 59.4908 16.6716C59.739 15.7348 59.8631 14.6153 59.8631 13.3114ZM72.7978 9.42882C73.2741 9.42882 73.7066 9.511 74.0916 9.67719V6.64748C73.8526 6.5379 73.5697 6.48311 73.2394 6.48311C72.3945 6.48311 71.6481 6.85567 70.9966 7.59894C70.3452 8.34222 69.8379 9.19689 69.367 10.8989H69.305V6.59269H69.1955L63.7464 8.16325V8.52119C64.3705 8.52119 64.8523 8.58145 65.1917 8.70016C65.5312 8.81886 65.7739 9.01244 65.9217 9.27907C66.0677 9.5457 66.1425 9.90729 66.1425 10.3675V17.1976C66.1425 17.7674 66.0877 18.1892 65.9782 18.465C65.8688 18.7408 65.6662 18.9471 65.3724 19.0841C65.0786 19.2211 64.6114 19.327 63.9691 19.4V19.7854H71.6189V19.4C70.9766 19.3452 70.4948 19.2485 70.1736 19.1115C69.8525 18.9745 69.628 18.7627 69.5003 18.4778C69.3725 18.1929 69.3068 17.7656 69.3068 17.1976V11.7847C69.8835 10.4278 71.1536 9.42882 72.7978 9.42882ZM112.954 18.4486C112.845 18.1637 112.79 17.7382 112.79 17.1684V10.888C112.79 7.93862 111.158 6.48129 109.02 6.48129C106.881 6.48129 105.507 7.99706 104.919 8.80425H104.864V6.59269H104.755L99.3059 8.16325V8.52119C99.9117 8.52119 100.388 8.58145 100.737 8.70016C101.085 8.81886 101.333 9.00696 101.479 9.26446C101.625 9.52196 101.7 9.8799 101.7 10.3383V17.1666C101.7 17.7363 101.645 18.1637 101.536 18.4467C101.426 18.7316 101.224 18.9417 100.93 19.0804C100.636 19.2174 100.169 19.3233 99.5267 19.3964V19.7817H106.682V19.3964C106.187 19.3233 105.806 19.2174 105.54 19.0804C105.273 18.9435 105.094 18.7316 105.003 18.4467C104.912 18.1619 104.866 17.7363 104.866 17.1666V9.80503C105.5 9.03618 106.244 8.29839 107.454 8.29839C109.116 8.29839 109.627 9.55301 109.627 10.9702V17.1666C109.627 17.7363 109.576 18.1637 109.476 18.4467C109.376 18.7316 109.2 18.9417 108.952 19.0804C108.704 19.2174 108.324 19.3233 107.81 19.3964V19.7817H114.883V19.3964C114.277 19.3233 113.832 19.2174 113.549 19.0804C113.261 18.9435 113.065 18.7335 112.954 18.4486ZM182.487 15.9832C181.88 17.3108 180.184 20.1415 176.735 20.1415C173.46 20.1415 170.737 17.4606 170.737 13.4228C170.737 12.1554 171.012 10.9902 171.562 9.92556C172.113 8.86086 172.859 8.0208 173.804 7.40536C174.75 6.78992 175.79 6.48311 176.929 6.48311C180.233 6.48311 181.881 8.81338 181.881 11.2423V11.7901H173.682C173.682 11.8394 173.68 11.8869 173.68 11.9362C173.68 14.8582 174.98 17.6651 178.248 17.6651C180.734 17.6651 181.774 16.2881 182.182 15.7932L182.487 15.9832ZM173.739 10.8606H178.881C178.847 8.86452 178.252 7.12229 176.626 7.11499C175.1 7.10951 173.994 8.53397 173.739 10.8606ZM145.988 18.4486C145.878 18.1637 145.824 17.7382 145.824 17.1684V10.888C145.824 9.93286 145.663 9.12567 145.342 8.46457C145.021 7.80348 144.575 7.30857 144.008 6.97802C143.439 6.64747 142.787 6.48311 142.054 6.48311C141.209 6.48311 140.462 6.69861 139.811 7.1296C139.159 7.56059 138.541 8.18151 137.953 8.9887H137.898V0H137.789L132.34 1.57056V1.9285C132.946 1.9285 133.422 1.98876 133.77 2.10747C134.119 2.22617 134.367 2.41428 134.513 2.67177C134.659 2.92927 134.734 3.28721 134.734 3.7456V17.1666C134.734 17.7363 134.679 18.1637 134.57 18.4467C134.46 18.7316 134.258 18.9417 133.964 19.0804C133.67 19.2174 133.203 19.3233 132.561 19.3964V19.7817H139.716V19.3964C139.221 19.3233 138.84 19.2174 138.573 19.0804C138.307 18.9435 138.128 18.7316 138.037 18.4467C137.946 18.1619 137.9 17.7363 137.9 17.1666V9.80503C138.533 9.03618 139.278 8.29839 140.488 8.29839C141.167 8.29839 141.698 8.52301 142.085 8.97227C142.47 9.42152 142.663 10.0881 142.663 10.9683V17.1666C142.663 17.7363 142.612 18.1637 142.512 18.4467C142.411 18.7316 142.236 18.9417 141.988 19.0804C141.74 19.2174 141.36 19.3233 140.845 19.3964V19.7817H147.919V19.3964C147.313 19.3233 146.868 19.2174 146.585 19.0804C146.295 18.9435 146.099 18.7335 145.988 18.4486ZM126 18.5947C121.942 18.6221 118.723 15.3568 118.723 10.0589C118.723 4.45965 121.721 1.19435 125.15 1.19435C128.579 1.19435 130.05 4.28616 130.8 7.32318L131.349 7.31405V1.72579C130.06 1.01173 127.947 0.206364 124.876 0.206364C118.952 0.206364 114.482 4.54366 114.482 10.3346C114.482 15.8517 118.212 20.2145 124.63 20.1871C128.168 20.1597 130.635 18.0468 131.814 16.4269L131.431 16.016C130.635 16.9218 129.044 18.5673 126 18.5947ZM166.857 12.128L164.959 11.2185C163.698 10.6542 162.978 9.90729 162.978 8.9887C162.978 7.94775 163.93 7.23552 165.262 7.23552C167.202 7.23552 168.208 8.30934 168.624 10.6962H169.197V7.22639C168.627 7.00542 167.124 6.48311 165.593 6.48311C162.565 6.48311 160.722 8.38787 160.722 10.5867C160.722 11.4322 160.946 12.17 161.395 12.8037C161.844 13.4374 162.519 13.9834 163.417 14.4418L165.399 15.4335C166.755 16.0526 167.299 16.6625 167.299 17.5811C167.299 18.5965 166.481 19.3909 164.932 19.3909C162.667 19.3909 161.591 17.2414 161.295 15.5156H160.722V19.0677C161.585 19.6265 163.209 20.1415 164.713 20.1415C167.614 20.1415 169.638 18.3627 169.638 15.8462C169.636 14.0327 168.669 12.8987 166.857 12.128ZM16.4293 11.4395V16.3685C16.4293 17.1392 16.5388 17.7309 16.7596 18.1454C16.9804 18.5581 17.3472 18.8576 17.86 19.0403C18.3728 19.2247 19.1539 19.3434 20.1995 19.3982V19.7835H9.54956V19.3982C10.4474 19.3434 11.1226 19.2247 11.5715 19.0403C12.0204 18.8576 12.338 18.5636 12.5204 18.1582C12.7029 17.7546 12.796 17.1574 12.796 16.3685V4.14189C12.796 1.62352 11.6591 1.11217 9.93278 1.11217C8.03856 1.11217 6.87977 1.62169 6.87977 4.05971V17.74C6.87977 20.8318 4.87241 23.772 0.908786 23.772C0.602208 23.772 0.299279 23.7538 0 23.7191V23.3885C0.941634 23.3319 1.70443 23.0123 2.28474 22.4224C2.92709 21.7705 3.24827 20.7021 3.24827 19.2138V4.05788C3.24827 3.28721 3.15703 2.69369 2.97272 2.28096C2.7884 1.86823 2.46723 1.57056 2.00918 1.38611C1.55114 1.20349 0.881413 1.08295 0 1.02817V0.642833H18.8053C23.0828 0.642833 25.7307 2.78317 25.7307 6.01377C25.7307 9.71189 22.101 11.4395 18.8564 11.4395H16.4293ZM16.4293 10.6999H17.7414C19.9732 10.6999 21.851 9.3923 21.851 6.04117C21.851 1.94493 19.1484 1.38246 17.8089 1.38246H16.4293V10.6999ZM98.1964 18.6842C98.6508 18.6842 99.0504 18.4851 99.3041 18.3134V18.9672C98.7967 19.442 97.8551 20.1324 96.439 20.1324C95.2455 20.1324 94.2437 19.3745 93.9773 18.2185H93.9061C93.4408 19.0987 92.0192 20.2109 90.468 20.2109C88.6067 20.2109 87.2362 18.969 87.2362 17.0807C87.2362 15.6051 88.2453 14.6226 89.9242 14.0273L93.9061 12.5919V10.7419C93.9061 9.05992 92.6907 8.28378 91.3732 8.28378C90.0282 8.28378 88.7873 8.85356 87.4953 10.1721L87.1084 9.8105C88.2453 7.97332 90.0556 6.47216 92.667 6.47216C95.1488 6.47216 97.1398 8.10298 97.1142 10.7419L97.0631 17.34C97.0595 18.2696 97.4482 18.6842 98.1964 18.6842ZM93.9061 13.4538L92.3039 14.104C91.0629 14.5952 90.2618 15.165 90.2618 16.4835C90.2618 17.5957 91.0374 18.3719 92.1232 18.3719C92.6926 18.3719 93.5192 17.9317 93.9079 17.4405V13.4538H93.9061ZM158.948 18.6842C159.404 18.6842 159.802 18.4833 160.058 18.3134V18.9672C159.55 19.442 158.609 20.1342 157.191 20.1342C155.997 20.1342 154.996 19.3763 154.729 18.2203H154.658C154.193 19.1005 152.771 20.2127 151.22 20.2127C149.358 20.2127 147.988 18.9709 147.988 17.0826C147.988 15.607 148.997 14.6244 150.676 14.0291L154.658 12.5937V10.7419C154.658 9.05992 153.443 8.28378 152.125 8.28378C150.78 8.28378 149.539 8.85356 148.247 10.1721L147.858 9.8105C148.995 7.97332 150.806 6.47216 153.417 6.47216C155.899 6.47216 157.89 8.10298 157.864 10.7419L157.813 17.34C157.811 18.2696 158.198 18.6842 158.948 18.6842ZM154.656 13.4538L153.054 14.104C151.813 14.5952 151.012 15.165 151.012 16.4835C151.012 17.5957 151.787 18.3719 152.873 18.3719C153.443 18.3719 154.269 17.9317 154.658 17.4405V13.4538H154.656ZM83.9678 7.3871C85.1449 8.30569 85.665 9.62788 85.665 10.7565C85.665 13.7205 83.1339 15.2563 80.2524 15.2563C79.4932 15.2563 78.7597 15.1486 78.0899 14.9367C77.7177 15.2234 77.3983 15.5978 77.3983 16.0361C77.3983 16.9785 78.933 17.1684 79.8491 17.2213L82.9733 17.4368C85.477 17.5994 87.0646 18.4869 87.0646 20.7241C87.0646 23.5529 83.7215 25.8978 78.8527 25.8978C76.026 25.8978 74.0059 24.928 74.0059 23.2022C74.0059 21.7029 74.8307 20.8446 76.9512 19.8255C75.5643 19.4219 75.2431 18.5947 75.2431 17.7856C75.2431 16.679 76.2304 15.6855 77.568 14.7432C75.9658 14.0674 74.8398 12.7288 74.8398 10.7528C74.8398 7.78887 77.3709 6.25301 80.2524 6.25301C81.5773 6.25301 82.632 6.55434 83.4441 7.02733C84.05 5.80924 85.2452 4.39208 87.3876 4.39208V6.92141C86.2435 6.56712 84.8474 6.75157 83.9678 7.3871ZM76.2669 22.0207C76.2669 23.5839 78.0443 24.2834 80.3601 24.2834C82.5682 24.2834 85.5555 23.2863 85.5555 21.6956C85.5555 20.7788 85.0445 20.5633 83.6978 20.4556L78.287 20.0538C77.9695 20.0301 77.683 19.9936 77.4257 19.9443C76.6465 20.5524 76.2669 21.177 76.2669 22.0207ZM82.3255 10.7583C82.3255 8.22534 81.4915 7.01272 80.2524 7.01272C79.0133 7.01272 78.1793 8.22534 78.1793 10.7583C78.1793 13.2913 79.0133 14.5039 80.2524 14.5039C81.4915 14.5039 82.3255 13.2913 82.3255 10.7583Z" fill="#51547E" fill-opacity="0.6"/>
</svg>
