<svg width="154" height="27" viewBox="0 0 154 27" fill="none" xmlns="http://www.w3.org/2000/svg">
<path d="M20.355 12.3556C20.2903 11.3852 20.0319 10.4149 19.5149 9.57395L15.1208 1.87598C14.7977 1.29378 14.5393 0.646888 14.41 0L14.2162 0.323444C13.1176 2.19942 13.1176 4.59291 14.2162 6.46888L17.7702 12.6143C18.8687 14.4903 18.8687 16.8838 17.7702 18.7598L17.5763 19.0832C17.4471 18.4363 17.1886 17.7894 16.8655 17.2072L13.6346 11.5793L11.5668 7.95673C11.2437 7.37453 10.9852 6.72764 10.856 6.08075L10.6621 6.4042C9.5636 8.28017 9.5636 10.609 10.6621 12.5496L14.2162 18.6951C15.3147 20.5711 15.3147 22.9645 14.2162 24.8405L14.0223 25.164C13.8931 24.5171 13.6346 23.8702 13.3115 23.288L8.85279 15.59C8.27122 14.555 8.01274 13.3906 8.01274 12.2262C3.29556 13.4553 0 16.1075 0 19.1479C0 23.4174 6.33265 26.8459 14.1515 26.8459C21.9704 26.8459 28.3031 23.4174 28.3031 19.1479C28.3677 16.2369 25.1368 13.5847 20.355 12.3556ZM33.7311 25.4874C33.7957 24.3877 33.9249 23.6761 34.248 22.7705C35.7343 23.482 37.6728 23.8055 39.0944 23.8055C41.55 23.8055 42.9716 23.0292 42.9716 21.412C42.9716 19.8595 41.9377 19.1479 39.4821 18.0482L38.1252 17.5307C35.605 16.431 33.9249 15.0078 33.9249 12.2262C33.9249 9.18581 36.0574 7.24515 40.3222 7.24515C42.0669 7.24515 43.6824 7.50391 45.1686 8.02142C45.104 9.05644 44.9101 9.89739 44.6517 10.6737C43.23 10.1561 41.4853 9.89739 40.2576 9.89739C37.9313 9.89739 36.8974 10.803 36.8974 12.2262C36.8974 13.5847 37.9313 14.4256 39.8052 15.2019L41.2269 15.7841C44.587 17.2072 46.0087 18.7598 46.0087 21.3473C46.0087 24.3877 43.6824 26.5224 39.1591 26.5224C37.0266 26.5224 35.2173 26.199 33.7311 25.4874ZM60.2894 12.7437V26.0696H57.5754L57.4462 24.4524C56.6708 25.6168 55.5723 26.393 53.6983 26.393C50.2089 26.393 47.818 23.8055 47.818 19.342C47.818 14.6844 50.3381 11.9674 55.2492 11.9674C57.1877 12.0321 58.8032 12.2262 60.2894 12.7437ZM57.3816 23.0292V14.6844C56.8 14.555 56.0892 14.555 55.2492 14.555C52.2121 14.555 50.7905 16.431 50.7905 19.4067C50.7905 22.1236 51.889 24.0642 54.4737 24.0642C55.7015 23.9996 56.6062 23.6114 57.3816 23.0292ZM75.281 17.1425V26.0696H72.3732V17.6601C72.3732 15.5253 71.6624 14.555 68.7545 14.555C68.0437 14.555 67.2683 14.6197 66.4282 14.7491V26.0696H63.5204V12.7437C65.3943 12.2909 67.4621 11.9674 68.8191 11.9674C73.7302 12.0321 75.281 13.9081 75.281 17.1425ZM83.423 23.9349C84.2631 23.9349 85.1031 23.8055 85.6847 23.5467C85.62 24.323 85.4908 25.2286 85.3616 26.0049C84.5862 26.3284 83.6815 26.4577 82.9061 26.4577C80.0628 26.4577 78.2535 25.164 78.2535 21.9295V7.89204C79.1582 7.56859 80.2567 7.43922 81.1613 7.43922V12.4849H85.8139C85.7493 13.3906 85.6847 14.2315 85.5554 15.0078H81.1613V21.5414C81.1613 23.2233 82.0014 23.9349 83.423 23.9349ZM99.1254 12.7437V26.0696H96.4114L96.2822 24.4524C95.5067 25.6168 94.4082 26.393 92.5343 26.393C89.0448 26.393 86.654 23.8055 86.654 19.342C86.654 14.6844 89.1741 11.9674 94.0851 11.9674C96.0237 12.0321 97.5745 12.2262 99.1254 12.7437ZM96.1529 23.0292V14.6844C95.5714 14.555 94.8605 14.555 94.0205 14.555C90.9834 14.555 89.5618 16.431 89.5618 19.4067C89.5618 22.1236 90.6603 24.0642 93.2451 24.0642C94.4728 23.9996 95.4421 23.6114 96.1529 23.0292ZM114.117 17.1425V26.0696H111.145V17.6601C111.145 15.5253 110.434 14.555 107.526 14.555C106.815 14.555 106.04 14.6197 105.2 14.7491V26.0696H102.292V12.7437C104.166 12.2909 106.233 11.9674 107.59 11.9674C112.502 12.0321 114.117 13.9081 114.117 17.1425ZM128.915 7.43922V26.0696H126.201L126.071 24.3877C125.296 25.6168 124.198 26.393 122.259 26.393C118.77 26.393 116.379 23.8055 116.379 19.342C116.379 14.6844 118.899 11.9674 123.81 11.9674C124.585 11.9674 125.296 12.0321 126.007 12.1615V7.76266C126.912 7.50391 127.945 7.43922 128.915 7.43922ZM126.007 23.0292V14.8137C125.231 14.6844 124.456 14.555 123.681 14.555C120.773 14.555 119.416 16.3663 119.416 19.4067C119.416 22.1236 120.514 24.0642 123.099 24.0642C124.262 23.9996 125.231 23.6114 126.007 23.0292ZM143.648 20.377H134.278C134.666 22.7705 136.023 23.8702 138.672 23.8702C140.288 23.8702 141.903 23.5467 143.325 22.8352C143.195 23.6114 143.066 24.6464 142.872 25.4874C141.515 26.0696 140.158 26.3284 138.543 26.3284C133.632 26.3284 131.306 23.6114 131.306 19.0832C131.306 15.1372 133.115 11.9674 137.768 11.9674C141.968 11.9674 143.777 14.6844 143.777 18.0482C143.777 18.9538 143.777 19.6007 143.648 20.377ZM134.278 17.9188H140.869C140.869 15.7194 139.706 14.4256 137.703 14.4256C135.57 14.4903 134.472 15.6547 134.278 17.9188ZM153.922 12.1615C153.922 13.0671 153.793 14.1022 153.664 14.6844C152.953 14.6197 152.307 14.555 151.467 14.555C150.756 14.555 150.045 14.6197 149.334 14.6844V26.0696H146.426V12.7437C147.654 12.2909 149.787 11.9674 151.402 11.9674C152.242 12.0321 153.276 12.0321 153.922 12.1615Z" fill="#51547E" fill-opacity="0.6"/>
</svg>
