<svg width="130" height="30" viewBox="0 0 130 30" fill="none" xmlns="http://www.w3.org/2000/svg">
<path d="M6.78584 13.2069L8.12522 13.4799C11.486 14.1745 12.9429 15.6421 12.9331 18.3229C12.9213 21.5641 10.5266 23.2857 6.09101 23.2695L0.14436 23.2478L0.156831 19.836C2.10507 20.233 4.15159 20.4599 5.85757 20.4661C8.41654 20.4754 9.71066 19.7977 9.71556 18.4574C9.72046 17.1171 9.06402 16.6759 6.21468 16.1049L4.87529 15.832C1.53875 15.1618 0.0576141 13.6697 0.0674123 10.9891C0.078458 7.9671 2.522 6.1969 6.6652 6.21204L11.9781 6.23146L11.9656 9.6433C10.0907 9.2221 8.50715 9.02136 6.89864 9.01549C4.60781 9.00711 3.28915 9.70906 3.28469 10.9276C3.28015 12.1705 3.98524 12.6361 6.78584 13.2069ZM29.7622 14.8263L29.731 23.3559L24.2964 23.3361C18.1061 23.3135 14.5106 20.1808 14.5303 14.7707C14.5501 9.36033 18.1684 6.25408 24.3588 6.27671L28.575 6.29212L28.5629 9.60648C27.1263 9.26008 25.5914 9.08381 24.1536 9.07855C20.1566 9.06394 17.8337 11.1757 17.8205 14.7827C17.8077 18.292 20.1396 20.3964 24.1121 20.4109L26.6956 20.4203L26.716 14.8151L29.7622 14.8263Z" fill="#51547E" fill-opacity="0.6"/>
<path d="M66.4571 0.242468L37.0226 0.134888L36.9742 13.3799L66.4086 13.4875L66.4571 0.242468Z" fill="#51547E" fill-opacity="0.6"/>
<path d="M66.3974 16.4318L36.9631 16.3242L36.9147 29.5692L66.349 29.6768L66.3974 16.4318Z" fill="#51547E" fill-opacity="0.6"/>
<path d="M76.3758 9.357L76.926 9.46903C78.297 9.74428 78.9058 10.3473 78.9018 11.4389C78.8967 12.8306 77.9124 13.5779 76.0902 13.5712C75.1988 13.568 74.3079 13.4547 73.6479 13.2622L73.6523 12.0606C74.5225 12.2939 75.3232 12.417 75.994 12.4195C77.0957 12.4235 77.6175 12.1252 77.6199 11.4844C77.622 10.9135 77.3721 10.7524 76.1414 10.5076L75.5907 10.3955C74.2202 10.1198 73.6114 9.51725 73.6154 8.42567C73.6202 7.10392 74.6345 6.35624 76.4268 6.36279C77.238 6.36575 77.9588 6.43886 78.5089 6.58081L78.5045 7.7824C77.814 7.61966 77.0736 7.51708 76.523 7.51506C75.4816 7.51126 74.8994 7.81942 74.8973 8.38017C74.8953 8.95105 75.1451 9.11218 76.3758 9.357Z" fill="#51547E" fill-opacity="0.6"/>
<path d="M83.5349 6.38943C85.8377 6.39785 87.2949 7.80556 87.2868 10.008C87.2788 12.2114 85.8114 13.6074 83.5085 13.599C81.2051 13.5906 79.7485 12.1839 79.7565 9.98046C79.7646 7.77804 81.2315 6.38101 83.5349 6.38943ZM83.5306 7.54134C82.0182 7.53582 81.0636 8.48348 81.0581 9.98522C81.0526 11.4875 82.0003 12.4421 83.5127 12.4476C85.0246 12.4531 85.9793 11.5055 85.9848 10.0032C85.9903 8.50148 85.0426 7.54687 83.5306 7.54134Z" fill="#51547E" fill-opacity="0.6"/>
<path d="M88.2971 10.0143C88.3053 7.79157 89.7822 6.41486 92.1556 6.42354C92.7863 6.42584 93.3965 6.48841 94.0674 6.61102L94.0631 7.78271C93.3725 7.63974 92.852 7.57801 92.2512 7.57581C90.5887 7.56974 89.6043 8.47724 89.5987 10.019C89.593 11.5613 90.5708 12.476 92.2333 12.4821C92.8341 12.4843 93.355 12.4264 94.0963 12.2785L94.0921 13.4502C93.3706 13.5778 92.7599 13.6354 92.1292 13.6331C89.7558 13.6244 88.289 12.2375 88.2971 10.0143Z" fill="#51547E" fill-opacity="0.6"/>
<path d="M96.7981 13.5501L95.4961 13.5454L95.5217 6.53607L96.8238 6.54083L96.7981 13.5501Z" fill="#51547E" fill-opacity="0.6"/>
<path d="M98.5825 6.54657L103.73 6.56538L103.725 7.7467L99.8802 7.73265L99.8746 9.25467L102.718 9.26506L102.714 10.4469L99.8703 10.4365L99.8632 12.3788L103.808 12.3932L103.804 13.5751L98.5568 13.5559L98.5825 6.54657Z" fill="#51547E" fill-opacity="0.6"/>
<path d="M104.789 6.56982L110.877 6.59208L110.873 7.77339L108.48 7.76465L108.459 13.5926L107.157 13.5879L107.178 7.75989L104.785 7.75114L104.789 6.56982Z" fill="#51547E" fill-opacity="0.6"/>
<path d="M112.028 6.59515L117.175 6.61397L117.171 7.79528L113.326 7.78123L113.32 9.30325L116.164 9.31364L116.159 10.4955L113.316 10.4851L113.309 12.4274L117.254 12.4418L117.25 13.6236L112.002 13.6045L112.028 6.59515Z" fill="#51547E" fill-opacity="0.6"/>
<path d="M79.9074 20.006L79.8954 23.2904C79.0833 23.5181 78.1718 23.6344 77.2809 23.6312C74.9076 23.6225 73.4407 22.2355 73.4489 20.0123C73.457 17.7896 74.9339 16.4129 77.3073 16.4216C77.9978 16.4241 78.8087 16.5173 79.4192 16.66L79.4149 17.8317C78.7447 17.669 78.0337 17.5762 77.403 17.5739C75.7404 17.5678 74.756 18.4753 74.7504 20.0171C74.7447 21.5594 75.7225 22.4741 77.385 22.4801C77.7957 22.4816 78.2161 22.4533 78.6474 22.3849L78.6561 20.0014L79.9074 20.006Z" fill="#51547E" fill-opacity="0.6"/>
<path d="M81.4829 16.5341L86.6302 16.5529L86.6259 17.7342L82.7806 17.7202L82.7751 19.2422L85.6184 19.2526L85.6141 20.4344L82.7707 20.424L82.7636 22.3664L86.7088 22.3808L86.7044 23.5626L81.4573 23.5434L81.4829 16.5341Z" fill="#51547E" fill-opacity="0.6"/>
<path d="M89.4247 18.9593L89.4078 23.5755L88.1261 23.5708L88.1517 16.5615L88.9528 16.5645L93.0615 21.1958L93.0784 16.5795L94.3601 16.5842L94.3345 23.5935L93.5334 23.5906L89.4247 18.9593Z" fill="#51547E" fill-opacity="0.6"/>
<path d="M96.1427 16.5911L101.29 16.6099L101.286 17.7912L97.4404 17.7771L97.4348 19.2992L100.278 19.3096L100.274 20.4914L97.4305 20.481L97.4234 22.4233L101.369 22.4377L101.364 23.6196L96.1171 23.6004L96.1427 16.5911Z" fill="#51547E" fill-opacity="0.6"/>
<path d="M102.811 16.6122L105.906 16.6235C107.538 16.6295 108.466 17.3837 108.462 18.7156C108.458 19.687 107.975 20.316 107.073 20.5733L108.794 23.6435L107.372 23.6383L105.821 20.7888L104.098 20.7825L104.087 23.6263L102.786 23.6215L102.811 16.6122ZM104.109 17.7683L104.102 19.6311L105.895 19.6376C106.726 19.6407 107.157 19.3314 107.16 18.7109C107.162 18.0903 106.733 17.7779 105.902 17.7749L104.109 17.7683Z" fill="#51547E" fill-opacity="0.6"/>
<path d="M114.622 22.3137L111.458 22.3022L110.862 23.6517L109.54 23.6468L112.67 16.6489L113.471 16.6518L116.55 23.6724L115.208 23.6675L114.622 22.3137ZM114.145 21.1905L113.053 18.6529L111.942 21.1824L114.145 21.1905Z" fill="#51547E" fill-opacity="0.6"/>
<path d="M122.599 23.6965L117.652 23.6784L117.678 16.6691L118.98 16.6739L118.959 22.5014L122.603 22.5147L122.599 23.6965Z" fill="#51547E" fill-opacity="0.6"/>
<path d="M123.829 16.6924L128.976 16.7112L128.972 17.8925L125.127 17.8785L125.121 19.4005L127.965 19.4109L127.961 20.5927L125.117 20.5823L125.11 22.5246L129.055 22.5391L129.051 23.7209L123.804 23.7017L123.829 16.6924Z" fill="#51547E" fill-opacity="0.6"/>
</svg>
