<svg width="122" height="24" viewBox="0 0 122 24" fill="none" xmlns="http://www.w3.org/2000/svg">
<path fill-rule="evenodd" clip-rule="evenodd" d="M12.2532 6.0834L12.2744 6.05164C12.457 5.78697 12.3803 5.59111 12.2585 5.48524L10.3582 4.31275C10.2907 4.26761 10.2354 4.20659 10.1971 4.13505C10.1588 4.06351 10.1387 3.98365 10.1385 3.9025C10.1385 3.63254 10.2999 3.42609 10.6678 3.32552C11.8403 3.00262 15.9666 2.83323 17.3694 2.83323C17.8537 2.83323 18.6928 2.83323 19.4444 2.85175L19.41 2.81999C17.1691 0.90598 14.2916 -0.0975243 11.3464 0.0079053C8.40128 0.113335 5.60289 1.32002 3.50459 3.38937C1.40629 5.45871 0.160844 8.24007 0.0145239 11.1835C-0.131796 14.1269 0.831658 17.018 2.71438 19.2853C4.19656 17.1626 7.84377 11.9194 8.64308 10.8502C9.56415 9.61678 11.6657 6.87213 12.023 6.40895L12.0389 6.38778L12.2532 6.0834ZM4.59621 21.1009C6.72113 22.7382 9.3417 23.6004 12.0237 23.5445C14.7057 23.4887 17.2881 22.5181 19.3429 20.7938C21.3978 19.0694 22.8019 16.6946 23.3224 14.0631C23.8429 11.4315 23.4487 8.70109 22.205 6.32426C22.6099 5.93519 23.0784 5.3185 22.7714 4.54301C22.6761 4.31275 22.2156 3.78869 22.0991 3.66165L22.115 3.70665C22.4035 4.57212 21.8371 5.11206 21.4268 5.47995C21.2072 5.68375 18.219 8.49986 14.7147 11.5674C11.9444 13.9776 9.09311 16.293 6.16573 18.5098C3.35225 20.6166 2.80437 20.9236 2.80437 20.9236C2.7139 20.9693 2.61452 20.9946 2.51323 20.9977C2.43336 20.9988 2.3543 20.9815 2.28222 20.9471C2.21015 20.9126 2.14699 20.862 2.09769 20.7992V20.7939L2.08975 20.8839C2.39148 21.3709 2.89171 21.9373 3.18285 21.9373C3.28386 21.9343 3.38309 21.91 3.474 21.8658C3.474 21.8658 3.69368 21.7414 4.59357 21.0983" fill="#51547E" fill-opacity="0.6"/>
<path d="M40.3628 1.63432V16.456C40.3628 19.722 37.499 22.2047 33.7195 22.2047C29.9399 22.2047 27.0788 19.722 27.0788 16.456V5.11741C27.0767 4.66165 27.1645 4.20994 27.3371 3.78814C27.5098 3.36633 27.7639 2.9827 28.0849 2.6592C28.406 2.33569 28.7877 2.07866 29.2081 1.9028C29.6286 1.72694 30.0796 1.63571 30.5354 1.63432H30.7789V16.4295C30.7789 18.1843 32.3405 19.2615 33.8544 19.2615C35.3128 19.2615 36.8797 18.2637 36.8797 16.4295V4.92685C36.8838 4.0549 37.2321 3.21986 37.8486 2.6033C38.4652 1.98673 39.3003 1.6385 40.1722 1.63432H40.3628ZM47.6493 6.87219C52.6966 6.87219 53.5065 9.70418 53.5065 11.4087V21.9903H53.3477C51.4844 21.9903 49.891 20.4234 49.891 18.5601V11.4616C49.891 10.4638 49.4861 9.27277 47.5143 9.27277C46.5959 9.27277 46.0586 9.38128 45.463 9.59832V21.9903H41.8449V7.97852C43.3827 7.30361 45.868 6.87219 47.6493 6.87219ZM58.6782 6.87219V18.5892C58.6782 20.4499 57.1643 21.9903 55.2745 21.9903H55.1131V6.87219H58.6782ZM56.8917 1.63432C57.9715 1.63432 58.837 2.44422 58.837 3.44204C58.837 4.41603 57.9715 5.19681 56.8917 5.19681C55.8118 5.19681 54.9225 4.41603 54.9225 3.44204C54.9225 2.44422 55.8118 1.63432 56.8917 1.63432ZM68.9555 1.33789C70.6574 1.33789 72.2507 1.71637 73.5714 2.52362V6.08876C72.7642 5.03536 71.6023 4.30751 69.739 4.30751C66.0679 4.30751 63.7997 7.92559 63.7997 11.676C63.7997 15.2147 66.1765 19.0736 69.739 19.0736C71.3058 19.0736 72.7351 18.6157 73.5714 17.4803V20.9898C72.518 21.7732 70.8718 22.2073 68.9291 22.2073C63.0983 22.2073 60.0201 16.8609 60.0201 11.7051C60.0201 6.62869 63.0983 1.33789 68.9555 1.33789ZM79.966 6.87219C80.5589 6.87219 81.3158 6.92512 81.9907 7.03099V9.92386C80.7468 9.03456 79.1005 9.331 78.3726 9.70948V18.5919C78.3726 20.4525 76.8349 21.9929 74.9716 21.9929H74.781V8.03146C76.1838 7.35654 77.6157 6.87219 79.966 6.87219ZM91.384 12.5415C91.2782 9.54273 89.4149 9.21983 88.4144 9.21983H88.282C86.2546 9.27277 85.3098 10.7046 85.3098 13.3752L91.384 12.5415ZM94.5178 14.5927L85.5268 15.834C85.8232 18.2902 87.0645 19.5871 89.3328 19.5871C91.8446 19.5871 93.1124 18.7772 94.0308 18.1314V21.1248C93.1124 21.6118 91.4105 22.2047 88.9808 22.2047C84.5819 22.2047 81.9643 19.235 81.9643 14.4842C81.9643 9.86828 84.394 6.87219 88.3879 6.87219C92.3316 6.87219 94.5178 9.49245 94.5178 14.0263V14.5927ZM103.943 9.78623C103.538 9.67487 103.119 9.6214 102.699 9.62743C99.7319 9.62743 99.1099 12.4859 99.1099 14.8626C99.1099 18.1843 100.219 19.8305 102.458 19.8305C102.836 19.8305 103.676 19.7511 103.943 19.6956V9.78623ZM107.479 1.63432V21.8024C106.616 21.9876 103.781 22.2047 102.593 22.2047H102.349C97.9506 22.1517 95.5474 19.6135 95.5474 15.0506C95.5474 10.4347 98.0591 7.46506 101.945 7.46506C102.701 7.46506 103.347 7.54446 103.916 7.68209V5.06183C103.916 3.17207 105.428 1.63432 107.317 1.63432H107.479ZM112.73 6.87219V18.5892C112.73 20.4499 111.219 21.9903 109.329 21.9903H109.165V6.87219H112.73ZM110.946 1.63432C112.026 1.63432 112.891 2.44422 112.891 3.44204C112.891 4.41603 112.026 5.19681 110.946 5.19681C109.866 5.19681 108.977 4.41603 108.977 3.44204C108.977 2.44422 109.866 1.63432 110.946 1.63432ZM119.042 1.63432V6.87219H121.364V9.75977H119.042V17.7793C119.042 18.7507 119.365 19.0471 120.419 19.0471C120.689 19.0471 121.094 18.9677 121.364 18.8592V21.8553C121.202 21.9082 120.498 22.2047 119.553 22.2047C116.909 22.2047 115.451 20.9078 115.451 18.5601V9.75977H113.884V6.87219H115.451V5.03536C115.451 3.17207 116.962 1.63432 118.825 1.63432H119.042Z" fill="#51547E" fill-opacity="0.6"/>
</svg>
